<?xml version="1.0" encoding="utf-8"?>
<!-- Generator: Adobe Illustrator 17.1.0, SVG Export Plug-In . SVG Version: 6.00 Build 0)  -->
<!DOCTYPE svg PUBLIC "-//W3C//DTD SVG 1.1//EN" "http://www.w3.org/Graphics/SVG/1.1/DTD/svg11.dtd">
<svg version="1.1" id="Layer_1" xmlns="http://www.w3.org/2000/svg" xmlns:xlink="http://www.w3.org/1999/xlink" x="0px" y="0px"
	 viewBox="0 0 180 36.2" enable-background="new 0 0 180 36.2" xml:space="preserve">
<g>
	<path fill="#231F20" d="M15.9,30.8c-0.2,0-1.1,0-2.6-0.1c-1.5-0.1-2.9-0.1-4.1-0.1c-2.3,0-4.9,0.1-7.7,0.3c0.5-1,0.7-2.2,0.8-3.5
		l0.1-9V7.8C2.4,6,2.1,4.6,1.6,3.6c4.7,0.1,9.3,0.1,13.8,0c-0.5,1.5-1.2,3.1-2.2,4.8c-0.4-0.6-1.1-1.9-2.1-3.7H6.5
		c-0.1,0.8-0.2,1.8-0.4,3c-0.1,2.5-0.1,4.1,0,4.8c1.4,1.2,2.7,2,3.9,2.5c1.4,0.6,3.2,0.9,5.3,0.9c-0.1,0.6-0.2,1.9-0.2,3.8
		c0,1.4,0,3,0.1,4.9c0.1,1.9,0.1,2.7,0.1,2.5C15.4,28.1,15.6,29.3,15.9,30.8z M6.2,27.2c0,0.6,0.2,1.4,0.5,2.4H9h2.2
		c0.2-0.8,0.3-1.6,0.4-2.3v-10c-1.4-0.2-2.4-0.5-3.2-0.8c-0.4-0.2-1.1-0.7-2.3-1.5L6.2,27.2z"/>
	<path fill="#231F20" d="M22.7,7.1v9.2c2-1.6,4.2-3.6,6.6-6V7.1c0-1.3-0.3-2.4-0.8-3.4c0.5,0.1,1.5,0.2,2.7,0.3
		c0.6,0,1.5-0.1,2.7-0.3c-0.5,1-0.7,2.2-0.8,3.4l-0.2,9L33,26.5c0,0.5,0.1,1.3,0.3,2.2c0.2,1,0.4,1.7,0.7,2
		c-1.4-0.1-2.4-0.2-2.9-0.2c-0.6,0-1.5,0.1-2.8,0.2c0.2-0.3,0.4-1,0.7-2.1c0.2-0.9,0.3-1.6,0.3-2.2l0.1-10.4l-0.1-3.8
		c-2.4,2-4.6,4.1-6.6,6v8.1c0,0.5,0.1,1.3,0.3,2.2c0.2,1,0.5,1.7,0.8,2c-1.4-0.1-2.4-0.2-3-0.2c-0.6,0-1.5,0.1-2.7,0.2
		c0.2-0.3,0.5-1,0.7-2.1c0.2-0.9,0.3-1.6,0.3-2.2l0.1-10.4c0-1.9,0-4.9-0.1-9c0-1.3-0.3-2.5-0.8-3.4c0.5,0.1,1.4,0.2,2.6,0.3
		c0.6,0,1.5-0.1,2.7-0.3C23,4.6,22.7,5.8,22.7,7.1z"/>
	<path fill="#231F20" d="M51.7,30.8c-0.2,0-1.1,0-2.6-0.1c-1.5-0.1-2.9-0.1-4.1-0.1c-2.3,0-4.9,0.1-7.7,0.3c0.5-1,0.7-2.2,0.8-3.5
		l0.1-9V7.8c-0.1-1.7-0.4-3.1-0.9-4.1c4.7,0.1,9.3,0.1,13.8,0C50.7,5.1,50,6.7,49,8.4c-0.4-0.6-1.1-1.9-2.1-3.7h-4.6
		c-0.1,0.8-0.2,1.8-0.4,3c-0.1,2.5-0.1,4.1,0,4.8c1.4,1.2,2.7,2,3.9,2.5c1.4,0.6,3.2,0.9,5.3,0.9c-0.1,0.6-0.2,1.9-0.2,3.8
		c0,1.4,0,3,0.1,4.9c0.1,1.9,0.1,2.7,0.1,2.5C51.2,28.1,51.4,29.3,51.7,30.8z M42,27.2c0,0.6,0.2,1.4,0.5,2.4h2.4h2.2
		c0.2-0.8,0.3-1.6,0.4-2.3v-10c-1.4-0.2-2.4-0.5-3.2-0.8c-0.4-0.2-1.1-0.7-2.3-1.5L42,27.2z"/>
	<path fill="#231F20" d="M70.9,30.8c-1.3-0.1-2.3-0.2-2.9-0.2c-0.6,0-1.6,0.1-2.9,0.2c0.2-0.3,0.3-1,0.3-2c0-0.9,0-1.7-0.1-2.2
		l-2.5-14.8c-1.3,1.6-2.4,3.9-3.3,7.1c-0.8,2.7-1.1,5.8-1,9.2c0,0.4,0.2,0.9,0.4,1.4c0.3,0.7,0.4,1.1,0.5,1.3
		c-1.3-0.2-2.3-0.3-2.9-0.3c-0.3,0-0.9,0-1.6,0.1c-0.7,0.1-1.2,0.1-1.4,0.1c0.4-0.9,0.7-1.8,0.8-2.7c0.4-3.2,1.1-6.2,2.2-9.1
		c1.2-3.2,3.2-6,6-8.4l-0.7-3.5c-0.2-1.3-0.7-2.4-1.4-3.4c1.1,0.2,2,0.3,2.7,0.3c0.6,0,1.6-0.1,2.7-0.3c-0.3,1-0.4,2.2-0.2,3.5
		l1.5,9l2.1,10.4c0.1,0.5,0.3,1.2,0.7,2.2C70.3,29.8,70.7,30.5,70.9,30.8z"/>
	<path fill="#231F20" d="M76.9,7.1v9.2c2-1.6,4.2-3.6,6.6-6V7.1c0-1.3-0.3-2.4-0.8-3.4c0.5,0.1,1.5,0.2,2.7,0.3
		c0.6,0,1.5-0.1,2.7-0.3c-0.5,1-0.7,2.2-0.8,3.4l-0.2,9l0.2,10.4c0,0.5,0.1,1.3,0.3,2.2c0.2,1,0.4,1.7,0.7,2
		c-1.4-0.1-2.4-0.2-2.9-0.2c-0.6,0-1.5,0.1-2.8,0.2c0.2-0.3,0.4-1,0.7-2.1c0.2-0.9,0.3-1.6,0.3-2.2l0.1-10.4l-0.1-3.8
		c-2.4,2-4.6,4.1-6.6,6v8.1c0,0.5,0.1,1.3,0.3,2.2c0.2,1,0.5,1.7,0.8,2c-1.4-0.1-2.4-0.2-3-0.2c-0.6,0-1.5,0.1-2.7,0.2
		c0.2-0.3,0.5-1,0.7-2.1c0.2-0.9,0.3-1.6,0.3-2.2l0.1-10.4c0-1.9,0-4.9-0.1-9c0-1.3-0.3-2.5-0.8-3.4c0.5,0.1,1.4,0.2,2.6,0.3
		c0.6,0,1.5-0.1,2.7-0.3C77.2,4.6,76.9,5.8,76.9,7.1z"/>
	<path fill="#231F20" d="M112.1,17.7c0,3.6-0.8,6.7-2.3,9.3c-1.8,2.9-4.2,4.5-7.2,4.6c-3.2,0.1-5.8-1.4-7.8-4.4
		c-1.8-2.8-2.6-6-2.5-9.8c0.1-3.7,1.1-6.9,2.9-9.6c2-3.1,4.6-4.5,7.7-4.3c3,0.2,5.3,1.8,7.1,4.9C111.4,10.9,112.1,14,112.1,17.7z
		 M107.1,17.5c0-8-1.5-12.1-4.5-12.4c-3.3-0.3-5,3.7-5.2,12c-0.1,3.6,0.2,6.5,0.9,8.8c0.9,2.9,2.2,4.3,4.1,4.2
		C105.5,29.9,107.1,25.7,107.1,17.5z"/>
	<path fill="#231F20" d="M130.6,3.6c-0.5,1.5-1.2,3.1-2.2,4.8c-0.4-0.7-1.1-1.9-2.1-3.7H124c-0.2,0.7-0.4,1.5-0.4,2.3l-0.1,9
		l0.1,10.4c0,0.5,0.1,1.3,0.3,2.2c0.2,1,0.4,1.7,0.7,2c-1.3-0.1-2.3-0.2-2.9-0.2c-0.6,0-1.5,0.1-2.8,0.2c0.2-0.3,0.5-1,0.7-2.1
		c0.2-0.9,0.3-1.6,0.3-2.2l0.1-10.4l-0.1-9c0-0.9-0.1-1.7-0.3-2.3h-2.4c-0.5,1-1.2,2.3-2.1,3.7c-0.9-1.7-1.7-3.3-2.2-4.8H130.6z"/>
	<path fill="#231F20" d="M146.2,11.4h-4.5c0.3-0.7,0.5-1.5,0.5-2.5c0-0.5-0.1-1.1-0.2-1.6c-0.4-1.9-1.4-2.8-3-2.8
		c-1.1,0-2,0.6-2.9,1.9c-0.9,1.3-1.3,2.7-1.3,4.2c0,1.9,0.4,4.2,1.1,6.9c0.2-0.5,0.4-1,0.6-1.5c0.6-1.1,1.5-2,2.6-2.7
		c0.9-0.5,2-0.8,3.4-0.7c1,0,1.8,0.5,2.5,1.5c0.7,1,1,1.9,0.9,2.7c-1.8-0.1-3.2-0.1-4.3,0c0-0.6-0.1-1.1-0.2-1.2
		c-0.2-0.4-0.6-0.5-1.3-0.5c-0.8,0-1.6,0.4-2.2,1.2c-0.6,0.8-1,1.8-1,3.1c0,1,0.1,2.2,0.5,3.4c0.4,1.5,0.6,2.5,0.6,2.8
		c0.2,1.5,0.2,3,0,4.5c0.5-0.4,0.9-0.8,1.4-1.3c1-1.1,1.6-2.4,2-3.8c0.2-0.9,0.3-1.8,0.3-3c0-1.2-0.1-2.3-0.3-3.4h4.1
		c0,0.8-0.1,1.6-0.2,2.3c-0.3,1.8-0.8,3.3-1.5,4.6c-0.9,1.5-1.8,2.7-2.7,3.4c-0.5,0.4-1.7,1.2-3.8,2.5h-0.8c0-0.3,0-0.6,0-1
		c0-2.1-0.7-4.5-2-7.2c-1.5-3-2.4-4.8-2.6-5.2c-0.9-2-1.3-3.8-1.3-5.3c0-2.3,0.8-4.4,2.3-6.4c1.7-2.2,3.8-3.3,6.3-3.3
		c2.7,0,4.7,1,6,3c0.8,1.3,1.2,2.7,1.2,4.4C146.2,11.1,146.2,11.4,146.2,11.4z"/>
	<path fill="#231F20" d="M157,8.7c0.3-1.1,0.2-2.7-0.2-4.9c1.7,0.1,2.5,0.2,2.3,0.2c0.7,0,1.6-0.1,2.5-0.2c0,1.1-0.2,2.5-0.4,4.3
		c-0.3,1-0.6,1.7-0.8,2.1c-0.5,0.9-1.4,1.7-2.6,2.7c-0.9,0.7-2.2,1.2-3.8,1.5c3.6,0.7,6,2.6,7.1,5.8c0.4,1.1,0.7,2.7,0.9,4.6
		c0.1,1.3,0.2,2.6,0.4,3.8c0.1,0.5,0.2,1.3,0.5,2.3c-0.5-0.1-1.4-0.2-2.8-0.3c-0.7,0-1.6,0.1-2.6,0.3c0.3-0.8,0.5-1.8,0.5-3
		c0,0.1,0,0.1,0,0.1c0.1-5.3-0.6-8.8-2-10.5c-1.1-1.3-2.4-2.1-3.8-2.2v1l0.1,10.4c0,0.5,0.1,1.3,0.3,2.2c0.2,1,0.4,1.7,0.7,2
		c-1.3-0.1-2.3-0.2-2.9-0.2c-0.6,0-1.5,0.1-2.8,0.2c0.2-0.3,0.5-1,0.7-2.1c0.2-0.9,0.3-1.6,0.3-2.1l0.1-10.4c0,0.6,0-2.4-0.1-9
		c0-1.3-0.3-2.4-0.8-3.4c0.5,0.1,1.5,0.1,2.7,0.2c0.6,0,1.5-0.1,2.7-0.2c-0.5,1-0.7,2.1-0.8,3.4l-0.1,6.7c0.8-0.5,1.5-1,2.1-1.6
		C155.8,11,156.7,9.8,157,8.7z"/>
	<path fill="#231F20" d="M177.6,30.8c-1-0.2-1.9-0.3-2.7-0.3c-0.6,0-1.5,0.1-2.6,0.3c0.2-0.4,0.5-1.1,0.8-2.2
		c0.1-0.7,0.2-2.4,0.3-5.2c0-1,0-3.6,0-7.8c-0.2,0.4-0.9,1.2-2.2,2.5c-0.9,0.9-2,1.8-3.4,2.8c1,0.4,1.6,1.1,1.6,2.2
		c0,0.5-0.2,0.9-0.6,1.3c-0.4,0.4-0.8,0.6-1.3,0.6c-0.1,0.1,0,0.6,0.3,1.4c0.2,0.8,0.5,1.4,0.7,1.8c0.2,0.4,0.6,1.3,1.1,2.6
		c-1.2-0.2-2-0.3-2.7-0.3c-0.7,0-1.5,0.1-2.5,0.3l1.4-2.8c0.2-0.6,0.5-1.6,0.9-3c-1-0.2-1.6-0.9-1.6-2c0-1.1,0.5-1.8,1.6-2.1
		c-0.8-1.1-1.3-2.4-1.4-3.8c-0.1-1.3,0.3-2.8,1.1-4.4c0.5-0.6,1-1.4,1.6-2.2c0.7-0.7,1.6-1.4,2.5-2.1c0.6-0.4,1.1-0.8,1.6-1.2
		c1-0.9,1.5-1.6,1.6-2c-0.9,0-2.2,0-4,0c-1.1,0.1-2.2,0.5-3.1,1.3l0.2-2.8c2.4,0.1,4.2,0.2,5.4,0.2c2,0,3.8-0.1,5.5-0.2
		c-0.1,0.9-0.2,2.1-0.4,3.8c-0.2,6.4-0.3,9.7-0.3,9.9l0.2,11.4C177.1,29.4,177.3,30.1,177.6,30.8z M171.5,8.9
		c-1.3,1-2.1,2.1-2.4,3.3c-0.2,0.9-0.4,1.7-0.4,2.5c0,1,0.2,2,0.6,3c0.6-0.4,1.6-1.4,2.8-2.9c0.5-0.7,0.7-1.7,0.9-3l0.4-3.7
		C172.8,8.3,172.2,8.6,171.5,8.9z"/>
</g>
</svg>
