<?xml version="1.0" encoding="utf-8"?>
<!-- Generator: Adobe Illustrator 17.1.0, SVG Export Plug-In . SVG Version: 6.00 Build 0)  -->
<!DOCTYPE svg PUBLIC "-//W3C//DTD SVG 1.1//EN" "http://www.w3.org/Graphics/SVG/1.1/DTD/svg11.dtd">
<svg version="1.1" id="Layer_1" xmlns="http://www.w3.org/2000/svg" xmlns:xlink="http://www.w3.org/1999/xlink" x="0px" y="0px"
	 viewBox="62 284 966 253.1" enable-background="new 62 284 966 253.1" xml:space="preserve">
<rect x="62" y="284" fill="#FFFFFF" width="966" height="253.1"/>
<path fill="#F2ECEC" d="M143.7,295.2c3-0.1,5.9-0.8,9-0.5c2.9,0.4,5.7-0.1,8.5-0.1c1.8,0,3.3,0.4,5,0.3c1.6,0,3.3-0.3,4.9-0.3
	c1.1,0,2,0.4,3.3,0.4c4.4-0.1,8.5-0.3,12.8,0.5c1.9,0.4,3.7-0.7,5.7-0.4c3.5,0.4,7.1,0.1,10.8,0.4c1.8,0.1,3.3-0.7,4.9-0.7
	c1.1,0.3,2.2,0.7,3.4,0.7c1.2,0,2.5-0.1,3.7-0.1c0.3,1.9,0.3,3.8,0.3,5.9c0.3,3.1,0.4,6.3,0.7,9.4c0.3,1.9-0.4,3.7-0.1,5.5
	c0.4,3,0.1,5.9,0.3,8.9c-0.1,2.5-0.3,4.9,0.1,7.5c0.1,5.5-0.3,10.9,0.1,16.2c-0.3,3,0.5,5.9,0,8.7c-0.5,2.7,0.3,5.5-0.1,8.1
	c-0.4,2.6,0.3,5.2,0.1,7.8c-0.3,3.5-0.4,7.2,0.3,10.9c0.7,3.4-0.7,6.8-0.5,10.2c0.3,2.6-0.1,5.2,0.1,7.8c0.1,3.7,0.3,7.5-0.1,11.2
	c0.1,3.3-0.5,6.7,0,10c0.4,2.5-0.3,5,0.1,7.5c0.3,2.3-0.3,4.5,0.1,7c0.4,1.8-0.3,3.5,0,5.3c0.4,2.2,0.4,4.4,0.1,6.6
	c-0.5,3.1,0.1,6.1-0.1,9.3c-0.3,2.5-1.2,4.8-1.1,7.4c0.1,2,0.3,4.2,0.3,6.1c-0.3,1-0.8,1.9-1.4,2.7c-3.7,0.1-7.2,0-10.9-0.1
	c-2.5-0.3-4.8,0.1-7.2,0.1c-2.6,0.3-5.2-0.1-7.9,0.1c-2.3,0.1-4.8-0.4-7.1,0.1c-0.8,0.1-1.8,0.4-2.5,0.5c-1.1-0.1-2-0.7-3.3-0.7
	c-2.3,0.1-4.5,0-7,0.5c-1.9,0.4-4.1,0.5-6,0c-1.6-0.4-3.1,0.4-4.6,0.4c-2.2,0-4.4-0.4-6.6-0.1c-2.9,0.4-5.7,0.3-8.6,0.3
	c-2.5-0.1-4.9,0.7-7.4,0.4c-3.7-0.7-7.4-0.4-11.1-0.4c-1.9-0.3-4-0.4-5.9-0.1c-1.2,0.1-2.2-0.7-3.4-0.5c-1.9,0.1-3.7,0.1-5.6,0
	c-0.7-0.1-1.5,0.4-2,0.7c-2.7-1-5.7-1.1-8.6-1.1c-1.9,0-3.7-0.8-5.7-0.7c-2.3,0.3-4.8,0-7.1,0c-3.3,0.1-6.4,0.3-9.7-0.4
	c0.7-2.6,0.3-5.3,0.4-8.1c0-1.9-0.3-3.8-0.4-5.9c-0.1-1.2,0.4-2.5,0-3.7c-1.1-2.7-0.3-5.7-0.5-8.5c0.1-2.3-0.7-4.5-0.4-7
	c0-1.2-0.1-2.5-0.1-3.7c0.3-2.9-0.5-5.6-0.1-8.3c0.3-1.9,0-3.5,0-5.5c0.3-4,0-7.9,0-11.9c0.3-1.6,0.3-3.1,0.1-4.6
	c0-4.9-0.7-9.8-0.4-14.9c0-1.6-0.1-3.3,0-4.8c0.1-1.2,0.7-2.5,0.5-3.7c-0.1-2.2-0.8-4.4-0.7-6.6c0.3-2.5-0.4-4.8,0-7.2
	c0.4-2.5-0.1-5,0-7.5c0-1.9,0.1-3.5,0-5.5c-0.3-2.6,0-5.2-0.4-7.6c-0.3-1.9,0.7-3.8,0.4-5.9c-0.3-1.4-0.4-2.7-0.1-4.1
	c0.7-4.4,0-8.6,0-12.8c0.1-1.6,0.4-3.1,0.4-4.6c-0.3-3.7,0.3-7.5-0.3-11.2c0.1-1.8,0.5-3.4,0.4-5.2c0.5-3.3,0.3-6.8,0.4-10.1
	c2.6-0.1,5.2-0.4,7.8,0c1.6,0.3,3.3,0,5,0c2.2,0,4.5,0.4,6.8,0c2.7-0.4,5.5,0,8.2,0.3c2.6-0.4,5.2,0.3,7.9,0c2-0.3,4.1,0.3,6.1,0.1
	c4-0.3,7.9-0.4,11.9-0.5c1.8-0.1,3.5-0.4,5.3-0.3C138,295.5,140.9,295.1,143.7,295.2z"/>
<g>
	<path d="M180.7,299.5c1.8-0.7,3.4-0.5,5.2-0.1c1.8,0.5,3.7-0.1,5.3,0.8c2.6,1.5,5.3,2.7,7.6,4.5c1,0.7,2.3,1,2.9,2.2
		c0.7,1.5,2,2,2.9,3.5c0.7,1.2,1.8,2,2.3,3.3c0.3,1,0.1,1.9,0.1,2.9c-1.8,0.1-3.7,0.7-5.3-0.4c-2.2-2.5-3.7-5.6-6.4-7.6
		c-1.1-1.2-3-1.4-4.4-2c-2.2-1-4.5-1.8-6.8-1.8c-3.3,0-6.6,0.1-9.6,1.6c-1.1,0.4-2.5,1.2-3.5,0.5c-1.8-1-3.4-1.9-5.3-2.5
		c0.7-1.5,2.5-1.9,4-2.6c1.5-0.5,2.9-1.2,4.4-1.5C176.1,300.2,178.5,300.3,180.7,299.5z"/>
	<path d="M109.8,300.4c1.6,0.1,3.1-0.5,4.5-0.1c2.2,0.5,4.5,0.4,6.8,0.5c3.5,0.7,7.2,1.6,10.1,4c-1,0.4-1.9,0.5-3,0.8
		c-1.2,0.7-2,1.8-3.3,2.3c-1.1,0.5-2.2,0.7-3.4,1.1c-1.8-1.9-4.4-1.4-6.6-1.8c-3.3,0.1-6.8-0.4-10,1c-1.9,0.8-3.8,2.2-5.9,3.3
		c-2.2,0.8-3.3,3.3-4.9,4.8c-1.5,1.5-3.1,2.9-4.5,4.5c-1.4,1.5-2,3.4-3.1,5c-0.8,1.2,0,2.7-0.7,4c-0.7,1.1-0.8,2.3-0.8,3.7
		c0,2.6-0.8,5.2-0.7,7.9c0.1,1.1,0.8,2,1,3.3s0,2.6,0.5,3.8c0.5,1.5,1.5,2.9,1.8,4.5c-0.3,2.5-1.1,4.9-1.8,7.2
		c-0.1,0.7-0.7,1.5-1.1,2c-1-1.9-2-4-2.3-6.3c-1.8-3.4-2.7-7.1-3.4-10.9c-0.4-1.6,0.4-3.4-0.3-5c-0.8-1.9-0.7-4.2-0.7-6.3
		c0.1-3.4,1.9-6.6,2-9.8c0.1-1.5,1.2-2.5,1.9-3.7c0.7-1.1,1.2-2.2,1.9-3.4c0.7-1.2,2.2-1.6,2.9-2.9c2.6-4.5,7.1-7.6,12-9.7
		c1.9-0.7,3.1-2.6,5-2.7C105.9,301.2,107.7,300.2,109.8,300.4z"/>
	<path d="M79.7,303.4c0.3-1,0.5-2,1.5-2.6c1.8-0.3,3,1,4.2,1.9c1.5,1,2.6,2.7,2.3,4.5c0,1-0.7,1.8-1.4,2.5c-1.6-1.4-3.4-2.5-5.3-3.3
		C79.9,305.7,79.3,304.5,79.7,303.4z"/>
	<path d="M211.4,313c0.1-1.5,0.4-2.9,0.8-4.4c0.3,1.9,0.8,4.1,1.2,6c0.4,1.4-0.4,2.9,0.1,4.2c0.4,1.1,0.7,2.2,1,3.4
		c-0.8-0.7-1.8-1.1-2.6-1.8c-0.5,0.7-1,1.2-1.5,1.8c0.8,1.9,1.5,3.8,1.8,5.9c-2.2-1.2-3.5-3.4-5.6-4.9c-1,1.4-1.4,3-1.9,4.5
		c-0.3,0-0.8,0.1-1.1,0.1c-1.1-1.5-1.6-3.3-1.9-4.9c-1.8,1-2,3.1-3.3,4.5c-0.4-1.2-0.5-2.6-0.7-3.8c0-0.5-0.5-0.7-0.8-0.7
		c-1.1,0.1-2,0.5-3.1,0.7c0.5-1.4,1.1-2.6,1.9-3.7c-0.8-2-1.1-4.4-0.7-6.6c1.9,1.5,2.9,3.8,4.9,4.9c0.7,0.5,1.6,1,2.5,1.4
		c1-0.1,1.9-0.5,3.1-0.4c0.8,0,1.9,0.4,2.7-0.4C209.8,317.3,211.2,315.3,211.4,313z"/>
	<path d="M141.4,313.4c0.8-0.3,1.2-1.5,2.2-1.1c0.8,0.7,1.5,1.6,2.3,2.2c1.4,1.1,3,1.8,4.2,3c0.7,0.7,1.1,1.8,0.7,2.6
		c-0.7,1.5-1.9,2.3-3.1,3.3c-1.6-1.5-3-3-4.6-4.2c-2-1.2-3.3-3.3-5-4.9C139.1,313.8,140.3,313.5,141.4,313.4z"/>
	<path fill="#AB1500" d="M133.1,316.1c0.8-0.5,1.8-0.8,2.7-1.1c-0.5,1.4-1.9,1.9-3.1,2.6c-2,1.4-4,3-5.7,4.6c-3,2.2-5.7,4.8-8.2,7.6
		c-2.7,2.6-3.7,6.3-5.7,9.4c-1,1.5-1.2,3.3-1.9,5c-1.1,2.7-1.5,5.7-2.5,8.5c-0.5,1.2-0.4,2.6-0.7,4c-0.8,3.1-1.2,6.3-1.5,9.6
		c0,1.6,0.1,3.3,0,4.8c-0.1,1.8,0.4,3.3,0.3,5c-0.4,4.1,0.1,8.2-0.1,12.3c-0.7,0.1-1.4,0.3-1.9,0.4c-0.4-1.8-0.8-3.3-0.8-5
		c0-2-0.3-4.4-0.1-6.4c0.1-3.1-0.3-6.1,0.5-9.3c0.7-2.2,0.3-4.5,0.7-7c0-3.3,1.6-6.4,1.9-9.7c0.3-2.3,1.2-4.6,1.6-7.1
		c0.4-1.8,1.4-3.3,1.9-4.9c0.7-1.5,1-3.1,1.9-4.5c1.8-2.3,3.3-4.6,5-7.1c1.1-1.6,2-3.3,3.7-4.5c1.1-0.7,2-1.5,3.1-2.3
		C127.1,319.3,130.2,318,133.1,316.1z"/>
	<path d="M154.5,316.7c1.5,0.5,3.3,0.8,4.5,1.9c0.1,0.7-0.4,1-0.7,1.5c-1.5,1.8-2.5,3.7-4,5.5c-0.7,0.8-0.7,1.9-1,3
		c-0.5,2.6-1.6,4.8-2.7,7.1c-1.1,4-1.6,8.1-2.6,11.9c0.1,0.7,0.4,1.5,0.5,2.2c0.4,1.8-0.3,3.4,0.1,5c0.5,1.8,1.4,3.3,1.9,4.9
		c1.2,3.3,3.5,6.3,6.1,8.6c-0.7,2.3-1.1,4.8-2.5,7.1c-2.6-1.9-4.5-4.5-6.6-6.8c-1.2-1.4-1.8-3.3-3-4.5c-0.7-0.8-1.4-1.8-2.2-2.5
		c-2.5-1.5-5.6-1.4-8.3-0.7c-1.9,0.7-3.8,1-5.7,1.6c-0.8-0.8-1.9-1.6-3.1-1.5c-0.3-1.4-0.8-3,0.1-4.1c1.8-1.4,4.4-1,6.3-0.7
		c1.9,0.5,3.7,0.1,5.7,0.1c-0.1-1,0-2.2-0.5-3.1c-2.5-2.3-5-4.6-7-7.5c-0.8-1.2-2.3-1.8-3.3-2.9c-0.8-1.2-1.6-2.7-2.6-3.8
		c-1.2-1.2-2.5-2.6-3.7-4c-1-1.2-2.6-1.4-4-1.8c0.8-0.7,1.9-1.1,3-1.6c0.8-0.7,1.5-1.8,2.2-2.7c1.5,1.2,3,2.3,4.5,3.5
		c0.7,0.7,1.9,0.7,2.9,0.7c1,2.2,3,3.4,4.6,5.2c1.2,1.9,2,3.8,3.5,5.5c1.4,1.4,1.9,3.5,4.1,4.4c1-1.8,0.3-3.7,0.7-5.5
		c1-3.8,1.9-7.8,3.4-11.5c1.2-2.2,2.7-4.2,3.7-6.7c0.7-1.9,2.2-3.1,2.9-4.9C153,318.7,153.7,317.6,154.5,316.7z"/>
	<path d="M93.9,320.1c0.7-1,1.4-1.9,2.3-2.7c1.1-0.1,2,0.8,3,1.5c1.6,1.2,3.5,1.9,5.5,2.9c3.3,2.3,6.6,4.4,10.1,5.9
		c-0.7,1-1.5,1.9-2.2,2.7c-1.4-0.5-2.7-1.1-4.1-1.9c-1.5-0.8-3.3-1.5-4.5-2.6c-1.1-0.8-2.5-1.1-3.7-1.6c-1-0.5-2-1-3.1-1.4
		C95.6,322.5,94.8,321.3,93.9,320.1z"/>
	<path d="M154.9,329.1c0.4-1.9,1.5-3.8,2.7-5.5c1.6,2,3.3,4.1,4.1,6.6c0.7,1.6,1.6,2.9,2.2,4.5c0.7,1.9,1.2,4,1.9,6
		c1.2,3.4,1.2,7.4,2.9,10.8c0.8,1.8,1,4,2.6,5.3c1.6,1.5,2.7,3.3,4,5c0.7,0.8,1.1,1.9,1.2,2.9c-1.6,0.3-3.3,1-4.9,0.4
		c-1.9-0.7-3-2.5-4.5-3.5c-1,2.2-1.9,4.5-1.5,7.1c0.3,1.9-0.7,3.4-0.8,5.3c-0.4,1.9-1.1,3.7-1.9,5.3c-0.7,1.1,0.3,2.2,0.4,3.3
		c-1.9,0.3-3.5-0.7-5.3-1.1c-0.8-0.3-1.6-0.8-2-1.5c1.8-2,2-4.9,3-7.4c1.1-2.2,0.7-4.8,1-7.1c0.4-1.9,0.4-4.1,1.1-6
		c1.1-2.3,0.5-5,0.7-7.5c-2.5,1-5.3,2.3-8.1,1.5c-0.8-0.1-1.8-1.1-1.2-1.9c1.2-1.9,4-2.7,4.6-5c0.5-1.5,1.8-2.6,2.3-4.1
		c0.1-1.5,0.3-3.1,0.4-4.5c-0.4-0.1-0.7-0.4-1.1-0.5c-0.1-1.4,0-2.9-1.1-4C156.4,332.1,155.1,330.7,154.9,329.1z"/>
	<path fill="#AB1500" d="M101.8,329.4c0.8-0.5,1.8,0.1,2.6,0.5c2,1.1,4.4,1.9,6.4,2.7c-0.7,2.3-1.9,4.5-3,6.8
		c-0.7,1.2-0.4,2.6-0.7,3.8c-0.5,1.5-1.9,2.6-2,4.2c-0.3,1.2-0.7,2.5-0.8,3.7c-0.1,2.7-1.2,5.3-1.8,8.1c-0.4,2-0.3,4.4-0.5,6.4
		c-0.1,1.4-1,2.6-1.2,4c0,1.1,0.4,2.2,0.5,3.3c0.3,1.6-0.8,3-0.7,4.5c0.4,1.9,0,3.8,0.5,5.7c0.4,2.2,0.1,4.5,0.8,6.7
		c-0.1,0-0.5-0.1-0.7-0.1c0.5,0.7,1.1,1.2,0.7,2c-0.7,2.6-3.1,4-4.2,6.3c-0.7,1.6-1.9,3-3.4,4c-0.7-1.9-1.4-3.7-1.6-5.7
		c-0.1-2.5-1.6-4.5-2-6.8c-0.4-1.6-0.7-3.3-1.2-4.8c-0.7-1.6-0.5-3.3-1.1-5c-0.4-1-0.5-1.9-0.7-3.1c-0.1-1.8-0.7-3.4-0.7-5.3
		c0.1-3.3-0.4-6.6,1-9.7c0.7-1.4-0.3-2.9,0.5-4.1c1-1.8,0.5-3.8,1.4-5.6c0.8-1.6,1.2-3.4,1.9-5.2c1.4-3,2.5-6,3.8-9
		c0.7-1.8,2.3-3.1,3.1-4.8C99.8,331.8,100.3,330.2,101.8,329.4z"/>
	<path fill="#8E2A17" d="M83.3,340c0.7-0.3,0.7,0,0.7,0.7C83.3,340.7,83,340.6,83.3,340z"/>
	<path d="M121.2,349.3c1.9-1,3.8-1.9,5.3-3.4c1,1.8,2.2,3.3,2.9,5.3c-0.7,0.8-1.5,1.6-2.6,1.9c-0.8,1.6-2.6,2.3-3.3,3.8
		c0.3,2.5,0.3,4.8,0,7.2c1.9,0.7,4,2.2,4.8,4.2c0.1,2.5-0.3,4.9,0.3,7.2c-0.7,0-1.1,0-1.8-0.1c-0.8-0.5-1.4-1.5-2.2-1.8
		c-1.9-0.5-3-2.6-4.9-3.3c0.4-1.1,0.4-2.5,1-3.5c0.7-1.5,1-3.3,1.2-4.8c-2,0.4-4.5,1.9-6.3,0.4c-1-0.4-1.6-1.4-2-2.2
		c-0.4-0.8-1.5-0.8-2.3-1.1c0.1-0.5,0.3-1.1,0.7-1.6c0.7-0.1,1.6,0.1,2.2-0.5c1.1-0.8,2.2-1.6,3.4-2c0,0.7,0,1.2,0,1.9
		c1.5,0.1,3,0.4,4.4,0C123.3,354.3,119.6,351.7,121.2,349.3z"/>
	<path d="M200.8,363.9c1-1.9,3.3-2.5,5-3.3c1.9,0.3,3.8,0.3,5.9,0.1c-1.4,1.5-3.4,1.9-5.2,3.1c-0.7,1.1-1.1,2.5-1.9,3.5
		c-0.8,1.4-0.7,3.1-1.1,4.5c-0.7,2.2-0.5,4.6-0.8,7c-0.7,4.4-1.9,8.6-0.8,13c0.3,1.6-0.1,3.3,0.4,4.8c0.7,1.9,0.3,4.1,0.4,6
		c0.3,3.3-0.7,6.6,0.4,9.7c0.7,2.3,0.5,4.6,0.7,7.1c0.5,3.1,0.8,6.1,2,9.1c0.5,1.4,0.5,3,1.1,4.4c0.7,1.4,0.5,3,0.7,4.5
		c0.1,1.9-0.1,4,0.3,5.9c0.4,2.2,0.3,4.5,0.1,6.7c0,2.3,0.1,4.6-0.4,7c-0.5,2.3,0.1,4.9-1.1,7.1c-1,1.9-1.4,4-2.6,5.7
		c-0.1-1.8,0.4-3.4,0.5-5.2c0-1.9-0.8-3.5-1.5-5.3c-0.4-1.5-1.6-2.6-1.9-4.1c-0.4-1.4-0.1-3-1.1-4.2c-1.1-1.5-2.5-2.9-3.5-4.4
		c-0.8-1.1-1.4-2.3-2.5-3.3c-1-0.7-2-0.8-3.3-1.2c-0.8-0.3-1.8,0.4-2.6,0.7c-1.2,0.7-2.6,1.5-3.3,2.9c-0.7,1.4-1.1,3-1.8,4.4
		c-0.7-1.4-1.4-2.5-2.3-3.5c-0.3-0.7,0.1-1.6,0.3-2.3c0.3-1.4,1.4-2.2,1.9-3.4c0.4-1.2,0.3-2.9,1.5-3.7c1.4-1.1,3.3-0.1,4.8-0.7
		c1.6-0.8,3-1.9,4.4-3c0.7,1.4,1.4,2.7,1.9,4.1c0.7-0.4,1.5-0.7,2.2-1.1c0,1.1-0.1,2.2,0.1,3.3c1.2,1.5,2.5,3.1,4.1,4.2
		c0.4-0.3,0.5-0.5,0.5-0.8c0.3-2.5-0.3-4.8-0.7-7.1c-0.5-2.9-2.3-5-3-7.8c-0.4-1.9-0.7-4-1.5-5.9c-0.7-1.5-1.9-2.6-2.2-4.2
		c-0.3-1.9-1.2-4.1-0.8-6.1c0.3-1.8,1.2-3.3,1.1-5.2c0.1-2.9-0.3-5.6-1.2-8.3c-0.3-0.8-0.7-1.8-0.7-2.6s0.1-1.9,0-2.7
		c-0.1-1.5-1.6-2.6-1.6-4.2c-0.3-2.2,1.1-4,1.4-6c0.3-1.6,2-2.6,1.9-4.4c-0.1-1.4,0.1-2.9,0.3-4.2c1.1,0.1,2.2,0.3,3.3,0.3
		c-0.1-1.9,0.1-4.1,0.7-6C200,367.2,200,365.4,200.8,363.9z"/>
	<path d="M139,374.5c1.1-1.2,3-1.1,4.5-1.9c0.3,2.3,1.6,4.4,3.1,6.1c1.4,1.5,3.3,2.2,4.8,3.3c1.9,1.5,4.5,1.4,6.6,2.5
		c1.2,0.7,2.6,1,4,1.4c1.2,0.4,2.2,1.2,3.3,2c1.1,1,2.5,1.4,3.5,2c1.6,0.8,2.9,2.2,4.5,3.3c1.6,1,2.6,2.7,4,3.8
		c0.7,0.4,1.8,0.4,2.6,0.5c-0.7,0.1-1.2,0.3-1.9,0.3c0.1,0.1,0.4,0.5,0.5,0.7c1,0.1,2.2,0.1,2.9,1.1c1.6,1.2,2.7,3,4,4.5
		c0.3-0.7,1-1.8,0.4-2.5c-2.3-3.4-4.9-7.1-8.3-9.6c-1.4-0.8-2-2.5-3.4-3.3c-1.9-1.1-3.4-2.5-5.5-3.1c-1.8-0.7-3-1.9-4.2-3.1
		c0.1-2.9,0.8-5.6,2.2-8.1c1.2,1.4,2.6,2.7,3.8,4c1.9,1.6,3.8,2.9,5.3,4.9c0.7-2.2,1-4.8,2.7-6.7c1.5-1.1,3.3-1.1,5-1.2
		c-0.1,2.9-0.7,5.9-0.7,8.6c-0.1,1.1,0.7,2,1.1,3c0.8,1.5,0.5,3.3,1,4.8c1.2,1.8,3.3,2.5,4.4,4.2c1.5,2.2,3.7,4.2,3.7,7.1
		c-0.5,3.4-1,7.1-1.2,10.5c-0.1,1.2,0.4,2.2,0.7,3.3c0.7,1.9,1.5,3.8,2.5,5.7c0.7,1.4,2.2,2.6,1.9,4.4c-1.8-1.1-2.7-2.9-4-4.5
		c-1-1.6-2.9-2.6-3.8-4.1c-1.1-1.8-3.1-2.7-4.9-3.7c-2-1.2-4.5-1.8-6.7-2.2c-1.8,0.3-2.5,1.9-3.3,3.3c1.6,1.2,3.4-0.3,5-0.7
		c0,0.7,0.5,1.6-0.1,2.2c-1,0.8-2.2,1.8-3.5,1.9c-1.2,0-2.3-0.4-3.5-0.7c-0.4-1.4-0.8-2.7-1.1-4.1c0-2.2,1.5-4.2,3.3-5.3
		c0.8-0.8,1.9-0.3,3.1-0.3c1.2,0.3,2.7,0.1,3.8,0.8c1.2,0.7,2.7,0.7,3.8,1.8c0.3-0.4,0.5-0.7,0.7-1c-0.7-1.5-1.9-2.5-3-3.7
		c-1.1-1.6-3.1-2-4.6-3.3c-1.9-1.1-3.3-2.6-5.3-3.3c-1.4-0.5-2.7,0.1-4.1,0.7c-1.8,0.5-3.5,1-5.5,0.7c0.7-1.4,1.5-2.7,2.6-3.7
		c1-0.8,2-1.8,3-2.7c-0.5-0.5-1-1.1-1.6-1.5c-1.4-0.5-3-0.4-4.4-1.1c-1.1-0.7-2.2-1.5-3.4-1.8c-1.9-0.5-3.5-1.2-5.3-1.6
		c-2-0.7-4.4-0.1-6.4-0.5c-1.8-0.3-3.5-0.8-5.5-0.4c-3,0.7-5.9,0.3-8.9,0.8c-1.5,0.4-3,0.1-4.4-0.1c-0.1-2.5-2.6-3.5-4-5.3
		c1-0.7,2-0.8,3.3-1.1c1.1-0.3,1.9-1.4,3-1.5c2.6,0,5.2,0,7.6-0.1C138.2,379.2,137.9,376.7,139,374.5z"/>
	<path d="M115.2,379.2c1.2-1.4,2.2-3.1,3.8-4.1c0.7-0.3,1.5-0.1,2.2-0.1c-0.4,1.1-1,2.2-0.7,3.4c0.4,1.9,0,4.2,0.7,6.1
		c0.4,1.4,0.5,3.1,1.8,4c2.9,2,5,4.8,7.9,6.8c1.9,1.2,3,3.4,5,4.5c2.6,1,4,3.5,5.9,5.5c-2,1.9-3.1,4.5-4.6,6.7
		c-1.8-2.2-2.6-5.5-5.5-6.3c-4-1.5-8.2,0-12.3-0.3c0.7-1.4,1-2.9,1.9-4.1c1-0.8,2.5-1.1,3.3-1.9c0.7-0.7,0.7-1.8,0-2.3
		c-1.4-1.2-3.3-1.9-4.4-3.5c-1-1.5-2.2-2.9-3.4-4.1c-0.7-0.7-1.9-1-2.9-1.5c-1.9-0.7-3.5-1.8-4.8-3.1c-0.5-2.9,0-5.9-0.1-8.7
		c1.4,1,2.5,2.3,3.8,3.3C113.7,379.7,114.8,379.9,115.2,379.2z"/>
	<path d="M111.1,389.7c0.5-0.4,1,0,1.5,0.1c1.9,1,3.3,2.6,4.9,4c-1,0.8-2.2,1.5-3.4,1.9c-1.5,0.5-2.3,1.9-3.5,2.9
		c-1.6,1.1-3.4,1.9-5,3.3c-1.2,1-1.6,2.6-2.7,3.7c-1.4,1.4-2.7,2.9-4.2,4.1c-0.7,0.7-0.8,1.8-0.8,2.7c0,2.6-1.4,4.8-1.8,7.2
		c-0.4,2,0.8,4.1,1.1,6.1c0.1,1.4,1.1,2.3,1.8,3.3c1.1,1.8,2.3,3.4,3.8,4.8c0.7,0.7,1.8,1.5,1.6,2.6c-0.4,0.7-1,1.1-1.8,1.2
		c-0.7-0.3-1.5-0.8-2.2-1.1c-0.8-0.3-1.9-0.1-2.9-0.4c-0.7-0.5-0.8-1.1-1.2-1.8c-0.3,0-0.7-0.1-0.7-0.1c-0.3,1-0.7,1.9-0.7,2.9
		c0.1,1.6,0.7,3.3,1.4,4.6c0.8,2,1.6,4.2,1.9,6.4c0.1,1.6,1.9,2.3,2.7,3.5c-1.6,1.8-3.4,3.4-4.2,5.7c-1.2-2.2-3-4.2-4-6.4
		c-0.4-1-1.6-0.7-2.3-0.4c-0.7,1-0.8,2.5-2.2,3c-1.6,0.7-3.3,0.3-4.9-0.1c-1.1-0.5-1.9-1.2-3.1-1.9c0-0.1-0.1-0.5-0.1-0.7
		c1.9-1.4,3.7-2.9,5.9-3.4c1.1-1.4,1.4-3.3,1.6-4.9c0.1-1.4,0.8-2.6,1.1-3.8c0-1.1-0.5-2.2-0.8-3.3c-1-3.3-0.7-6.7,0.4-9.8
		c0.5-1.9,1.8-4,1.2-6.1c-0.4-1-1-2.2-2.2-2c-3-0.1-5.6-2-7-4.8c2.2-0.4,4.5-0.8,6.7-1c1.5-0.4,2.6-1.5,4-1.9
		c2.3-1.2,4.2-3.3,5.7-5.5c1.6-1.5,3.1-3.1,4.4-4.8c1-1.5,2.6-2.5,4.2-3.1c1.4-0.5,1.4-2,2.2-3.1
		C108.5,391.6,109.8,390.5,111.1,389.7z"/>
	<path d="M149.3,397.1c0.7-1.8,1.8-3.3,2.9-4.8c1.9,0.5,3.7,1,5.6,1.5c0,1,0.5,2.2-0.4,3.1c-1.4,1.4-2,3.1-3.4,4.5
		c-0.7,0.7-1.5,1.4-2,2.2c-1.1,1.9-2.6,3.4-4.4,4.5c-1.2,0.7-1.6,2-2.6,3.3c-1.4,1.9-3.3,3.3-4.5,5.3c-0.7,1-1.1,2.2-1.9,3.1
		c-1.9,2-4.1,4.1-6,6.1c-1.5,2-3.4,3.7-4.9,5.9c-0.5,0.7-1.2,1.2-2,1.5c-0.4,0.1-0.8,0.4-1.4,0.1c-0.5-1.2-0.8-2.6-1-3.8
		c0.7-1.5,1.9-2.5,3-3.4c1.5-1.1,2.9-2.6,4-4.2c-2.5-1-4.8-2.3-6.4-4.6c-0.3-0.7-0.3-1.2-0.4-1.9c2.6,0.1,5.2,1.2,7.8,0.7
		c1.9-0.4,4.1-0.3,5.5-1.8c1.5-1.5,3.3-2.5,4.4-4.4c0.7-1.5,2.5-2.2,3-3.8c0.7-1.8,1.9-3,2.7-4.5
		C147.3,399.9,148.7,398.7,149.3,397.1z"/>
	<path fill="#AB1500" d="M108.7,402.2c0.7,0,1.2-0.5,1.8,0c0.7,0.4,0.4,1.2,0.5,1.9c0,1.8,0.8,3.3,1.9,4.6c1.4,1.9,1.6,4.1,2.5,6.1
		c0.8,2.3,1.4,4.8,2.6,7.1c1,1.9,1.4,3.8,1.9,5.9c0.8,2,1.9,4,3,5.9c0.7,1.4,1,3,2,4.1c1.8,1.9,3.1,4.1,4.5,6.1
		c1.4,1.9,1.9,4.2,3.5,5.7c1,0.8,1.8,1.9,2.5,3c0.8,1.2,2.2,2.3,2.3,4c-0.1,1-1.2,1.6-1.9,2.2c-0.8-2.5-2.6-4.5-3.7-7
		c-0.8-1.6-2.2-2.9-3-4.5c-0.8-1.9-1.9-3.5-3.3-5c-1.4-1.6-1.9-3.5-2.9-5.5c-0.4-0.8-1.4-1-2-1.4c0,0.7,0,1.6,0.4,2.2
		c0.8,1.9,1.2,3.8,2.3,5.6c1.5,2.3,3.7,4.4,5,7c1.6,3.1,3.5,5.9,5.7,8.5c-1.2,1.1-3.3,1.1-4.5-0.1c-2-1.9-4-4.4-5.2-7.1
		c-0.8-1.9-2.7-3.1-3.5-4.9c-1.1-2-2.3-4.1-3.8-5.9c-0.7,0.8-1.4,1.8-1.9,2.6c-0.8,1.1-1.2,2.5-2.2,3.5c-0.7,0.8-1.5,1.9-2.3,2.7
		c-1.8,2-4.1,3.7-5.3,6.1c-0.7,1.5-1.9,2.7-2.7,4.2c-0.7,1.4-1.6,2.5-2.3,3.7c-1.2,2-3.3,3.5-5.3,5c-1.8,1.4-4.1,1-6.1,1.5
		c-1.9,0.5-4,0.4-5.7-0.5c-0.7-0.7-0.7-1.6-0.8-2.3c1.9-1,4.1-0.7,6.1-0.7c1.9-1,4-2,5.6-3.8c1.5-1.8,3.7-2.7,4.8-4.8
		c0.8-1.9,2.9-3,3.7-4.8c0.7-1.6,1.8-3.1,2.7-4.5c1.4-1.8,1.8-4.1,3.3-5.7c1.1-1.9,3.3-3,4.5-4.6c1,1.2,1.9,3,3.7,2.6
		c0.3-1.9-1.6-3.3-2.9-4.5c-1.8-1.5-2.7-3.7-3.7-5.7c-1.5-2-2.6-4.5-4.2-6.6c-1.6-1.9-2.5-4.5-3.7-6.8c-1.1-1.5-1.9-3.1-2.6-4.8
		c1-1.5,2.2-2.9,3.3-4.2c1.1-1.2,1.9-2.7,3-4c1.4,2.7,1.9,5.6,2.7,8.5c0.4,1.1,0.7,2.2,1.5,3.1c1.4,1.5,0.8,3.8,2,5.5
		c3.3,4.2,3.8,9.8,7.2,13.9c0.3,0.3,0.7,0.5,0.8,0.7c0.4-3.3-1.6-6-3-8.7c-1.4-2.2-0.8-4.9-2-7.1c-0.7-1.4-1.6-2.6-2-4.1
		c-0.8-2.2-2-4.4-2.9-6.6C109.8,407.2,109.1,404.7,108.7,402.2z"/>
	<path fill="#8E2A17" d="M186.5,412.5c0.7,0.1,0.3,1.2-0.4,1C185.4,413.2,185.9,412.2,186.5,412.5z"/>
	<path d="M144.3,416.4c0.7-1.2,1.9-2,3.1-2.7c0.3,0.7,0.5,1.2,0.7,1.9c0.4,1.8,1.6,3.3,1.9,4.9c0,0.8,0.7,1.1,1.4,1.5
		c0.5-1.6,0.7-3.3,1.4-4.8c1.6-1.2,3.3-2.6,5.5-2.6c1.5,0.7,3.7,1.1,3.8,3c-0.7,1-1.6,1.9-2.3,3c-0.7,0.8-1.9,0.8-2.3,1.9
		c-0.7,1.9-1.1,4.2-1.9,6.1c-0.8,2-1.9,4.4-2,6.6c-0.1,1.5,0.7,2.9,0.4,4.2c-0.4,2-0.3,4.4-1.1,6.3c-0.7,2.5-1.8,4.8-2.5,7.2
		c-0.3,0.7-0.7,1.5-1.2,1.9c-1.5,1.4-2,3.3-3.4,4.8c-1.1,1.1-1.9,2.5-3.3,3.3c-1.1,0.5-2,1.2-3.1,1.9c-1.5,1.1-3.3,1.6-4.9,2.5
		c-0.8,0.5-1.8,1.1-2.7,1.5c-0.8,0.1-1.8,0-2.6,0.1c-1.8,0.3-3.5,1-5.5,0.7c-1.1-0.1-2.3-0.1-3.4-0.1c-1.4-1.9-3.8-2-6-1.8
		c-0.4-0.4-0.7-0.8-1.1-1.2c-1.4-0.5-3-0.4-4.4-1c-1.6-1-3.1-2-4.5-3.3c1.1-1.6,2.2-3.3,3.5-4.6c1,0.7,1.9,1.2,2.9,1.6
		c1.2,0.3,2.2-0.5,3.3-1c2.3-1.1,4.1-3.1,6.4-4.2c-0.3,1.5-0.3,3.1-0.4,4.6c-0.5,1-1,1.9-1.1,3.3c1.5,0.1,3.1,0.4,4.5,0.5
		c2,0.1,4.2,1.2,6.1,0.3c2-0.4,4-1.2,6-1.6c1.4-0.5,2.3-1.4,3.5-2c1.8-1,2-3,3.1-4.5c1.2-1.9,1.6-4.6,0.5-6.8c-0.8-1.4-1.9-2.7-3-4
		c-1-1.1-2.6-1.5-3.4-2.6c-0.5-0.5,0-1.2,0.1-1.8c1.9,0,3.8,0.1,5.9,0c1.2,1.4,3.3,1.5,5,1.5c0.7-1.4,1-2.9,0.7-4.4
		c-0.4-2.9-0.3-5.7-0.5-8.5c-0.4-2.2-2.5-3.3-3.7-4.9c-0.7-0.8-1.2-1.6-1.5-2.7C142.1,418.8,143.3,417.8,144.3,416.4z"/>
	<path fill="#AB1500" d="M172.1,423.4c2.5-0.7,4.9-0.1,7.4-0.3c1.6-0.1,3,0.7,4.5,1.1c-0.3,0.7-0.4,1.4-0.7,1.9
		c-0.7,2,0.1,4.5-1,6.6c-1,1.9-2.3,3.5-3.4,5.5c-0.3,1.4-0.1,2.9-0.7,4.2s-0.5,2.7-0.7,4.2c-0.3,1.2-0.8,2.5-1.6,3.5
		c-0.8,1.5-2.5,2.3-3.3,3.8c0,0.5,0,1.1,0.1,1.6c-0.3,0.3-0.7,0.5-0.8,0.7c-0.1,0.7,0,1.6-0.5,2.2c-0.7,0.8-1.6,1.6-2,2.6
		c-0.7,1.1-1.1,2.6-2.2,3.4c-1.1,1.1-2.5,1.9-3.7,2.9c-1.6,1-1.4,3.5-3.3,4.2c-2,0.7-4.4,0.8-6.4,1.5c-2.3,0.7-4.9,1.2-7.2,0.1
		c-3-1.6-5.9-3.5-7.5-6.6c1.2-0.5,2.3-1.2,3.7-1.4c0.8,0.4,1.4,1.1,1.9,1.8c1.1,1.5,2.2,3.1,3.1,4.6c1.1-0.7,2.3-1.2,3.3-2.2
		c1.4-1.5,2.3-3.3,3.3-4.9c0.8-1.4,1.9-2.6,2.9-4.1c1.5-2.6,2.2-5.5,3.3-8.3c1.2-4.5-0.4-9.3,0.7-13.8c0.5-2.2,0.5-4.5,0.8-6.8
		c0.3-1.5,0.5-3.1,0.1-4.6c-0.4-1.2-0.7-2.6-0.7-3.8c1.1,0.4,2.3,0.7,3.5,0.7c1.1,0.1,2-0.7,3.3-0.7
		C169.5,423.7,170.8,423.8,172.1,423.4z"/>
	<path fill="#F2ECEC" d="M164.8,425.4c0.7-0.3,1.4-0.5,1.9-0.7c0.5,1.4-0.1,2.7-0.7,3.8c0,1.8-0.1,3.4-0.3,5.3
		c0.4,2.2,0.5,4.5,0.4,6.7c-0.3,1.9-0.7,3.5-0.7,5.5c0,1.2,0.4,2.5,0,3.5c-0.3,1.1-0.7,2.3-0.7,3.4c-0.1,1.5-1.4,2.7-1.5,4.2
		c-0.3,1.9-1,3.7-1.9,5.5c-0.5,1.1-1.8,1.6-2.6,2.3c-1,0.7-1.2,1.9-1.8,3c-0.7,0-1.4,0-1.9,0c1.5-3.1,3.4-5.9,5-8.9
		c0.5-1,0.1-2,0.5-3.1c0.7-1.5,1.8-2.9,2-4.5c0.7-3.4,0.1-7,0.5-10.4c0-3.4,0.8-7,0.7-10.5c0-1.4,0.8-2.5,1.5-3.5
		C165.3,426.7,165,426,164.8,425.4z"/>
	<path fill="#8E2A17" d="M95.2,431.7c0.7-0.3,0.7,0,0.7,0.7C95.2,432.5,94.9,432.3,95.2,431.7z"/>
	<path fill="#8E2A17" d="M86.8,446.2C87,446.3,87,446.3,86.8,446.2z"/>
	<path d="M190.4,453.7c1-0.3,2-0.3,3.1-0.4c0.8,1.6,0.8,3.4,1.2,5c0.8,1.2,2.6,0.4,3.5-0.1c1.6,2,3.4,4.5,3.3,7.1
		c0,1.8-0.5,3.4-1.5,4.8c-1.2-1.9-2.7-3.4-3.7-5.5c-0.7-1.2-1.5-2.2-2.6-3.3c-0.7-0.7-1.9-0.5-3-0.7c-1.9-0.1-3.7-1.2-5.7-1.6
		c-1.2-0.3-2.3,0.5-3.4,1c-1.5,0.7-2.6,1.9-3.4,3.1c-0.8,1.1,0.3,2.5-0.3,3.7c-0.4,1.4-0.7,2.7-0.5,4.2c-1.9-1-4.6-1.8-4.6-4.2
		c-0.5-1.9,0.4-3.7,1.4-5.3c1-1.4,2.5-1.9,3.8-3c0.8-0.5,0.7-1.5,0.7-2.3c1.2-0.4,2.3-1.1,3.5-1.2c1.6,0.3,3,1.8,4.6,1.5
		C188.5,456.1,189.1,454.4,190.4,453.7z"/>
	<path fill="#8E2A17" d="M154.3,469C155.3,469.1,153.7,470.1,154.3,469z"/>
	<path fill="#8E2A17" d="M151.7,472.5c0.3-1,0.7-1.9,1.2-2.9c0.3,0.1,0.7,0.5,1,0.7C153.4,471.4,152.5,472.1,151.7,472.5z"/>
	<path fill="#AB1500" d="M139.8,305.1c3.3-0.4,6.7-1.1,10-0.7c3.7,0.5,7.5,1.2,11.2,1.9c2.6,0.5,4.9,1.6,7.2,2.7
		c1.8,0.8,3,2.3,4.6,3.3c2.7,1.2,4.8,3.5,7.1,5.5c2.3,2.6,4.6,5,6.8,7.9c1.5,1.9,3.1,3.7,4.2,5.9c1.9,3.5,4.2,7,5.7,10.8
		c0.5,1.4,0.4,2.7,0.7,4.1c0.5,1,1.2,1.9,1.5,3c0.5,1.9,1.5,3.8,1.8,5.9c-3.7-0.5-7.5-0.5-11.2-1.5c-1.8,0.7-3.4,0.5-5.2,0.1
		c0.4-3.4,0-7-0.1-10.4c0-1-0.7-1.9-0.8-2.9c-0.7-1.8-0.7-3.7-1.5-5.5c-0.8-1.9-1.5-3.8-2.7-5.5c-1.2-1.8-1.9-3.8-3.3-5.3
		c-0.7-0.7-1.2-1.6-1.9-2.6c-1-1.8-2.5-3-3.7-4.5c-1.2-1.6-3-2.6-4.6-3.5c-1.2-0.7-2.5-1.8-4-2c-1.8-0.5-3.5-0.7-5.3-1.1
		c-2.7-0.3-5.6-1.2-8.2-0.1c0,0.1,0,0.5,0,0.7c1.6,0.7,3.3,1.4,5,1.6c3.3,0.3,6.7,1.2,9.7,2.9c2.2,1.1,3.5,3.1,5.5,4.5
		c1.4,1.1,2.3,2.5,3.3,3.8c3.4,4.2,5.9,9.3,7.6,14.5c0.7,1.9,0.8,3.7,1.4,5.6c0.8,3.3,0.7,6.4,1.1,9.7c-1.6,0.1-3.3,0.4-4.8,0.7
		c0.5-1.9,0.7-4,1-6c0.3-1.4-0.7-2.6-0.5-4c0.4-4.2-0.7-8.5-2.6-12.3c-1-1.9-1.9-4.2-3.4-5.9c-1.8-1.8-3.3-3.4-4.8-5.3
		c-0.7-0.7-1.5-1-2.2-1.4c-1.6-0.7-3-2-4.6-2.7c-2-0.8-4.1-2-6.1-2.7c-1.6-0.4-3.3-0.4-4.6-0.5c-1.4,0-1.1-1.8-1.4-2.6
		c-1.8,0.1-3.4,0.4-5.2,0.5c-3.1,0.7-6.3,1.4-9.1,2.9c-3.8,1.4-6.7,4.4-10.5,5.9c-1.9,0.8-3.3,2.2-5,3.3c-1.2,0.7-2.5,1.6-3.7,2.3
		c-1.1-0.3-1.9-1.1-2.9-1.5c-1.5-0.5-3-1.2-4.5-1.9c0.7-1.9,2.3-3.3,3.8-4.6c1.5-1.4,3.3-2,4.8-3.3c0.7-0.7,1.6-1.5,2.6-1.8
		c2.3-0.7,4.6-1.8,7.1-2.6c2.2-0.7,4.5-1.5,6.8-2.5C134.5,305.7,137.2,305.6,139.8,305.1z"/>
</g>
<path fill="#AB1500" d="M306.7,475.1c-8.1-0.4-20.2-0.8-36.7-1.4c-10,0-22.5,0.5-37.5,1.4c2.7-6.6,4.1-12.6,4.1-18.2
	c0.1-6.6,0.4-17.3,0.5-32.1c0.1-15.6,0.1-26.1-0.3-31.7c-0.5-9.1-2-16.1-4.6-21.2l37.3,1.1c-16.2,0-27.7-0.3-34.3-0.8
	c5.7-0.1,28.9-0.3,69.6-0.3c0.7,12.4-0.1,21.3-2.5,26.9c-3.4,7.6-10.6,13-21.3,16c18.2,8.3,27.2,22,27.2,41.1
	C308.1,460.1,307.7,466.4,306.7,475.1z M281.7,380h-22.5c-0.4,4.5-0.7,8.9-0.8,13.5c0,1.9,0,6,0,12.6v5.5c9.4,0.5,16-2.2,19.5-8.3
	C280.6,398.7,281.9,390.9,281.7,380z M282.7,467.5c1.2-5.3,1.9-10.6,1.9-16c0-20.9-8.6-31.8-26.1-32.9l0.5,31.3
	c0.1,6.1,0.7,12.3,1.6,17.7C268.8,466.7,276.3,466.7,282.7,467.5z"/>
<path fill="#AB1500" d="M390.6,377.8c-2.3,0.7-5.7,3.3-9.8,7.4c-1.9,1.9-4.1,5.2-6.3,9.7c-4.8-8.3-9.3-13.4-13.5-14.9
	c-10.9-3.4-17.3,2.2-18.8,17.1c-0.4,3.3-0.5,6.7-0.5,10.1c0.1,3.1,0.8,12.3,1.9,27.2l2.2-1.4c1.9-4.1,3.7-8.1,5.9-12.1
	c3.3-5.9,7-9.4,10.9-10.4c5.9-1.5,9.6-2.3,10.9-2.7c3.8-1.5,8.2-3.5,12.8-6.3c-0.1,0.4,0.1,1,0.8,1.9c-2.7,8.3-5.7,14.7-8.7,18.7
	c-1.9,2.3-5.7,4.4-10.9,5.9c-6.4,1.6-14.2,5.5-23.3,11.2c3.4,18.6,9.4,27.7,17.5,27.7c5.3,0,11.7-4.8,19.2-14.6l6.3,5.9
	c-12.3,13.5-23.6,20.2-34.1,20.2c-10.9,0-19.5-6.8-25.5-20.2c-4.5-10-7-21.3-7.1-33.4c-0.1-11.9,0.5-21.4,1.9-28.8
	c6.1-5.3,12.4-10.8,18.7-16.1c9.7-7.1,18.4-10.8,26.1-10.8C377.3,368.8,385.2,371.7,390.6,377.8z"/>
<path fill="#AB1500" d="M463.2,475.1c-6.1-0.8-11.1-1.4-14.9-1.4c-3.8,0-9,0.5-15.3,1.4c3-7.1,4.5-15.6,4.6-25.1v-62.2l-0.7-7.6
	h-16.8v45.7l-21.7,10.8c1.1-13.6,1.6-24.6,1.6-32.3c0-7.6-0.5-18.4-1.6-32.1h101.3c-3,9.6-7.2,19.2-12.8,29.1
	c-2.6-3.5-6.8-10.6-12.6-21.2h-13.6l-1.1,7.9v61.8c0,4.5,0.5,9.4,1.6,14.5C461.9,468.2,462.6,471.7,463.2,475.1z"/>
<path fill="#AB1500" d="M567.2,416.6c0.7,3,1.1,6.3,1.1,10.1c0,8.7-1.9,15.8-5.9,21.2c-6.6,8.6-18.4,18.8-35.5,30.7
	c-3.3,1.9-5.7,2.3-7.1,0.8c-5.5-6.1-10.9-14.2-16.1-23.9c-5.3-9.7-8.6-18.2-10.1-25.1c-1.2-6.1-1.9-11.5-1.9-15.7
	c0-2.2,0.3-4.8,0.7-7.6c0.5-3,0.7-5,0.7-6.6c0.7-1.9,7-7.4,18.7-16.1c11.7-8.6,20.3-14.3,26.1-16.9c1.2-0.5,2.5-0.8,3.5-0.8
	c2.3,0,4.8,1.9,7.4,5.9C557.4,389.1,563.6,403.9,567.2,416.6z M546.1,448c2.7-8.3,3.3-16.2,1.4-23.6c-3.4-15.3-9.4-29.5-17.7-42.4
	c-0.8-1.1-2.2-1.2-3.8-0.3c-5.3,3.8-9,7.1-10.9,9.7c-2.6,3.3-3.8,7.5-3.8,12.6c0,8.6,2.6,19.2,7.6,31.8c4.8,11.9,10,21.3,15.7,28.3
	C539.4,462.4,543.4,457.1,546.1,448z"/>
<path fill="#AB1500" d="M647.6,380c-2.7,1.5-6.6,3.7-11.5,7c-1.6,1.9-5.2,5-10.4,9.8c-2.3-6.8-5-11.6-8.2-14.6
	c-3-3-6.4-3.4-10.2-1.6c-4.5,2.2-6.3,11.1-5.9,26.6c-0.3,7.1,0.1,17.7,1.1,31.8c3,18.6,8.7,27.7,17.5,27.7c5.3,0,11.7-4.8,19.2-14.6
	l6.3,5.9c-12.3,13.5-23.6,20.2-34.1,20.2c-21.7,0-32.6-17.9-32.6-53.8c0-13.9,0.7-24.2,1.9-30.7c4.1-4.8,10.8-10,19.9-15.7
	c10.4-6.1,18.7-9.4,24.7-9.4C633.4,368.8,640.7,372.5,647.6,380z"/>
<path fill="#AB1500" d="M742.5,475.1c-6-0.5-10.8-0.8-14.2-0.8c-2.7,0-6.6,0.3-11.2,0.8c-1.9-4.9-5-13.8-9.7-26.8
	c-9.7,19.8-20.1,29.5-31.5,29.3c-5.7-0.1-10.8-2-15.3-5.9c-5-4.2-7.6-9.8-7.6-17.1c0-19.7,11.7-39.3,35.1-59
	c-0.8-2.7-2.5-7.1-4.6-12.8c-1.1-2.3-3.3-5.9-7-10.8c6,0.7,11.1,1.1,15.3,1.1c3,0,7.1-0.4,12.6-1.1c0.7,3,2.2,7.5,4.5,13.9
	l27.7,76.6C737.7,466.5,739.8,470.6,742.5,475.1z M702.6,436.2l-12-33.8c-12.3,14.9-18.4,27.4-18.4,37.7c0,5.7,1.2,10.4,3.7,14.1
	c2.5,3.7,5.7,5.7,9.7,5.7c5.5-0.1,9.8-3.5,13.5-10.1C701.3,445.1,702.5,440.6,702.6,436.2z"/>
<path fill="#AB1500" d="M823.4,475.1c-8.1-0.4-20.2-0.8-36.7-1.4c-10,0-22.5,0.5-37.5,1.4c2.7-6.6,4.1-12.6,4.1-18.2
	c0.1-6.6,0.4-17.3,0.5-32.1c0.1-15.6,0.1-26.1-0.3-31.7c-0.5-9.1-2-16.1-4.6-21.2l37.3,1.1c-16.2,0-27.7-0.3-34.3-0.8
	c5.7-0.1,28.9-0.3,69.6-0.3c0.7,12.4-0.1,21.3-2.5,26.9c-3.4,7.6-10.6,13-21.3,16c18.2,8.3,27.2,22,27.2,41.1
	C824.8,460.1,824.4,466.4,823.4,475.1z M798.4,380h-22.5c-0.4,4.5-0.7,8.9-0.8,13.5c0,1.9,0,6,0,12.6v5.5c9.4,0.5,16-2.2,19.5-8.3
	C797.3,398.7,798.6,390.9,798.4,380z M799.3,467.5c1.2-5.3,1.9-10.6,1.9-16c0-20.9-8.6-31.8-26.1-32.9l0.5,31.3
	c0.1,6.1,0.7,12.3,1.6,17.7C785.6,466.7,792.8,466.7,799.3,467.5z"/>
<path fill="#AB1500" d="M1026.4,377.8c-2.3,0.7-5.7,3.3-9.8,7.4c-1.9,1.9-4.1,5.2-6.3,9.7c-4.8-8.3-9.3-13.4-13.5-14.9
	c-10.9-3.4-17.3,2.2-18.8,17.1c-0.4,3.3-0.5,6.7-0.5,10.1c0.1,3.1,0.8,12.3,1.9,27.2l2.2-1.4c1.9-4.1,3.7-8.1,5.9-12.1
	c3.3-5.9,7-9.4,10.9-10.4c5.9-1.5,9.6-2.3,10.9-2.7c3.8-1.5,8.2-3.5,12.8-6.3c-0.1,0.4,0.1,1,0.8,1.9c-2.7,8.3-5.7,14.7-8.7,18.7
	c-1.9,2.3-5.7,4.4-10.9,5.9c-6.4,1.6-14.2,5.5-23.3,11.2c3.4,18.6,9.4,27.7,17.5,27.7c5.3,0,11.7-4.8,19.2-14.6l6.3,5.9
	c-12.3,13.5-23.6,20.2-34.1,20.2c-10.9,0-19.5-6.8-25.5-20.2c-4.5-10-7-21.3-7.1-33.4c-0.1-11.9,0.5-21.4,1.9-28.8
	c6.1-5.3,12.4-10.8,18.7-16.1c9.7-7.1,18.4-10.8,26.1-10.8C1013,368.8,1020.8,371.7,1026.4,377.8z"/>
<path fill="#AB1500" d="M857.1,372.5c8.9,1.4,18,1.8,26.9,0.1c9.4,32.2,20.5,64,33,95.1c2.5,0,7.2,0.1,9.7,0.1
	c1.1-13.5-0.7-29.1-13.4-36.7c2-2.2,4.4-4.5,6.4-6.8c15,1.5,26.5,14.9,29.9,29.1v12.4c-1.8,6-8.3,8.6-14.1,8.9
	c-13.9,0.3-28,0.1-41.9-0.4c-5.3-26.5-15-51.9-25.1-76.7c-9,24.4-15.7,51.7-8.7,77.7c-10.6-1.4-21.4-1.8-32.1,0.1
	c7.1-10.4,7.4-23.3,10.9-34.9c4.1-18.7,14.3-35.8,27.7-49.4C863.4,384.5,860.5,378.4,857.1,372.5L857.1,372.5z"/>
<path d="M93.1,490c-0.4,1.2-0.7,2.5-0.7,3.7l-0.3,7.6l0.3,8.1c0,1.6,0.4,3.3,1,4.6c-1.6-0.1-2.9-0.3-3.7-0.3s-1.9,0.1-3.4,0.3
	c0.7-2,1-3.5,1-4.6l0.3-8.1l-0.3-7.6c0-0.5-0.1-1.1-0.3-1.9c-2.5,0.1-3.3,0.3-2.6,0.3s-0.3-0.1-2.9-0.3c-0.1,0.7-0.3,1.4-0.4,1.9
	l-0.3,7.6l0.3,8.1c0,1.6,0.4,3.3,1,4.6c-1.6-0.1-2.9-0.3-3.7-0.3s-1.9,0.1-3.4,0.3c0.7-2,1-3.5,1-4.6l0.3-8.1l-0.3-7.6
	c0-0.8-0.3-2-0.7-3.7c3.7,0.3,6.7,0.4,8.7,0.4c1.2,0,2.9,0,4.8-0.1C90.8,490,92.2,490,93.1,490z"/>
<path d="M112.5,502.1c0.1,4.1-0.4,7.4-1.8,9.7c-1.1,1.9-2.3,3-3.7,3c-1,0-2.3-0.3-4.2-0.8c0.3,4.6,0.1,8.7-0.5,12.3
	c-0.5,2.7-2.6,6.3-6.4,10.6l-1-0.8c1.9-2.7,2.7-6,3-10c0.1-3,0.1-6.1-0.3-9.7c-0.5-6.1-0.8-10.6-0.8-13.2c0-3.3,0.3-5.6,0.8-7
	c1.1-2.9,3.5-4.9,7.2-6.1c2.7-0.8,4.5-1.1,5.9-0.8c0.4,0.1,0.7,0.4,1,1L112.5,502.1z M109.2,501.3c0.1-2.9,0-6-0.4-9.6
	c-1,0.1-1.9,0.3-2.6,0.5c-1.9,0.7-3,1.8-3.5,3.3c-0.5,1.4-0.7,3.3-0.7,5.9c0,2.7,0.3,5.7,0.7,8.9c0.5,0.4,1,0.7,1.5,0.7
	c0.7,0,1.5-0.3,2.3-0.8c0.7-0.5,1.2-1.6,1.8-3.3C108.8,505.1,109.1,503.2,109.2,501.3z"/>
<path d="M135.6,514c-1.4-0.1-2.5-0.3-3.3-0.3c-0.7,0-1.5,0.1-2.6,0.3c-0.4-1.1-1.2-3.3-2.2-6.3c-2.2,4.5-4.6,7-7.4,6.8
	c-1.4,0-2.5-0.5-3.5-1.4c-1.2-1-1.8-2.3-1.8-4c0-4.5,2.7-9.1,8.2-13.6c-0.3-0.7-0.7-1.6-1.1-3c-0.3-0.5-0.7-1.4-1.6-2.5
	c1.4,0.1,2.6,0.3,3.5,0.3c0.7,0,1.6-0.1,3-0.3c0.1,0.7,0.5,1.8,1,3.3l6.4,17.9C134.3,512,134.9,512.9,135.6,514z M126.3,504.9
	l-2.9-7.9c-2.9,3.4-4.4,6.4-4.4,8.7c0,1.4,0.3,2.5,0.8,3.3s1.4,1.4,2.2,1.4c1.2,0,2.3-0.8,3.1-2.3
	C125.9,506.9,126.3,506,126.3,504.9z"/>
<path d="M154.4,514c-1.9-0.1-4.6-0.3-8.5-0.4c-2.3,0-5.3,0.1-8.7,0.4c0.7-1.5,1-3,1-4.2c0-1.5,0.1-4.1,0.1-7.5c0-3.5,0-6-0.1-7.4
	c-0.1-2-0.5-3.8-1.1-4.9l8.6,0.3c-3.8,0-6.4-0.1-8.1-0.3c1.4,0,6.8-0.1,16.2-0.1c0.1,3,0,4.9-0.7,6.3c-0.8,1.9-2.5,3.1-4.9,3.7
	c4.2,1.9,6.3,5,6.3,9.7C154.8,510.5,154.7,512,154.4,514z M148.5,491.8h-5.3c-0.1,1-0.1,2-0.3,3.1c0,0.4,0,1.4,0,3v1.2
	c2.2,0.1,3.7-0.5,4.5-1.9C148.4,496.1,148.5,494.2,148.5,491.8z M148.8,512.1c0.3-1.2,0.5-2.5,0.5-3.7c0-4.8-1.9-7.4-6-7.6l0.1,7.2
	c0,1.5,0.1,2.9,0.4,4.2C145.7,512,147.3,512,148.8,512.1z"/>
<path d="M174.9,500.4c0.1,0.7,0.3,1.5,0.3,2.3c0,2-0.5,3.7-1.4,4.9c-1.5,1.9-4.4,4.5-8.3,7.1c-0.7,0.5-1.4,0.5-1.6,0.3
	c-1.2-1.5-2.6-3.3-3.8-5.6c-1.2-2.3-1.9-4.2-2.3-5.9c-0.3-1.5-0.5-2.7-0.5-3.7c0-0.5,0-1.1,0.1-1.9c0.1-0.7,0.1-1.2,0.1-1.5
	c0.1-0.5,1.6-1.8,4.4-3.7c2.7-1.9,4.8-3.3,6-4c0.3-0.1,0.7-0.3,0.8-0.3c0.5,0,1.1,0.5,1.8,1.4C172.7,493.8,174,497.4,174.9,500.4z
	 M170,507.7c0.7-1.9,0.7-3.8,0.4-5.6c-0.8-3.5-2.2-7-4.2-9.8c-0.3-0.3-0.5-0.3-0.8-0.1c-1.2,0.8-2,1.6-2.6,2.2
	c-0.7,0.7-0.8,1.8-0.8,3c0,1.9,0.7,4.5,1.9,7.4c1.1,2.7,2.3,4.9,3.7,6.6C168.4,511,169.3,509.8,170,507.7z"/>
<path d="M193.7,491.8c-0.7,0.4-1.5,0.8-2.7,1.6c-0.4,0.4-1.2,1.2-2.5,2.3c-0.5-1.6-1.2-2.7-1.9-3.3c-0.7-0.7-1.5-0.8-2.3-0.4
	c-1,0.5-1.5,2.6-1.4,6.1c0,1.6,0,4.2,0.3,7.4c0.7,4.4,2,6.4,4.1,6.4c1.2,0,2.7-1.1,4.5-3.3l1.5,1.4c-2.9,3.3-5.6,4.6-7.9,4.6
	c-5,0-7.6-4.2-7.6-12.6c0-3.3,0.1-5.7,0.5-7.1c1-1.1,2.5-2.3,4.6-3.7c2.5-1.5,4.4-2.2,5.9-2.2C190.3,489.2,192.1,490,193.7,491.8z"
	/>
<path d="M199.6,490c1.4,0.1,2.6,0.3,3.5,0.3c0.7,0,1.6-0.1,2.7-0.3c0.1,1.1,0.4,2.2,0.7,3.3c1.8,5.2,3.8,11.2,6.3,17.9
	c0.3,0.8,0.7,1.9,1.2,2.9c-1.4-0.3-2.5-0.4-3.3-0.4c-0.8,0-1.6,0.1-2.7,0.4c-0.1-0.4-0.3-1.1-0.5-2.3c-1.9-6.7-3.8-12-5.6-16
	c-1.1,2.2-1.9,5.3-2.6,9.3c-0.4,2-0.4,4.5-0.1,7.1c0,0.7,0.3,1.2,0.7,1.9c-1.6-0.1-3-0.3-3.8-0.3c-0.8,0-1.9,0.1-3.3,0.3
	c0.3-0.4,0.5-1.1,1-2.2c0.1-1.2,0.7-3.7,1.8-7.5c1.1-3.7,3.3-7.1,6.1-9.8C200.9,492.5,200.1,491,199.6,490z"/>
<path d="M235.5,514c-1.4-0.1-2.5-0.3-3.3-0.3c-0.7,0-1.5,0.1-2.6,0.3c-0.4-1.1-1.2-3.3-2.2-6.3c-2.2,4.5-4.6,7-7.4,6.8
	c-1.4,0-2.5-0.5-3.5-1.4c-1.2-1-1.8-2.3-1.8-4c0-4.5,2.7-9.1,8.2-13.6c-0.3-0.7-0.7-1.6-1.1-3c-0.3-0.5-0.7-1.4-1.6-2.5
	c1.4,0.1,2.6,0.3,3.5,0.3c0.7,0,1.6-0.1,3-0.3c0.1,0.7,0.5,1.8,1,3.3l6.4,17.9C234.4,512,234.8,512.9,235.5,514z M226,504.9
	l-2.9-7.9c-2.9,3.4-4.4,6.4-4.4,8.7c0,1.4,0.3,2.5,0.8,3.3c0.7,0.8,1.4,1.4,2.2,1.4c1.2,0,2.3-0.8,3.1-2.3
	C225.9,506.9,226,506,226,504.9z"/>
<path d="M254.3,514c-1.9-0.1-4.6-0.3-8.5-0.4c-2.3,0-5.3,0.1-8.7,0.4c0.7-1.5,1-3,1-4.2c0-1.5,0.1-4.1,0.1-7.5c0-3.5,0-6-0.1-7.4
	c-0.1-2-0.5-3.8-1.1-4.9l8.6,0.3c-3.8,0-6.4-0.1-8.1-0.3c1.4,0,6.8-0.1,16.2-0.1c0.1,3,0,4.9-0.7,6.3c-0.8,1.9-2.5,3.1-4.9,3.7
	c4.2,1.9,6.3,5,6.3,9.7C254.6,510.5,254.4,512,254.3,514z M248.4,491.8h-5.3c-0.1,1-0.1,2-0.3,3.1c0,0.4,0,1.4,0,3v1.2
	c2.2,0.1,3.7-0.5,4.5-1.9C248.2,496.1,248.6,494.2,248.4,491.8z M248.7,512.1c0.3-1.2,0.5-2.5,0.5-3.7c0-4.8-1.9-7.4-6-7.6l0.1,7.2
	c0,1.5,0.1,2.9,0.4,4.2C245.4,512,247.2,512,248.7,512.1z"/>
<path d="M276,514c-1.5-0.1-2.6-0.3-3.4-0.3s-1.9,0.1-3.7,0.3c0.7-1.4,0.8-3,1-4.6v-5.3c-0.5-0.5-1.6-1.4-3.4-2.6
	c-1.8-1.1-3-1.9-3.4-2.5v2.3v8.1c0,1.1,0.4,2.7,1,4.6c-1.5-0.1-2.6-0.3-3.4-0.3c-0.8,0-1.9,0.1-3.7,0.3c0.7-1.4,0.8-3,0.8-4.6
	l0.3-8.1l-0.3-7.6c0-0.4-0.3-1.6-0.7-3.5c1.2,0.3,2.3,0.4,3.3,0.4s1.9-0.1,3.3-0.4c-0.5,2.2-0.7,3.4-0.7,3.5v2.5l7.1,5
	c0,0-0.1-2.6-0.3-7.5c0-0.3-0.3-1.4-0.7-3.5c1.2,0.3,2.3,0.4,3.3,0.4s2-0.1,3.3-0.4c-0.3,1-0.5,2-0.7,3.5l-0.3,7.6l0.3,8.1
	C275,510.6,275.3,512.1,276,514z"/>
<path d="M296.5,500.4c0.1,0.7,0.3,1.5,0.3,2.3c0,2-0.5,3.7-1.4,4.9c-1.5,1.9-4.4,4.5-8.3,7.1c-0.7,0.5-1.4,0.5-1.6,0.3
	c-1.2-1.5-2.6-3.3-3.8-5.6c-1.2-2.2-1.9-4.2-2.3-5.9c-0.3-1.5-0.5-2.7-0.5-3.7c0-0.5,0-1.1,0.1-1.9c0.1-0.7,0.1-1.2,0.1-1.5
	c0.1-0.5,1.6-1.8,4.4-3.7c2.7-1.9,4.8-3.3,6-4c0.3-0.1,0.7-0.3,0.8-0.3c0.5,0,1.1,0.5,1.8,1.4C294.3,493.8,295.5,497.4,296.5,500.4z
	 M291.6,507.7c0.7-1.9,0.7-3.8,0.4-5.6c-0.8-3.5-2.2-7-4.2-9.8c-0.3-0.3-0.5-0.3-0.8-0.1c-1.2,0.8-2,1.6-2.6,2.2
	c-0.7,0.7-0.8,1.8-0.8,3c0,1.9,0.7,4.5,1.9,7.4c1.1,2.7,2.3,4.9,3.7,6.6C289.9,511,290.9,509.8,291.6,507.7z"/>
<path d="M339,537.1c-1.5-0.1-2.9-0.3-4-0.3c-0.8,0-2,0.1-3.4,0.3c0.1-1,0-2.2-0.4-3.4c-2-7-4.4-13.6-6.6-20.3
	c-1.2,5.3-4.2,13.2-8.6,23.6H313c4.8-9.8,8.3-18.7,10.8-26.6c-1.8-5.6-3.8-10.8-6.1-15.7c-0.8-1.9-1.9-3.3-2.9-4.5
	c1.6,0.3,2.9,0.4,3.8,0.4c0.8,0,2-0.1,4-0.4c0.1,0.5,0.5,1.9,1.1,3.7l3.3,10.1c0.7-2,1.9-5.2,3.3-9.1c0.8-2,1.9-3.5,2.9-4.5
	c1-0.8,2.2-1.2,3.8-1.2c1.5,0,2.9,0.5,4,1.5c-0.5,0.5-1.1,1.2-1.9,2.3c-0.4,0.7-0.8,1.6-1.4,3c-0.7-1.4-1.6-1.9-2.6-1.9
	c-1.5,0-3.1,2.2-4.6,6.4c-0.7,1.6-1.4,3.5-2.3,6.1c2,6.7,5,15.3,8.9,25.8C336.9,533.8,337.7,535.3,339,537.1z"/>
<path d="M357.2,502.1c0.1,4.1-0.4,7.4-1.8,9.7c-1.1,1.9-2.3,3-3.7,3c-1,0-2.3-0.3-4.2-0.8c0.3,4.6,0.1,8.7-0.5,12.3
	c-0.5,2.7-2.6,6.3-6.4,10.6l-1-0.8c1.9-2.7,2.7-6,3-10c0.1-3,0.1-6.1-0.3-9.7c-0.5-6.1-0.8-10.6-0.8-13.2c0-3.3,0.3-5.6,0.8-7
	c1.1-2.9,3.5-4.9,7.2-6.1c2.7-0.8,4.5-1.1,5.9-0.8c0.4,0.1,0.7,0.4,1,1L357.2,502.1z M353.8,501.3c0.1-2.9,0-6-0.4-9.6
	c-1,0.1-1.9,0.3-2.6,0.5c-1.9,0.7-3,1.8-3.5,3.3c-0.5,1.4-0.7,3.3-0.7,5.9c0,2.7,0.3,5.7,0.7,8.9c0.5,0.4,1,0.7,1.5,0.7
	c0.7,0,1.5-0.3,2.3-0.8c0.7-0.5,1.2-1.6,1.8-3.3C353.5,505.1,353.8,503.2,353.8,501.3z"/>
<path d="M362,514c0.7-2,1-3.5,1-4.6l0.3-8.1l-0.3-7.6c0-1.2-0.3-2.5-0.7-3.7c0.7,0.1,1.6,0.3,3.3,0.4c0.8,0,1.9-0.1,3-0.4
	c0,0.3-0.3,1.5-0.5,3.7l-0.3,7.6l0.3,8.1c0,1.6,0.4,3.3,1,4.6c-1.6-0.1-2.9-0.3-3.7-0.3C364.7,513.7,363.5,513.9,362,514z"/>
<path d="M379.6,512.4l4.8-0.3l0.3-10.9l-0.3-7.6c0-1.4-0.1-2.6-0.5-3.7c0.7,0.1,1.6,0.3,3.3,0.4c1,0,1.9-0.1,3-0.4
	c-0.3,1-0.4,2.2-0.5,3.7l-0.3,7.6v10.9l5.7,0.3c0.1-0.7,0.3-1.6,0.3-3.1l0.3-8.1l-0.3-7.6c0-1.4-0.3-2.6-0.7-3.7
	c0.7,0.1,1.6,0.3,3.3,0.4c1,0,1.9-0.1,3.1-0.4c-0.3,1-0.5,2.2-0.5,3.7l-0.3,7.6l0.3,8.1c0,1.8,0.4,3.3,1,4.6c-5-0.3-10-0.4-14.9-0.4
	c-2.5,0-5.3,0.1-8.3,0.3c-3.4,0.1-5.3,0.3-5.5,0.3c0.7-1.9,0.8-3.5,1-4.6l0.3-8.1l-0.3-7.6c0-1.4-0.3-2.6-0.7-3.7
	c0.7,0.1,1.6,0.3,3.3,0.4c0.8,0,1.9-0.1,3-0.4c-0.3,1-0.4,2.2-0.5,3.7l-0.3,7.6l0.3,8.1C379.3,510.1,379.4,511.2,379.6,512.4z"/>
<path d="M425.6,490c-0.7,1.9-1.6,4.4-3,6.8c-1-1.5-1.9-3.3-2.9-5c-0.5,0-2.6,0-6.1,0v1.9l0.1,14.6c0,1.8,0.3,3.7,0.7,5.9
	c-1-0.1-2-0.3-3.3-0.3c-0.8,0-1.9,0.1-3.3,0.3c0.3-1,0.5-3,0.8-5.9l0.3-14.6c0-0.5,0-1.1,0-1.9h-3.1c-1.2,0-2.2,0.4-3.1,1.2v-3.3
	c1.5,0.1,3.4,0.1,6.1,0.1c0-1.9-0.1-5-0.3-9c0-1.9-0.4-3.4-1.1-4.8c0.7,0.1,1.9,0.3,3.7,0.5c0.8,0,2-0.1,3.7-0.5
	c-0.7,1.4-1,3-1.1,4.8c0,2.7-0.1,5.7-0.1,9C416.3,490,420.4,490,425.6,490z M426.5,514c-1.6-0.1-2.6-0.3-3.1-0.3
	c-0.8,0-1.9,0.1-2.7,0.3c0.1-0.4,0.3-1,0.1-1.5c-0.1-1.8-0.7-3.8-1.6-6.1c-1.1-2.7-2.2-4.5-3.5-5.7c-0.5-0.5-1.2-1.1-1.9-1.8l5-3.1
	C422.4,500.4,425,506.5,426.5,514z"/>
<path d="M449.1,514c-1.4-0.1-2.5-0.3-3.3-0.3c-0.7,0-1.5,0.1-2.6,0.3c-0.4-1.1-1.2-3.3-2.2-6.3c-2.2,4.5-4.6,7-7.4,6.8
	c-1.4,0-2.5-0.5-3.5-1.4c-1.2-1-1.8-2.3-1.8-4c0-4.5,2.7-9.1,8.2-13.6c-0.3-0.7-0.7-1.6-1.1-3c-0.3-0.5-0.7-1.4-1.6-2.5
	c1.4,0.1,2.6,0.3,3.5,0.3c0.7,0,1.6-0.1,3-0.3c0.1,0.7,0.5,1.8,1,3.3l6.4,17.9C448,512,448.5,512.9,449.1,514z M439.8,504.9
	l-2.9-7.9c-2.9,3.4-4.4,6.4-4.4,8.7c0,1.4,0.3,2.5,0.8,3.3c0.5,0.8,1.4,1.4,2.2,1.4c1.2,0,2.3-0.8,3.1-2.3
	C439.5,506.9,439.8,506,439.8,504.9z"/>
<path d="M469.7,514c-1.5-0.1-2.6-0.3-3.4-0.3s-1.9,0.1-3.7,0.3c0.7-1.4,0.8-3,1-4.6v-5.3c-0.5-0.5-1.6-1.4-3.4-2.6
	c-1.8-1.1-3-1.9-3.4-2.5v2.3v8.1c0,1.1,0.4,2.7,1,4.6c-1.5-0.1-2.6-0.3-3.4-0.3c-0.8,0-1.9,0.1-3.7,0.3c0.7-1.4,0.8-3,0.8-4.6
	l0.3-8.1l-0.3-7.6c0-0.4-0.3-1.6-0.7-3.5c1.2,0.3,2.3,0.4,3.3,0.4c1,0,1.9-0.1,3.3-0.4c-0.5,2.2-0.7,3.4-0.7,3.5v2.5l7.1,5
	c0,0-0.1-2.6-0.3-7.5c0-0.3-0.3-1.4-0.7-3.5c1.2,0.3,2.3,0.4,3.3,0.4c1,0,2-0.1,3.3-0.4c-0.3,1-0.5,2-0.7,3.5l-0.3,7.6l0.3,8.1
	C468.8,510.6,469.1,512.1,469.7,514z"/>
<path d="M488.8,491.8c-0.7,0.4-1.5,0.8-2.7,1.6c-0.4,0.4-1.2,1.2-2.5,2.3c-0.5-1.6-1.2-2.7-1.9-3.3c-0.7-0.7-1.5-0.8-2.3-0.4
	c-1,0.5-1.5,2.6-1.4,6.1c0,1.6,0,4.2,0.3,7.4c0.7,4.4,2,6.4,4.1,6.4c1.2,0,2.7-1.1,4.5-3.3l1.5,1.4c-2.9,3.3-5.6,4.6-7.9,4.6
	c-5,0-7.6-4.2-7.6-12.6c0-3.3,0.1-5.7,0.5-7.1c1-1.1,2.5-2.3,4.6-3.7c2.5-1.5,4.4-2.2,5.9-2.2C485.4,489.2,487.1,490,488.8,491.8z"
	/>
<path d="M504.1,514c-1.5-0.3-2.6-0.4-3.4-0.4c-0.8,0-2,0.1-3.5,0.4c0.7-1.6,1-3.5,1.1-5.9v-14.6l-0.3-1.9h-4v10.8l-5,2.5
	c0.3-3.3,0.4-5.7,0.4-7.5c0-1.9-0.1-4.4-0.4-7.5h23.6c-0.7,2.2-1.8,4.5-3,6.8c-0.7-0.8-1.6-2.5-3-4.9h-3.3l-0.3,1.9v14.5
	c0,1.1,0.1,2.2,0.4,3.3C503.6,512.4,503.9,513.2,504.1,514z"/>
<path d="M530.4,514c-1.9-0.1-4.6-0.3-8.5-0.4c-2.3,0-5.3,0.1-8.7,0.4c0.7-1.5,1-3,1-4.2c0-1.5,0.1-4.1,0.1-7.5c0-3.5,0-6-0.1-7.4
	c-0.1-2-0.5-3.8-1.1-4.9l8.6,0.3c-3.8,0-6.4-0.1-8.1-0.3c1.4,0,6.8-0.1,16.2-0.1c0.1,3,0,4.9-0.7,6.3c-0.8,1.9-2.5,3.1-4.9,3.7
	c4.2,1.9,6.3,5,6.3,9.7C530.8,510.5,530.7,512,530.4,514z M524.7,491.8h-5.3c-0.1,1-0.1,2-0.3,3.1c0,0.4,0,1.4,0,3v1.2
	c2.2,0.1,3.7-0.5,4.5-1.9C524.4,496.1,524.7,494.2,524.7,491.8z M524.9,512.1c0.3-1.2,0.5-2.5,0.5-3.7c0-4.8-1.9-7.4-6-7.6l0.1,7.2
	c0,1.5,0.1,2.9,0.4,4.2C521.7,512,523.3,512,524.9,512.1z"/>
<path d="M550.9,500.4c0.1,0.7,0.3,1.5,0.3,2.3c0,2-0.5,3.7-1.4,4.9c-1.5,1.9-4.4,4.5-8.3,7.1c-0.7,0.5-1.4,0.5-1.6,0.3
	c-1.2-1.5-2.6-3.3-3.8-5.6c-1.2-2.2-1.9-4.2-2.3-5.9c-0.3-1.5-0.5-2.7-0.5-3.7c0-0.5,0-1.1,0.1-1.9c0.1-0.7,0.1-1.2,0.1-1.5
	c0.1-0.5,1.6-1.8,4.4-3.7c2.7-1.9,4.8-3.3,6-4c0.3-0.1,0.7-0.3,0.8-0.3c0.5,0,1.1,0.5,1.8,1.4C548.7,493.8,550,497.4,550.9,500.4z
	 M546,507.7c0.7-1.9,0.7-3.8,0.4-5.6c-0.8-3.5-2.2-7-4.2-9.8c-0.3-0.3-0.5-0.3-0.8-0.1c-1.2,0.8-2,1.6-2.6,2.2
	c-0.7,0.7-0.8,1.8-0.8,3c0,1.9,0.7,4.5,1.9,7.4c1.1,2.7,2.3,4.9,3.7,6.6C544.5,511,545.4,509.8,546,507.7z"/>
<path d="M584.3,491.8c-0.7,0.4-1.5,0.8-2.7,1.6c-0.4,0.4-1.2,1.2-2.5,2.3c-0.5-1.6-1.2-2.7-1.9-3.3c-0.7-0.7-1.5-0.8-2.3-0.4
	c-1,0.5-1.5,2.6-1.4,6.1c0,1.6,0,4.2,0.3,7.4c0.7,4.4,2,6.4,4.1,6.4c1.2,0,2.7-1.1,4.5-3.3l1.5,1.4c-2.9,3.3-5.6,4.6-7.9,4.6
	c-5,0-7.6-4.2-7.6-12.6c0-3.3,0.1-5.7,0.5-7.1c1-1.1,2.5-2.3,4.6-3.7c2.5-1.5,4.4-2.2,5.9-2.2C580.9,489.2,582.5,490,584.3,491.8z"
	/>
<path d="M602.2,502.1c0.1,4.1-0.4,7.4-1.8,9.7c-1.1,1.9-2.3,3-3.7,3c-1,0-2.3-0.3-4.2-0.8c0.3,4.6,0.1,8.7-0.5,12.3
	c-0.5,2.7-2.6,6.3-6.4,10.6l-1-0.8c1.9-2.7,2.7-6,3-10c0.1-3,0.1-6.1-0.3-9.7c-0.5-6.1-0.8-10.6-0.8-13.2c0-3.3,0.3-5.6,0.8-7
	c1.1-2.9,3.5-4.9,7.2-6.1c2.7-0.8,4.5-1.1,5.9-0.8c0.4,0.1,0.7,0.4,1,1L602.2,502.1z M598.8,501.3c0.1-2.9,0-6-0.4-9.6
	c-1,0.1-1.9,0.3-2.6,0.5c-1.9,0.7-3,1.8-3.5,3.3c-0.5,1.4-0.7,3.3-0.7,5.9c0,2.7,0.3,5.7,0.7,8.9c0.5,0.4,1,0.7,1.5,0.7
	c0.7,0,1.5-0.3,2.3-0.8c0.7-0.5,1.2-1.6,1.8-3.3C598.5,505.1,598.6,503.2,598.8,501.3z"/>
<path d="M625.8,511.6c-0.4,0.7-1,1.5-1.9,2.5c-1.6,0-4.2-0.1-7.6-0.3c-2.3,0-5.6,0.1-9.7,0.3c0.7-1.6,1-3.5,1-5.9l0.3-10.1
	c0-0.5-0.1-1.6-0.3-3.1c-0.1-2-0.5-3.8-1.1-4.9c4.4,0.3,7.6,0.4,10,0.4c2,0,5-0.1,9-0.4c-0.7,2-1.8,4.4-3,6.7
	c-0.7-0.8-1.6-2.5-3-4.9c-0.7,0-1.8,0-3.3,0c-1.4,0-2.3,0-2.9,0c-0.3,1.1-0.5,2-0.5,3.1c0,0.1-0.1,1.1-0.3,3.1l0.3,10.1
	c0,0.5,0.3,1.9,0.7,4.4h6.6c0-0.1,0.1-0.4,0.1-0.7c0-1.4-0.7-3.3-1.8-5.6c-1.1-2.2-2.3-4-3.5-5c-0.5-0.5-1.2-1.1-1.9-1.8l4.9-3.1
	C622.2,501.6,624.8,506.6,625.8,511.6z"/>
<path d="M644.5,491.8c-0.7,0.4-1.5,0.8-2.7,1.6c-0.4,0.4-1.2,1.2-2.5,2.3c-0.5-1.6-1.2-2.7-1.9-3.3c-0.7-0.7-1.5-0.8-2.3-0.4
	c-1,0.5-1.5,2.6-1.4,6.1c0,1.6,0,4.2,0.3,7.4c0.7,4.4,2,6.4,4.1,6.4c1.2,0,2.7-1.1,4.5-3.3l1.5,1.4c-2.9,3.3-5.6,4.6-7.9,4.6
	c-5,0-7.6-4.2-7.6-12.6c0-3.3,0.1-5.7,0.5-7.1c1-1.1,2.5-2.3,4.6-3.7c2.5-1.5,4.4-2.2,5.9-2.2C641.2,489.2,642.9,490,644.5,491.8z"
	/>
<path d="M662.4,514c-1.4-0.3-2.5-0.4-3.3-0.4s-1.9,0.1-3.1,0.4c0.3-0.5,0.3-1,0.3-1.5c0.5-3.3,0.3-6.3-0.8-8.9
	c-0.7-1.6-2.2-2.6-4.8-2.6c0,2.2,0,4.9,0.1,8.3c0,0.5,0.1,1.5,0.3,3.1l0.3,1.5c-1.5-0.3-2.7-0.4-3.5-0.4c-0.7,0-1.8,0.1-3,0.4
	c0.5-1.5,0.7-3.1,0.7-4.5l0.3-8.1l-0.3-7.6c0-1.4-0.3-2.6-0.7-3.7c0.5,0.1,1.5,0.3,2.9,0.4c0.7,0,1.9-0.1,3.3-0.4l-0.4,3.7
	c0,1.2,0,3.1-0.1,5.7c2.3-0.1,3.8-0.7,4.5-1.8c0.7-1.1,0.8-3.3,0.8-6.3c0-0.5-0.1-1-0.3-1.4c1.2,0.3,2.2,0.4,3,0.4
	c0.7,0,1.6-0.1,2.9-0.4c-0.1,1.4-0.4,3.3-0.7,5.3c-0.4,1.9-1.2,3.1-2.3,3.8c-0.3,0.1-1.2,0.5-3,1c3.5,1.2,5.6,3.3,6,5.9
	c0.3,1.5,0.5,3.1,0.5,4.5C662.4,512.5,662.4,513.7,662.4,514z"/>
<path d="M682.4,500.4c0.1,0.7,0.3,1.5,0.3,2.3c0,2-0.5,3.7-1.4,4.9c-1.5,1.9-4.4,4.5-8.3,7.1c-0.7,0.5-1.4,0.5-1.6,0.3
	c-1.2-1.5-2.6-3.3-3.8-5.6c-1.2-2.2-1.9-4.2-2.3-5.9c-0.3-1.5-0.5-2.7-0.5-3.7c0-0.5,0-1.1,0.1-1.9c0.1-0.7,0.1-1.2,0.1-1.5
	c0.1-0.5,1.6-1.8,4.4-3.7c2.7-1.9,4.8-3.3,6-4c0.3-0.1,0.7-0.3,0.8-0.3c0.5,0,1.1,0.5,1.8,1.4C680.1,493.8,681.6,497.4,682.4,500.4z
	 M677.5,507.7c0.7-1.9,0.7-3.8,0.4-5.6c-0.8-3.5-2.2-7-4.2-9.8c-0.3-0.3-0.5-0.3-0.8-0.1c-1.2,0.8-2,1.6-2.6,2.2
	c-0.7,0.7-0.8,1.8-0.8,3c0,1.9,0.7,4.5,1.9,7.4c1.1,2.7,2.3,4.9,3.7,6.6C676,511,677,509.8,677.5,507.7z"/>
<path d="M692.3,514c-1.5-0.3-2.6-0.4-3.4-0.4s-2,0.1-3.5,0.4c0.7-1.9,1.2-3.8,1.2-5.9c0.3-7.5,0.3-12.3,0-14.6
	c-0.1-1.1-0.4-2.2-0.8-3.5c3.3,0.3,5.9,0.4,7.6,0.4c1.8,0,4.4-0.1,7.5-0.4c-0.7,2.5-1.4,4.8-2.3,6.7c-0.7-1-1.6-2.6-3-4.6
	c-1.2-0.3-2.6-0.3-4,0c0,0.3,0,0.8-0.1,1.6c-0.4,3.7-0.4,8.5-0.1,14.6c0,1.1,0.1,2.2,0.5,3.3C692,513.2,692.3,514,692.3,514z"/>
<path d="M730.9,491.8c-0.7,0.4-1.5,0.8-2.7,1.6c-0.4,0.4-1.2,1.2-2.5,2.3c-0.5-1.6-1.2-2.7-1.9-3.3c-0.7-0.7-1.5-0.8-2.3-0.4
	c-1,0.5-1.5,2.6-1.4,6.1c0,1.6,0,4.2,0.3,7.4c0.7,4.4,2,6.4,4.1,6.4c1.2,0,2.7-1.1,4.5-3.3l1.5,1.4c-2.9,3.3-5.6,4.6-7.9,4.6
	c-5,0-7.6-4.2-7.6-12.6c0-3.3,0.1-5.7,0.5-7.1c1-1.1,2.5-2.3,4.6-3.7c2.5-1.5,4.4-2.2,5.9-2.2C727.6,489.2,729.2,490,730.9,491.8z"
	/>
<path d="M746.2,514c-1.5-0.3-2.6-0.4-3.4-0.4s-2,0.1-3.5,0.4c0.7-1.6,1-3.5,1.1-5.9v-14.6l-0.3-1.9h-4v10.8l-5,2.5
	c0.3-3.3,0.4-5.7,0.4-7.5c0-1.9-0.1-4.4-0.4-7.5h23.6c-0.7,2.2-1.8,4.5-3,6.8c-0.7-0.8-1.6-2.5-3-4.9h-3.3l-0.3,1.9v14.5
	c0,1.1,0.1,2.2,0.4,3.3C745.8,512.4,746,513.2,746.2,514z"/>
<path d="M755.4,514c0.7-2,1-3.5,1-4.6l0.3-8.1l-0.3-7.6c0-1.2-0.3-2.5-0.7-3.7c0.7,0.1,1.6,0.3,3.3,0.4c0.8,0,1.9-0.1,3-0.4
	c0,0.3-0.3,1.5-0.5,3.7l-0.3,7.6l0.3,8.1c0,1.6,0.4,3.3,1,4.6c-1.6-0.1-2.9-0.3-3.7-0.3C758,513.7,757,513.9,755.4,514z"/>
<path d="M771,490c1.4,0.1,2.6,0.3,3.5,0.3c0.7,0,1.6-0.1,2.7-0.3c0.1,1.1,0.4,2.2,0.7,3.3c1.8,5.2,3.8,11.2,6.3,17.9
	c0.3,0.8,0.7,1.9,1.2,2.9c-1.4-0.3-2.5-0.4-3.3-0.4c-0.7,0-1.6,0.1-2.7,0.4c-0.1-0.4-0.3-1.1-0.5-2.3c-1.9-6.7-3.8-12-5.6-16
	c-1.1,2.2-1.9,5.3-2.6,9.3c-0.4,2-0.4,4.5-0.1,7.1c0,0.7,0.3,1.2,0.7,1.9c-1.6-0.1-3-0.3-3.8-0.3s-1.9,0.1-3.3,0.3
	c0.3-0.4,0.5-1.1,1-2.2c0.1-1.2,0.7-3.7,1.8-7.5c1.1-3.7,3.3-7.1,6.1-9.8C772.4,492.5,771.6,491,771,490z"/>
<path d="M806.8,514c-1.4-0.1-2.5-0.3-3.3-0.3c-0.7,0-1.5,0.1-2.6,0.3c-0.4-1.1-1.2-3.3-2.2-6.3c-2.2,4.5-4.6,7-7.4,6.8
	c-1.4,0-2.5-0.5-3.5-1.4c-1.2-1-1.8-2.3-1.8-4c0-4.5,2.7-9.1,8.2-13.6c-0.3-0.7-0.7-1.6-1.1-3c-0.3-0.5-0.7-1.4-1.6-2.5
	c1.4,0.1,2.6,0.3,3.5,0.3c0.7,0,1.6-0.1,3-0.3c0.1,0.7,0.5,1.8,1,3.3l6.4,17.9C805.7,512,806.2,512.9,806.8,514z M797.5,504.9
	l-2.9-7.9c-2.9,3.4-4.4,6.4-4.4,8.7c0,1.4,0.3,2.5,0.8,3.3c0.5,0.8,1.4,1.4,2.2,1.4c1.2,0,2.3-0.8,3.1-2.3
	C797.3,506.9,797.5,506,797.5,504.9z"/>
<path d="M862.3,509.4l0.3-8.1l-0.3-7.6c-0.3-1.4-0.5-2.6-0.7-3.5c1.2,0.3,2.3,0.4,3.3,0.4c0.8,0,1.9-0.1,3.3-0.4
	c-0.5,2-0.7,3.3-0.7,3.5c-0.1,4.9-0.3,7.5-0.3,7.5l7.1-5v-2.5c0-0.1-0.3-1.2-0.7-3.5c1.4,0.3,2.5,0.4,3.3,0.4c0.8,0,1.9-0.1,3.3-0.4
	c-0.4,1.9-0.7,3.1-0.7,3.5l-0.3,7.6l0.3,8.1c0,1.8,0.4,3.3,0.8,4.6c-1.6-0.1-2.9-0.3-3.7-0.3c-0.8,0-1.9,0.1-3.4,0.3
	c0.7-1.9,1-3.5,1-4.6v-8.1V499c-0.5,0.5-1.8,1.4-3.4,2.5c-1.8,1.1-3,1.9-3.4,2.6v5.3c0,1.8,0.4,3.3,1,4.6c-1.6-0.1-2.9-0.3-3.7-0.3
	c-0.8,0-1.9,0.1-3.4,0.3C861.9,512.1,862.3,510.6,862.3,509.4z"/>
<path d="M824.6,509.4l0.3-8.1l-0.3-7.6c-0.3-1.4-0.5-2.6-0.7-3.5c1.2,0.3,2.3,0.4,3.3,0.4c0.8,0,1.9-0.1,3.3-0.4
	c-0.5,2-0.7,3.3-0.7,3.5c-0.1,4.9-0.3,7.5-0.3,7.5l7.1-5v-2.5c0-0.1-0.3-1.2-0.7-3.5c1.4,0.3,2.5,0.4,3.3,0.4c0.8,0,1.9-0.1,3.3-0.4
	c-0.4,1.9-0.7,3.1-0.7,3.5l-0.3,7.6l0.3,8.1c0,1.8,0.4,3.3,0.8,4.6c-1.6-0.1-2.9-0.3-3.7-0.3c-0.8,0-1.9,0.1-3.4,0.3
	c0.7-1.9,1-3.5,1-4.6v-8.1V499c-0.5,0.5-1.8,1.4-3.4,2.5c-1.8,1.1-3,1.9-3.4,2.6v5.3c0,1.8,0.4,3.3,1,4.6c-1.6-0.1-2.9-0.3-3.7-0.3
	c-0.8,0-1.9,0.1-3.4,0.3C824.4,512.1,824.6,510.6,824.6,509.4z"/>
<path d="M899.6,491.8c-0.7,0.4-1.5,0.8-2.7,1.6c-0.4,0.4-1.2,1.2-2.5,2.3c-0.5-1.6-1.2-2.7-1.9-3.3c-0.7-0.7-1.5-0.8-2.3-0.4
	c-1,0.5-1.5,2.6-1.4,6.1c0,1.6,0,4.2,0.3,7.4c0.7,4.4,2,6.4,4.1,6.4c1.2,0,2.7-1.1,4.5-3.3l1.5,1.4c-2.9,3.3-5.6,4.6-7.9,4.6
	c-5,0-7.6-4.2-7.6-12.6c0-3.3,0.1-5.7,0.5-7.1c1-1.1,2.5-2.3,4.6-3.7c2.5-1.5,4.4-2.2,5.9-2.2C896.3,489.2,897.9,490,899.6,491.8z"
	/>
<path d="M917.5,514c-1.4-0.3-2.5-0.4-3.3-0.4c-0.7,0-1.9,0.1-3.1,0.4c0.3-0.5,0.3-1,0.3-1.5c0.5-3.3,0.3-6.3-0.8-8.9
	c-0.7-1.6-2.2-2.6-4.8-2.6c0,2.2,0,4.9,0.1,8.3c0,0.5,0.1,1.5,0.3,3.1l0.3,1.5c-1.5-0.3-2.7-0.4-3.5-0.4c-0.7,0-1.8,0.1-3,0.4
	c0.5-1.5,0.7-3.1,0.7-4.5l0.3-8.1l-0.3-7.6c0-1.4-0.3-2.6-0.7-3.7c0.5,0.1,1.5,0.3,2.9,0.4c0.7,0,1.9-0.1,3.3-0.4l-0.4,3.7
	c0,1.2,0,3.1-0.1,5.7c2.3-0.1,3.8-0.7,4.5-1.8c0.7-1.1,0.8-3.3,0.8-6.3c0-0.5-0.1-1-0.3-1.4c1.2,0.3,2.2,0.4,3,0.4
	c0.7,0,1.6-0.1,2.9-0.4c-0.1,1.4-0.4,3.3-0.7,5.3c-0.4,1.9-1.2,3.1-2.3,3.8c-0.3,0.1-1.2,0.5-3,1c3.5,1.2,5.6,3.3,6,5.9
	c0.3,1.5,0.5,3.1,0.5,4.5C917.3,512.5,917.3,513.7,917.5,514z"/>
<path d="M946.7,491.8c-0.5,0.4-1.2,1.2-2.5,2.6c-0.7,0.8-1.2,1.9-1.9,3.1c-0.8-1.4-1.8-1.9-2.7-1.9c-1.9,0.1-3.3,2.3-4.5,6.8
	c-0.7,3.3-1.4,7.1-1.9,11.6c-0.5,4.5-0.8,8.7-1.4,13.2c-0.7,5.5-1.1,8.6-1.5,9.8H927c1.8-4.4,3.1-12.1,4-23.2h-5.6
	c-0.7-6.7-2.2-13.4-4.4-20.2c-0.4-1.1-1-2.3-1.9-3.7c1,0.3,1.9,0.4,3,0.4c1.1,0,2-0.1,3.3-0.4c0.1,0.7,0.7,2.3,1.4,5.3
	c0.7,2.2,1.6,7.9,3.1,17.2h0.8c0.3-2,0.8-5.9,1.8-10.9c1.4-7.9,4.1-11.9,8.1-11.9c1.5,0,2.7,0.3,3.7,0.7
	C945,490.4,945.6,491,946.7,491.8z"/>
<path d="M962.2,491.8c-0.7,0.4-1.5,0.8-2.7,1.6c-0.4,0.4-1.2,1.2-2.5,2.3c-0.5-1.6-1.2-2.7-1.9-3.3c-0.7-0.7-1.5-0.8-2.3-0.4
	c-1,0.5-1.5,2.6-1.4,6.1c0,1.6,0,4.2,0.3,7.4c0.7,4.4,2,6.4,4.1,6.4c1.2,0,2.7-1.1,4.5-3.3l1.5,1.4c-2.9,3.3-5.6,4.6-7.9,4.6
	c-5,0-7.6-4.2-7.6-12.6c0-3.3,0.1-5.7,0.5-7.1c1-1.1,2.5-2.3,4.6-3.7c2.5-1.5,4.4-2.2,5.9-2.2C958.8,489.2,960.6,490,962.2,491.8z"
	/>
<path d="M977.5,514c-1.5-0.3-2.6-0.4-3.4-0.4s-2,0.1-3.5,0.4c0.7-1.6,1-3.5,1.1-5.9v-14.6l-0.3-1.9h-4v10.8l-5,2.5
	c0.3-3.3,0.4-5.7,0.4-7.5c0-1.9-0.1-4.4-0.4-7.5H986c-0.7,2.2-1.8,4.5-3,6.8c-0.7-0.8-1.6-2.5-3-4.9h-3.3l-0.3,1.9v14.5
	c0,1.1,0.1,2.2,0.4,3.3C977.1,512.4,977.2,513.2,977.5,514z"/>
<path d="M1003.8,514c-1.9-0.1-4.6-0.3-8.5-0.4c-2.3,0-5.3,0.1-8.7,0.4c0.7-1.5,1-3,1-4.2c0-1.5,0.1-4.1,0.1-7.5c0-3.5,0-6-0.1-7.4
	c-0.1-2-0.5-3.8-1.1-4.9l8.6,0.3c-3.8,0-6.4-0.1-8.1-0.3c1.4,0,6.8-0.1,16.2-0.1c0.1,3,0,4.9-0.7,6.3c-0.8,1.9-2.5,3.1-4.9,3.7
	c4.2,1.9,6.3,5,6.3,9.7C1004.3,510.5,1004.1,512,1003.8,514z M998.1,491.8h-5.3c-0.1,1-0.1,2-0.3,3.1c0,0.4,0,1.4,0,3v1.2
	c2.2,0.1,3.7-0.5,4.5-1.9C997.8,496.1,998.1,494.2,998.1,491.8z M998.2,512.1c0.3-1.2,0.5-2.5,0.5-3.7c0-4.8-1.9-7.4-6-7.6l0.1,7.2
	c0,1.5,0.1,2.9,0.4,4.2C995,512,996.7,512,998.2,512.1z"/>
<path d="M1028,514c-1.4-0.1-2.5-0.3-3.3-0.3c-0.7,0-1.5,0.1-2.6,0.3c-0.4-1.1-1.2-3.3-2.2-6.3c-2.2,4.5-4.6,7-7.4,6.8
	c-1.4,0-2.5-0.5-3.5-1.4c-1.2-1-1.8-2.3-1.8-4c0-4.5,2.7-9.1,8.2-13.6c-0.3-0.7-0.7-1.6-1.1-3c-0.3-0.5-0.7-1.4-1.6-2.5
	c1.4,0.1,2.6,0.3,3.5,0.3c0.7,0,1.6-0.1,3-0.3c0.1,0.7,0.5,1.8,1,3.3l6.4,17.9C1026.9,512,1027.3,512.9,1028,514z M1018.7,504.9
	l-2.9-7.9c-2.9,3.4-4.4,6.4-4.4,8.7c0,1.4,0.3,2.5,0.8,3.3c0.5,0.8,1.4,1.4,2.2,1.4c1.2,0,2.3-0.8,3.1-2.3
	C1018.3,506.9,1018.6,506,1018.7,504.9z"/>
</svg>
