<?xml version="1.0" encoding="utf-8"?>
<!-- Generator: Adobe Illustrator 17.1.0, SVG Export Plug-In . SVG Version: 6.00 Build 0)  -->
<!DOCTYPE svg PUBLIC "-//W3C//DTD SVG 1.1//EN" "http://www.w3.org/Graphics/SVG/1.1/DTD/svg11.dtd">
<svg version="1.1" id="Layer_1" xmlns="http://www.w3.org/2000/svg" xmlns:xlink="http://www.w3.org/1999/xlink" x="0px" y="0px"
	 viewBox="0 0 499.2 162.8" enable-background="new 0 0 499.2 162.8" xml:space="preserve">
<path fill="#AA1E23" d="M99.9,0c1-0.1,1.9,0.3,2.8,0.1c1.1-0.2,2.2,0.1,3.2,0.1c0.2,5.5,0,11,0.1,16.5c0.1,11.8,0,23.6,0,35.4
	c0,1,0.1,1.9,0.2,2.9c0.1,0.9-0.2,1.7-0.2,2.6c0,1.1,0.4,2.1,0.5,3.2c0.1,0.7-0.2,1.3-0.3,2c0.1,0.7,0.5,1.3,0.4,2
	c-0.1,1.1-0.5,2.1-0.4,3.2c0.2,1.5,0.3,3,0.1,4.5c-0.3,1.4-0.2,2.9-0.2,4.3c0,4.8,0,9.7,0,14.5c0,1.3-0.1,2.6,0.1,3.9
	c0.1,1-0.2,2-0.1,3c0.1,11.2,0.1,22.4,0.1,33.6c-1.8,0-3.7-0.1-5.5,0c-2,0.1-3.9-0.3-5.9-0.1c-0.9,0.1-1.7,0.1-2.6,0.1
	c-2.2-0.2-4.4-0.1-6.7-0.1c-15.9,0-31.7,0-47.6,0c-1.8,0-3.6-0.2-5.4-0.1c-2.4-0.2-4.7,0-7.1-0.1c-2.2-0.1-4.5,0-6.7-0.1
	c-1.9-0.1-3.8,0.1-5.7,0.1c-2.7,0.1-5.4,0-8.1,0.1c-1.3,0.1-2.6,0.1-4,0.1c-0.1-2.2,0.1-4.5-0.1-6.7c-0.4,0-0.7,0.1-1.1,0.2
	c0.1-0.2,0.1-0.4,0.2-0.6c0.3,0,0.6,0,0.9,0c0-0.7-0.2-1.5-0.6-2.1c0.2,0,0.4,0,0.7,0.1c0-0.6-0.1-1.2-0.5-1.6
	c0.3-0.5,0.5-0.9,0.4-1.5c-0.1-3.8-0.1-7.6,0-11.4C1,103.6,1.1,99,1,94.5c0-12.9,0-25.8,0-38.7c-0.1-1.4-0.3-2.9,0-4.3
	c0-1.8,0-3.5-0.2-5.3c-0.1-1.5,0.3-3.1,0.1-4.6c-0.2-1.7-0.2-3.4,0.2-5.1c0.3-1-0.4-1.9-0.2-2.9c0.3-1.9,0.1-3.8-0.1-5.7
	c-0.1-6.4,0-12.8,0-19.2C0.7,5.9,0.8,3.1,0.8,0.3c30.9,0,61.8,0,92.7,0C95.6,0.1,97.8,0.3,99.9,0z"/>
<path fill="#F1ECEC" d="M46.7,2.1c2-0.3,4-0.3,6,0c0.9,0.1,1.8,0,2.8,0c3.1,0,6.2-0.2,9.3-0.1c0.8,0.1,1.5,0.4,2.3,0.3
	c0.8,0,1.7-0.3,2.5-0.3c0.6,0.1,1.2,0.5,1.9,0.4c3-0.5,6.1-0.1,9.2-0.2c1.2-0.1,2.4-0.3,3.6-0.1c1.7,0.3,3.3-0.1,5-0.1
	c2.4,0,4.8,0.1,7.2,0.3c2.7-0.2,5.3,0.2,8,0c-0.1,0.8-0.1,1.6-0.1,2.4c0.3,2.6-0.1,5.3,0.1,7.9c0.1,1.8-0.2,3.6-0.1,5.4
	c0.2,2.6,0.3,5.2,0.3,7.8c-0.3,1.7,0,3.3-0.2,5c-0.1,1.5,0.2,3,0.1,4.5c-0.1,1,0.1,2,0,2.9c-0.1,1.2,0,2.4-0.2,3.5
	c-0.2,1.4,0.2,2.9,0.1,4.3c-0.1,2.1,0,4.1,0,6.2c-0.1,3-0.2,6,0.2,9c0.2,1.1-0.1,2.2-0.2,3.3c-0.1,0.9,0.2,1.7,0.1,2.6
	c-0.1,0.9-0.4,1.8-0.2,2.7c0.2,1.1,0.4,2.2,0.2,3.3c-0.3,2.6-0.2,5.3-0.3,7.9c-0.1,3.1,0.2,6.1,0.2,9.2c-0.1,1.5,0.2,2.9,0.1,4.4
	c-0.2,1.7,0.2,3.3,0,5c-0.1,1.3,0,2.6,0,3.9c-0.4,4.4,0,8.7-0.3,13.1c0.1,1.8-0.4,3.6-0.3,5.4c0.1,0.9,0.6,1.8,0.2,2.7
	c-0.4,1-0.4,2-0.3,3c0,0.6,0,1.6-0.7,1.7c-1.3,0.1-2.5-0.3-3.8-0.2c-1.3,0.1-2.5,0.3-3.8,0.3c-2.9-0.2-5.9-0.1-8.8-0.3
	c-3.3,0.1-6.6,0.4-9.9,0.2c-2.3-0.2-4.7,0.1-7-0.2c-2-0.2-3.9,0.3-5.9,0.2c-1.5,0-3,0.4-4.4,0.1c-1.1-0.2-2.1,0-3.2,0.1
	c-1,0.1-1.9-0.3-2.9-0.3c-0.8,0.1-1.6,0.4-2.5,0.5c-2.1,0-4.1-0.2-6.2-0.5c-1.2-0.2-2.4,0-3.5-0.1c-1.8-0.1-3.6-0.4-5.4,0.1
	c-1.3,0.4-2.6-0.2-3.9-0.3c-1.7-0.2-3.5,0.1-5.2-0.3c-1.8-0.4-3.7-0.5-5.6-0.6c-1.4,0-2.8,0.4-4.3,0.5c-1,0.1-2-0.2-2.9,0
	c-1,0.1-2,0.5-3,0.3c-1.1-0.3-2.1,0.3-3.2,0.3c-1.1,0-2.2-0.3-3.3-0.5c-0.1-1.4-0.5-2.8-0.4-4.2c0-1.1,0.4-2.3,0.2-3.4
	c-0.2-1.4,0-2.9-0.1-4.4c-0.3-2.2-0.5-4.3-0.4-6.5c0.1-1.6-0.2-3.3-0.1-4.9c0.1-1.1,0.1-2.3,0-3.4c-0.1-1.1-0.4-2.1-0.2-3.2
	c0.2-1.9,0.1-3.8,0-5.6c-0.5-3,0-5.9-0.4-8.9c-0.3-2,0.3-4.1-0.1-6.1c-0.4-2.1-0.2-4.3-0.1-6.5c0-1.7,0-3.3,0.3-4.9
	c0.5-1.9-0.3-3.8,0-5.7c0.3-2-0.2-4.1,0-6.1c0.2-1.6,0-3.1-0.2-4.7c0-2.6,0.3-5.2,0.2-7.9c0.2-4.6-0.1-9.2,0.1-13.8
	c0.1-1.9-0.1-3.8-0.1-5.7c0-1.2,0.4-2.3,0.1-3.5c-0.3-1.7-0.1-3.4-0.1-5.1c0.1-3.7-0.3-7.4,0.7-11c1-0.3,2.1-0.6,3.1-0.5
	c1.3,0.1,2.6-0.1,4-0.1c1.7,0,3.4,0,5.1-0.2c1.7-0.2,3.3,0.1,5,0c1.8-0.1,3.6,0.2,5.4,0.1c1.7-0.1,3.4-0.1,5.2-0.1
	c1.7,0.1,3.5-0.2,5.2-0.2c1.6,0,3.1-0.2,4.7-0.1C43.5,2,45.1,2.3,46.7,2.1z"/>
<path fill="#AA1E23" d="M52.4,3.7c2.1-0.1,4.1-0.6,6.2-0.3c2,0.3,3.9-0.1,5.9-0.1c1.2,0,2.3,0.2,3.5,0.2c1.1,0,2.2-0.2,3.4-0.2
	c0.7,0,1.4,0.2,2.2,0.2c2.9-0.1,5.9-0.2,8.8,0.3c1.3,0.3,2.6-0.5,3.9-0.3c2.5,0.2,4.9,0.1,7.4,0.3C94.8,4,95.9,3.4,97,3.5
	C97.8,3.6,98.6,4,99.4,4c0.9,0,1.7-0.1,2.6-0.1c0.2,1.3,0.1,2.6,0.1,4c0.2,2.1,0.3,4.3,0.5,6.4c0.2,1.3-0.3,2.5-0.1,3.8
	c0.2,2,0.1,4,0.2,6.1c0,1.7-0.2,3.4,0.1,5.1c0.1,3.7-0.2,7.5,0.1,11.2c-0.2,2,0.4,4,0,6.1c-0.3,1.8,0.2,3.7-0.1,5.5
	c-0.2,1.8,0.2,3.6,0.1,5.4c-0.2,2.5-0.2,5,0.2,7.5c0.4,2.4-0.5,4.7-0.3,7c0.1,1.8-0.1,3.6,0.1,5.4c0.1,2.6,0.2,5.2-0.1,7.7
	c0.1,2.3-0.3,4.6,0,6.8c0.3,1.7-0.1,3.5,0.1,5.2c0.2,1.6-0.2,3.2,0.1,4.7c0.2,1.2-0.2,2.5,0,3.7c0.2,1.5,0.2,3,0.1,4.5
	c-0.3,2.1,0.1,4.2-0.1,6.3c-0.2,1.7-0.8,3.3-0.8,5.1c0.1,1.4,0.2,2.9,0.1,4.3c-0.1,0.7-0.6,1.3-0.9,1.9c-2.5,0.1-5,0-7.6-0.1
	c-1.7-0.2-3.3,0.1-5,0.1c-1.8,0.2-3.6,0-5.4,0.1c-1.6,0.1-3.3-0.3-4.9,0.1c-0.6,0.1-1.1,0.3-1.7,0.3c-0.7-0.1-1.4-0.5-2.2-0.4
	c-1.6,0.1-3.2,0-4.7,0.3c-1.4,0.2-2.8,0.3-4.1,0c-1.1-0.3-2.1,0.3-3.2,0.3c-1.5,0-3-0.3-4.5-0.1c-2,0.2-3.9,0.2-5.9,0.2
	c-1.7-0.1-3.4,0.5-5.1,0.2c-2.5-0.5-5.1-0.2-7.6-0.3c-1.4-0.2-2.7-0.2-4.1-0.1c-0.8,0.1-1.6-0.5-2.4-0.4c-1.3,0.1-2.5,0.1-3.8,0
	c-0.5-0.1-1,0.2-1.4,0.5c-1.9-0.7-3.9-0.7-5.9-0.8c-1.3,0-2.6-0.6-3.9-0.5c-1.7,0.1-3.3,0-5,0c-2.2,0.1-4.4,0.1-6.6-0.2
	c0.4-1.8,0.2-3.7,0.3-5.5c0-1.3-0.2-2.6-0.3-4c-0.1-0.8,0.3-1.7,0-2.5c-0.8-1.9-0.1-3.9-0.3-5.8c0-1.6-0.4-3.1-0.3-4.7
	c0-0.8-0.1-1.7,0-2.5c0.1-1.9-0.3-3.8-0.1-5.8c0.2-1.2,0-2.5,0-3.7c0.1-2.7,0-5.4,0-8.1c0.1-1.1,0.2-2.2,0.1-3.2
	c0-3.4-0.5-6.8-0.2-10.2c0-1.1-0.1-2.2,0-3.3c0.1-0.9,0.4-1.7,0.3-2.6c-0.1-1.5-0.6-3-0.4-4.5c0.2-1.7-0.2-3.3,0-5
	c0.2-1.7-0.1-3.4,0-5.2c0-1.2,0.1-2.5,0-3.7c-0.2-1.8,0-3.5-0.3-5.3c-0.2-1.4,0.5-2.7,0.2-4c-0.2-0.9-0.2-1.9-0.1-2.8
	c0.4-3,0-5.9,0-8.9c0.1-1.1,0.3-2.1,0.2-3.2c-0.2-2.6,0.1-5.1-0.1-7.7c0.1-1.2,0.4-2.4,0.3-3.6C6,8.6,5.8,6.2,5.9,3.9
	c1.8-0.1,3.6-0.3,5.3,0c1.1,0.2,2.3,0,3.4,0c1.6,0,3.1,0.2,4.7,0c1.9-0.2,3.8,0,5.6,0.1c1.8-0.2,3.6,0.1,5.4,0
	c1.4-0.1,2.8,0.2,4.2,0.1c2.7-0.2,5.4-0.2,8.1-0.3c1.2-0.1,2.4-0.3,3.7-0.2C48.5,3.9,50.5,3.6,52.4,3.7z"/>
<path fill="#AA1E23" d="M148.9,126.5c-3.9-0.2-9.8-0.4-17.8-0.7c-4.9,0-10.9,0.2-18.2,0.7c1.3-3.2,2-6.1,2-8.8
	c0.1-3.2,0.2-8.4,0.3-15.5c0.1-7.5,0-12.6-0.1-15.3c-0.3-4.4-1-7.8-2.3-10.2l18.1,0.5c-7.9,0-13.4-0.1-16.6-0.4
	c2.7-0.1,14-0.1,33.7-0.1c0.4,6,0,10.4-1.2,13c-1.7,3.7-5.1,6.3-10.4,7.7c8.8,4,13.1,10.6,13.1,19.9
	C149.6,119.2,149.4,122.2,148.9,126.5z M136.8,80.4H126c-0.2,2.1-0.3,4.3-0.4,6.5c0,0.9,0,2.9,0,6.1v2.7c4.5,0.3,7.7-1.1,9.4-4
	C136.3,89.4,136.9,85.6,136.8,80.4z M137.3,122.8c0.6-2.6,0.9-5.1,0.9-7.7c0-10.1-4.2-15.4-12.6-15.9l0.3,15.1
	c0.1,3,0.3,5.9,0.8,8.6C130.6,122.4,134.1,122.3,137.3,122.8z"/>
<path fill="#AA1E23" d="M189.6,79.3c-1.2,0.4-2.7,1.5-4.8,3.6c-1,1-2,2.5-3.1,4.6c-2.3-4.1-4.5-6.5-6.5-7.2
	c-5.3-1.7-8.4,1.1-9.2,8.2c-0.2,1.6-0.3,3.2-0.3,4.9c0.1,1.5,0.4,5.9,0.9,13.1l1.1-0.7c0.9-1.9,1.8-3.9,2.8-5.8
	c1.6-2.8,3.4-4.5,5.3-5c2.8-0.7,4.6-1.1,5.3-1.3c1.9-0.7,3.9-1.7,6.2-3.1c-0.1,0.2,0,0.5,0.4,0.9c-1.3,4.1-2.7,7.1-4.2,9
	c-1,1.2-2.7,2.1-5.3,2.8c-3.1,0.8-6.9,2.6-11.3,5.4c1.7,8.9,4.5,13.4,8.5,13.4c2.6,0,5.7-2.3,9.3-7l3.1,2.8
	c-5.9,6.6-11.4,9.8-16.5,9.8c-5.3,0-9.4-3.3-12.3-9.8c-2.2-4.9-3.4-10.3-3.5-16.2c-0.1-5.8,0.2-10.4,0.9-13.9c3-2.6,6-5.2,9-7.8
	c4.7-3.5,8.9-5.2,12.6-5.2C183.1,75,186.9,76.4,189.6,79.3z"/>
<path fill="#AA1E23" d="M224.7,126.5c-3-0.4-5.4-0.7-7.2-0.7c-1.9,0-4.3,0.2-7.4,0.7c1.4-3.5,2.2-7.5,2.3-12.2V84.1l-0.4-3.7h-8.1
	v22.2l-10.5,5.2c0.5-6.6,0.8-11.9,0.8-15.7c0-3.7-0.3-8.9-0.8-15.5h49c-1.4,4.6-3.5,9.3-6.2,14.1c-1.2-1.7-3.3-5.2-6.1-10.2h-6.6
	l-0.5,3.8v30.1c0,2.2,0.3,4.5,0.8,7C224,123.1,224.4,124.8,224.7,126.5z"/>
<path fill="#AA1E23" d="M275.1,98.1c0.4,1.4,0.5,3.1,0.5,4.9c0,4.2-0.9,7.7-2.8,10.2c-3.2,4.2-8.9,9.1-17.1,14.9
	c-1.6,1-2.7,1.1-3.5,0.4c-2.7-3-5.3-6.9-7.8-11.6c-2.6-4.7-4.2-8.8-4.9-12.1c-0.6-3-0.9-5.5-0.9-7.6c0-1.1,0.1-2.3,0.3-3.7
	c0.2-1.4,0.3-2.5,0.3-3.2c0.4-1,3.4-3.6,9-7.8c5.7-4.2,9.9-6.9,12.6-8.2c0.6-0.3,1.2-0.4,1.7-0.4c1.2,0,2.3,0.9,3.6,2.8
	C270.3,84.8,273.3,92,275.1,98.1z M264.8,113.3c1.3-4.1,1.5-7.9,0.7-11.4c-1.7-7.4-4.6-14.3-8.6-20.6c-0.4-0.5-1.1-0.6-1.9-0.1
	c-2.6,1.9-4.3,3.4-5.3,4.6c-1.2,1.6-1.9,3.6-1.9,6.1c0,4.2,1.2,9.3,3.7,15.4c2.3,5.8,4.8,10.3,7.6,13.7
	C261.6,120.3,263.5,117.8,264.8,113.3z"/>
<path fill="#AA1E23" d="M314,80.4c-1.3,0.7-3.2,1.8-5.6,3.3c-0.8,0.9-2.5,2.5-5,4.8c-1.2-3.3-2.5-5.6-3.9-7c-1.5-1.4-3.1-1.7-5-0.8
	c-2.1,1.1-3.1,5.4-2.8,12.9c-0.1,3.5,0.1,8.6,0.5,15.4c1.4,8.9,4.2,13.4,8.5,13.4c2.6,0,5.7-2.3,9.3-7l3.1,2.8
	c-5.9,6.6-11.4,9.8-16.5,9.8c-10.5,0-15.8-8.7-15.8-26c0-6.7,0.3-11.7,0.9-14.9c1.9-2.3,5.2-4.8,9.7-7.6c5-3,9-4.5,12-4.5
	C307.1,75,310.6,76.8,314,80.4z"/>
<path fill="#AA1E23" d="M359.9,126.5c-2.9-0.3-5.2-0.4-6.9-0.4c-1.3,0-3.1,0.1-5.4,0.4c-0.9-2.4-2.5-6.7-4.7-13
	c-4.7,9.5-9.8,14.3-15.2,14.2c-2.7-0.1-5.2-1-7.4-2.8c-2.5-2-3.7-4.8-3.7-8.2c0-9.5,5.7-19,17-28.5c-0.4-1.3-1.2-3.4-2.3-6.2
	c-0.5-1.1-1.6-2.9-3.3-5.2c2.9,0.4,5.4,0.5,7.4,0.5c1.4,0,3.5-0.2,6.1-0.5c0.4,1.4,1.1,3.7,2.1,6.8l13.4,37
	C357.6,122.3,358.6,124.3,359.9,126.5z M340.6,107.6l-5.8-16.4c-5.9,7.2-8.9,13.2-8.9,18.2c0,2.7,0.6,5,1.8,6.8s2.8,2.7,4.7,2.7
	c2.6-0.1,4.8-1.7,6.5-4.9C339.9,111.9,340.5,109.8,340.6,107.6z"/>
<path fill="#AA1E23" d="M399.1,126.5c-3.9-0.2-9.8-0.4-17.8-0.7c-4.9,0-10.9,0.2-18.2,0.7c1.3-3.2,2-6.1,2-8.8
	c0.1-3.2,0.2-8.4,0.3-15.5c0.1-7.5,0-12.6-0.1-15.3c-0.3-4.4-1-7.8-2.3-10.2l18.1,0.5c-7.9,0-13.4-0.1-16.6-0.4
	c2.7-0.1,14-0.1,33.7-0.1c0.4,6,0,10.4-1.2,13c-1.7,3.7-5.1,6.3-10.4,7.7c8.8,4,13.1,10.6,13.1,19.9
	C399.7,119.2,399.5,122.2,399.1,126.5z M387,80.4h-10.9c-0.2,2.1-0.3,4.3-0.4,6.5c0,0.9,0,2.9,0,6.1v2.7c4.5,0.3,7.7-1.1,9.4-4
	C386.5,89.4,387.1,85.6,387,80.4z M387.4,122.8c0.6-2.6,0.9-5.1,0.9-7.7c0-10.1-4.2-15.4-12.6-15.9l0.3,15.1c0.1,3,0.3,5.9,0.8,8.6
	C380.7,122.4,384.3,122.3,387.4,122.8z"/>
<path fill="#AA1E23" d="M499.2,79.3c-1.2,0.4-2.7,1.5-4.8,3.6c-1,1-2,2.5-3.1,4.6c-2.3-4.1-4.5-6.5-6.5-7.2
	c-5.3-1.7-8.4,1.1-9.2,8.2c-0.2,1.6-0.3,3.2-0.3,4.9c0.1,1.5,0.4,5.9,0.9,13.1l1.1-0.7c0.9-1.9,1.8-3.9,2.8-5.8
	c1.6-2.8,3.4-4.5,5.3-5c2.8-0.7,4.6-1.1,5.3-1.3c1.9-0.7,3.9-1.7,6.2-3.1c-0.1,0.2,0,0.5,0.4,0.9c-1.3,4.1-2.7,7.1-4.2,9
	c-1,1.2-2.7,2.1-5.3,2.8c-3.1,0.8-6.9,2.6-11.3,5.4c1.7,8.9,4.5,13.4,8.5,13.4c2.6,0,5.7-2.3,9.3-7l3.1,2.8
	c-5.9,6.6-11.4,9.8-16.5,9.8c-5.3,0-9.4-3.3-12.3-9.8c-2.2-4.9-3.4-10.3-3.5-16.2c-0.1-5.8,0.2-10.4,0.9-13.9c3-2.6,6-5.2,9-7.8
	c4.7-3.5,8.9-5.2,12.6-5.2C492.8,75,496.6,76.4,499.2,79.3z"/>
<g>
	<path fill="#FFFFFF" stroke="#000000" stroke-width="0.5" stroke-miterlimit="10" d="M48.1,125c0.1-1.3,0.2-2.6,0.2-4
		c0-8.8-2.8-18.8-8.4-30C33.5,78.4,30,71.2,29.2,69.4c-3.7-8.5-5.5-15.9-5.5-22c0-9.7,3.2-18.5,9.6-26.6c7.1-9,15.9-13.6,26.2-13.6
		c8.9,0,16,2.9,21.2,8.6c3.7,4.2,6.2,9.6,7.6,16.2c1.3,5.7,1.5,8.6,0.8,8.6c-3.1-0.6-6.2-1-9.4-1c-2.8,0-6,0.3-9.6,1
		c1-4.3,1.5-8.3,1.5-11.8c0-2-0.2-3.8-0.6-5.2c-2-7.9-6.1-11.8-12-11.8c-4.5,0-8.5,2.7-12.2,8.1c-3.7,5.4-5.5,11.3-5.5,17.7
		c0,7.9,2,18.4,6.1,31.5c2,7.8,4.3,18.1,6.9,31.1c0.8,6.4,0.7,12.6-0.2,18.7c1.9-1.7,3.7-3.5,5.3-5.5c3.9-5,6.7-10.4,8.2-16.2
		c1-3.9,1.5-8.7,1.5-14.1c0-4.1-0.3-8-0.8-11.8c2.8,0.6,5.5,1,8.2,1s5.7-0.3,9-1c-0.3,3.6-0.7,6.9-1.3,10.1
		c-1.5,7.6-3.8,13.9-6.7,18.9c-5.5,9.2-14.2,17.4-26.2,24.6H48.1z"/>
</g>
<path fill="none" stroke="#FFFFFF" stroke-width="2" stroke-miterlimit="10" d="M72.4,38.6c0,0,5.3-28-13-28.8
	c-10.4,0-21.9,6.8-20.7,33.3c0.5,10.6,17.1,60.3,13,77.5c0.1,1.2,0.1,2.3,0.1,2.3s26-19.1,18-48.5"/>
<g>
	<path d="M8.4,142.5c0-0.6-0.1-1.3-0.3-1.9H4.8c-0.2,0.7-0.3,1.4-0.3,1.9l-0.1,6.4l0.1,5.5c0,0.8,0.2,1.5,0.5,2.1
		c-0.7-0.1-1.2-0.1-1.6-0.1s-0.9,0-1.6,0.1c0.3-0.6,0.5-1.3,0.5-2.1l0.1-5.5l-0.1-6.4c0,0-0.2-0.9-0.5-2.6h9.5
		c-0.3,0.6-0.4,1.4-0.4,2.6l-0.1,6.4l0.1,5.5c0,0.8,0.2,1.5,0.5,2.1c-0.7-0.1-1.2-0.1-1.6-0.1c-0.4,0-0.9,0-1.7,0.1
		c0.3-0.6,0.5-1.3,0.5-2.1l0.1-5.5L8.4,142.5z"/>
	<path d="M20.9,143c0,0.7-0.2,1.4-0.7,1.9c-0.5,0.5-1,0.8-1.6,0.8c-0.5,0-0.8-0.1-1.1-0.4c-0.1-0.1-0.3-0.3-0.6-0.7
		c-0.3,0.4-0.8,0.9-1.5,1.6c-0.1,2.1-0.1,3.3-0.1,3.7c0-0.1,0,1.4,0.1,4.7c0,0.4,0.2,1.1,0.6,1.9c-0.7-0.1-1.3-0.1-1.8-0.1
		c-0.4,0-0.9,0-1.5,0.1c0.2-0.6,0.4-1.2,0.4-1.9c0.1-1.2,0.1-3.1,0.1-5.8c0-3.4,0-5.2,0-5.4c0-1,0.4-1.8,1.3-2.5c0.8-0.7,1.8-1,3-1
		c0.9,0,1.7,0.2,2.3,0.6C20.5,141,20.9,141.8,20.9,143z M19.1,142.9c0-0.6-0.1-1.1-0.4-1.5c-0.4-0.5-0.8-0.8-1.4-0.8
		c-0.5,0-0.9,0.3-1.3,0.8c-0.4,0.5-0.6,1.2-0.6,1.9v2.2l1.6-1.7c0.5,0.5,0.9,0.8,1.2,0.8c0.2,0,0.4-0.2,0.7-0.5
		C19,143.7,19.1,143.3,19.1,142.9z"/>
	<path d="M28.8,156.5c-0.6-0.1-1.2-0.2-1.6-0.2c-0.4,0-0.9,0.1-1.6,0.2c0.1-0.2,0.3-0.7,0.5-1.3c0.1-0.4,0.1-1.5,0.2-3.2
		c0-0.6,0-2.2,0-4.8c-0.1,0.2-0.6,0.8-1.3,1.5c-0.5,0.6-1.2,1.1-2.1,1.7c0.6,0.2,1,0.7,1,1.4c0,0.3-0.1,0.6-0.4,0.8
		c-0.2,0.2-0.5,0.4-0.8,0.4c0,0.1,0,0.3,0.2,0.8c0.1,0.5,0.3,0.8,0.4,1.1c0.1,0.3,0.4,0.8,0.6,1.6c-0.7-0.1-1.2-0.2-1.6-0.2
		c-0.4,0-0.9,0.1-1.5,0.2l0.9-1.7c0.1-0.4,0.3-1,0.5-1.8c-0.6-0.1-1-0.6-1-1.2c0-0.7,0.3-1.1,1-1.3c-0.5-0.7-0.8-1.4-0.8-2.3
		c-0.1-0.8,0.2-1.7,0.6-2.7c0.3-0.4,0.6-0.8,1-1.3c0.4-0.4,1-0.9,1.5-1.3c0.4-0.3,0.7-0.5,1-0.7c0.6-0.6,0.9-1,1-1.2
		c-0.5,0-1.4,0-2.5,0c-0.7,0-1.3,0.3-1.9,0.8l0.1-1.7c1.5,0.1,2.5,0.1,3.3,0.1c1.2,0,2.3,0,3.4-0.1c0,0.5-0.1,1.3-0.2,2.3
		c-0.1,3.9-0.2,5.9-0.2,6l0.1,6.9C28.6,155.6,28.7,156.1,28.8,156.5z M25.1,143.2c-0.8,0.6-1.3,1.3-1.5,2c-0.1,0.5-0.2,1-0.2,1.5
		c0,0.6,0.1,1.2,0.4,1.8c0.4-0.3,1-0.9,1.7-1.8c0.3-0.4,0.5-1.1,0.5-1.8l0.2-2.3C25.9,142.8,25.5,143,25.1,143.2z"/>
	<path d="M38.8,156.5c-0.1,0-0.6,0-1.4-0.1c-0.8,0-1.6-0.1-2.4-0.1c-1.4,0-3,0-4.7,0.1c0.3-0.6,0.5-1.3,0.5-2.2l0.1-5.5
		c-0.1-3.1,0-4.9,0.1-5.5c0.4-2.3,1.8-3.5,4-3.5c1,0,1.8,0.2,2.4,0.6c0.8,0.6,1.2,1.4,1.3,2.5c0,0.7-0.2,1.4-0.7,2
		c-0.5,0.6-1,0.9-1.6,0.9c-0.7,0-1.4-0.3-1.9-1c0,0.1-0.2,0.3-0.7,0.7c0.7,0.5,1.4,0.9,2.4,1.3c0.9,0.4,1.7,0.6,2.3,0.7
		c-0.1,0.3-0.1,1-0.1,2.1c0,0.8,0,1.9,0.1,3.1c0,1.2,0.1,1.7,0.1,1.6C38.6,155.1,38.7,155.8,38.8,156.5z M36.9,142.9
		c0-0.6-0.1-1.1-0.4-1.5c-0.4-0.5-0.8-0.8-1.4-0.8c-0.5,0-0.9,0.3-1.3,0.8c-0.4,0.5-0.6,1.2-0.6,1.9v2.2c0.3-0.3,0.8-0.8,1.3-1.5
		c0.5,0.5,1,0.8,1.4,0.8c0.2,0,0.4-0.2,0.7-0.6C36.8,143.7,36.9,143.3,36.9,142.9z M36.2,147.9c-1.1-0.5-2.2-1.1-3.1-1.8v8.2
		c0,0.7,0.1,1.2,0.2,1.5h1.6h1.1c0.1-0.5,0.2-0.9,0.2-1.4V147.9z"/>
	<path d="M52.7,148.5c0,2.2-0.5,4.1-1.4,5.6c-1.1,1.8-2.6,2.7-4.4,2.8c-2,0.1-3.5-0.8-4.8-2.7c-1.1-1.7-1.6-3.7-1.5-6
		c0.1-2.2,0.7-4.2,1.8-5.9c1.2-1.9,2.8-2.7,4.7-2.6c1.8,0.1,3.3,1.1,4.3,3C52.2,144.4,52.7,146.3,52.7,148.5z M49.6,148.4
		c0-4.9-0.9-7.4-2.7-7.6c-2-0.2-3.1,2.2-3.2,7.3c0,2.2,0.1,4,0.6,5.4c0.5,1.8,1.4,2.6,2.5,2.5C48.7,156,49.6,153.4,49.6,148.4z"/>
	<path d="M57.5,157c0-0.2,0-0.4,0-0.6c0-1.3-0.4-2.7-1.2-4.4c-0.9-1.8-1.5-2.9-1.6-3.2c-0.5-1.2-0.8-2.3-0.8-3.2
		c0-1.4,0.5-2.7,1.4-3.9c1-1.3,2.3-2,3.8-2c1.3,0,2.3,0.4,3.1,1.3c0.5,0.6,0.9,1.4,1.1,2.4c0.2,0.8,0.2,1.3,0.1,1.3
		c-0.4-0.1-0.9-0.1-1.4-0.1c-0.4,0-0.9,0-1.4,0.1c0.1-0.6,0.2-1.2,0.2-1.7c0-0.3,0-0.5-0.1-0.8c-0.3-1.2-0.9-1.7-1.8-1.7
		c-0.7,0-1.2,0.4-1.8,1.2c-0.5,0.8-0.8,1.7-0.8,2.6c0,1.2,0.3,2.7,0.9,4.6c0.3,1.1,0.6,2.7,1,4.6c0.1,0.9,0.1,1.8,0,2.7
		c0.3-0.2,0.5-0.5,0.8-0.8c0.6-0.7,1-1.5,1.2-2.4c0.1-0.6,0.2-1.3,0.2-2.1c0-0.6,0-1.2-0.1-1.7c0.4,0.1,0.8,0.1,1.2,0.1
		c0.4,0,0.8,0,1.3-0.1c0,0.5-0.1,1-0.2,1.5c-0.2,1.1-0.6,2-1,2.8c-0.8,1.3-2.1,2.5-3.8,3.6H57.5z"/>
	<path d="M74.3,156.5c-0.8-0.1-1.4-0.1-1.8-0.1c-0.4,0-1,0-1.8,0.1c0.1-0.2,0.2-0.6,0.2-1.2c0-0.6,0-1-0.1-1.3l-1.5-9
		c-0.8,1-1.5,2.4-2,4.3c-0.5,1.7-0.7,3.5-0.6,5.6c0,0.2,0.1,0.5,0.2,0.9c0.2,0.4,0.3,0.7,0.3,0.8c-0.8-0.1-1.4-0.2-1.8-0.2
		c-0.2,0-0.5,0-1,0.1c-0.4,0.1-0.7,0.1-0.9,0.1c0.2-0.6,0.4-1.1,0.5-1.7c0.2-1.9,0.7-3.8,1.3-5.5c0.7-2,2-3.7,3.7-5.1l-0.4-2.1
		c-0.1-0.8-0.4-1.5-0.8-2.1c0.7,0.1,1.2,0.2,1.6,0.2c0.4,0,1-0.1,1.7-0.2c-0.2,0.6-0.2,1.3-0.1,2.1l0.9,5.5l1.3,6.3
		c0.1,0.3,0.2,0.8,0.4,1.3C73.9,155.9,74.1,156.3,74.3,156.5z"/>
	<path d="M83.1,156.5c-0.6-0.1-1.2-0.2-1.6-0.2c-0.4,0-0.9,0.1-1.6,0.2c0.1-0.2,0.3-0.7,0.5-1.3c0.1-0.4,0.1-1.5,0.2-3.2
		c0-0.6,0-2.2,0-4.8c-0.1,0.2-0.6,0.8-1.3,1.5c-0.5,0.6-1.2,1.1-2.1,1.7c0.6,0.2,1,0.7,1,1.4c0,0.3-0.1,0.6-0.4,0.8
		c-0.2,0.2-0.5,0.4-0.8,0.4c0,0.1,0,0.3,0.2,0.8c0.1,0.5,0.3,0.8,0.4,1.1c0.1,0.3,0.4,0.8,0.6,1.6c-0.7-0.1-1.2-0.2-1.6-0.2
		c-0.4,0-0.9,0.1-1.5,0.2l0.9-1.7c0.1-0.4,0.3-1,0.5-1.8c-0.6-0.1-1-0.6-1-1.2c0-0.7,0.3-1.1,1-1.3c-0.5-0.7-0.8-1.4-0.8-2.3
		c-0.1-0.8,0.2-1.7,0.6-2.7c0.3-0.4,0.6-0.8,1-1.3c0.4-0.4,1-0.9,1.5-1.3c0.4-0.3,0.7-0.5,1-0.7c0.6-0.6,0.9-1,1-1.2
		c-0.5,0-1.4,0-2.5,0c-0.7,0-1.3,0.3-1.9,0.8l0.1-1.7c1.5,0.1,2.5,0.1,3.3,0.1c1.2,0,2.3,0,3.4-0.1c0,0.5-0.1,1.3-0.2,2.3
		c-0.1,3.9-0.2,5.9-0.2,6l0.1,6.9C82.8,155.6,82.9,156.1,83.1,156.5z M79.4,143.2c-0.8,0.6-1.3,1.3-1.5,2c-0.1,0.5-0.2,1-0.2,1.5
		c0,0.6,0.1,1.2,0.4,1.8c0.4-0.3,1-0.9,1.7-1.8c0.3-0.4,0.5-1.1,0.5-1.8l0.2-2.3C80.2,142.8,79.8,143,79.4,143.2z"/>
	<path d="M93.1,156.5c-0.1,0-0.6,0-1.4-0.1c-0.8,0-1.6-0.1-2.4-0.1c-1.4,0-3,0-4.7,0.1c0.3-0.6,0.5-1.3,0.5-2.2l0.1-5.5
		c-0.1-3.1,0-4.9,0.1-5.5c0.4-2.3,1.8-3.5,4-3.5c1,0,1.8,0.2,2.4,0.6c0.8,0.6,1.2,1.4,1.3,2.5c0,0.7-0.2,1.4-0.7,2
		c-0.5,0.6-1,0.9-1.6,0.9c-0.7,0-1.4-0.3-1.9-1c0,0.1-0.2,0.3-0.7,0.7c0.7,0.5,1.4,0.9,2.4,1.3c0.9,0.4,1.7,0.6,2.3,0.7
		c-0.1,0.3-0.1,1-0.1,2.1c0,0.8,0,1.9,0.1,3.1c0,1.2,0.1,1.7,0.1,1.6C92.9,155.1,93,155.8,93.1,156.5z M91.2,142.9
		c0-0.6-0.1-1.1-0.4-1.5c-0.4-0.5-0.8-0.8-1.4-0.8c-0.5,0-0.9,0.3-1.3,0.8c-0.4,0.5-0.6,1.2-0.6,1.9v2.2c0.3-0.3,0.8-0.8,1.3-1.5
		c0.5,0.5,1,0.8,1.4,0.8c0.2,0,0.4-0.2,0.7-0.6C91.1,143.7,91.2,143.3,91.2,142.9z M90.5,147.9c-1.1-0.5-2.2-1.1-3.1-1.8v8.2
		c0,0.7,0.1,1.2,0.2,1.5h1.6h1.1c0.1-0.5,0.2-0.9,0.2-1.4V147.9z"/>
	<path d="M104,156.5c-0.7-0.1-1.3-0.1-1.6-0.1c-0.4,0-1,0-1.8,0.1c0.1-0.2,0.3-0.6,0.5-1.2c0.1-0.6,0.2-1,0.2-1.3v-4.7
		c-1.2-1.2-2.6-2.4-4.1-3.7v2l0.1,6.3c0,0.3,0.1,0.8,0.2,1.3c0.1,0.7,0.3,1.1,0.4,1.3c-0.8-0.1-1.3-0.1-1.7-0.1c-0.4,0-1,0-1.8,0.1
		c0.1-0.2,0.3-0.6,0.4-1.2c0.1-0.6,0.2-1,0.2-1.3l0.1-6.4l-0.1-5.5c0-0.8-0.2-1.5-0.5-2.1c0.7,0.1,1.2,0.2,1.6,0.2
		c0.4,0,0.9-0.1,1.7-0.2c-0.3,0.6-0.5,1.3-0.5,2.1l-0.1,1.9c1.5,1.5,2.9,2.7,4.1,3.7V142c0-0.8-0.2-1.5-0.5-2.1
		c0.7,0.1,1.3,0.2,1.7,0.2c0.4,0,0.9-0.1,1.6-0.2c-0.3,0.6-0.4,1.3-0.4,2.1c-0.1,2.5-0.2,4.4-0.1,5.5l0.1,6.4c0,0.3,0.1,0.8,0.2,1.3
		C103.7,155.9,103.9,156.3,104,156.5z"/>
	<path d="M118,148.5c0,2.2-0.5,4.1-1.4,5.6c-1.1,1.8-2.6,2.7-4.4,2.8c-2,0.1-3.5-0.8-4.8-2.7c-1.1-1.7-1.6-3.7-1.5-6
		c0.1-2.2,0.7-4.2,1.8-5.9c1.2-1.9,2.8-2.7,4.7-2.6c1.8,0.1,3.3,1.1,4.3,3C117.6,144.4,118,146.3,118,148.5z M115,148.4
		c0-4.9-0.9-7.4-2.7-7.6c-2-0.2-3.1,2.2-3.2,7.3c0,2.2,0.1,4,0.6,5.4c0.5,1.8,1.4,2.6,2.5,2.5C114,156,115,153.4,115,148.4z"/>
	<path d="M135.9,143c-0.3-0.7-0.8-1.1-1.4-1.1c-0.9,0-1.7,0.7-2.3,2.1c-0.2,0.4-0.4,1-0.8,1.8l0.8,1.7l2.8,6.3
		c0.1,0.3,0.4,0.8,0.7,1.3c0.4,0.7,0.7,1.1,1,1.3c-1-0.1-1.6-0.1-2-0.1c-0.4,0-0.9,0-1.7,0.1c0.1-0.2,0-0.6-0.1-1.2
		c-0.1-0.6-0.2-1-0.4-1.3l-2.3-5.5c-2,5.4-3.1,9.4-3.5,11.9c-0.1,0.4-0.3,0.6-0.8,0.6c-0.3,0-0.5-0.1-0.7-0.2
		c-0.2-0.1-0.3-0.3-0.2-0.5c0.4-1.8,1.1-4,2-6.6c0.2-0.6,1.1-2.7,2.6-6.4c-0.6-1.4-1.3-3.1-2.3-5.1c-0.4-0.8-0.8-1.5-1.4-2.1
		c0.7,0.1,1.3,0.1,1.7,0.1c0.4,0,1,0,1.8-0.1c-0.1,0.6,0.1,1.2,0.3,1.8c0.3,0.8,0.7,1.7,1.1,2.7c0.6-1.6,1.2-2.8,1.8-3.5
		c0.6-0.7,1.4-1.1,2.3-1.1c1.1,0,1.9,0.5,2.5,1.5L135.9,143z"/>
	<path d="M145.4,143c0,0.7-0.2,1.4-0.7,1.9c-0.5,0.5-1,0.8-1.6,0.8c-0.5,0-0.8-0.1-1.1-0.4c-0.1-0.1-0.3-0.3-0.6-0.7
		c-0.3,0.4-0.8,0.9-1.5,1.6c-0.1,2.1-0.1,3.3-0.1,3.7c0-0.1,0,1.4,0.1,4.7c0,0.4,0.2,1.1,0.6,1.9c-0.7-0.1-1.3-0.1-1.8-0.1
		c-0.4,0-0.9,0-1.5,0.1c0.2-0.6,0.4-1.2,0.4-1.9c0.1-1.2,0.1-3.1,0.1-5.8c0-3.4,0-5.2,0-5.4c0-1,0.4-1.8,1.3-2.5c0.8-0.7,1.8-1,3-1
		c0.9,0,1.7,0.2,2.3,0.6C145,141,145.3,141.8,145.4,143z M143.5,142.9c0-0.6-0.1-1.1-0.4-1.5c-0.4-0.5-0.8-0.8-1.4-0.8
		c-0.5,0-0.9,0.3-1.3,0.8c-0.4,0.5-0.6,1.2-0.6,1.9v2.2l1.6-1.7c0.5,0.5,0.9,0.8,1.2,0.8c0.2,0,0.4-0.2,0.7-0.5
		C143.4,143.7,143.5,143.3,143.5,142.9z"/>
	<path d="M148.7,142v5.6c1.2-1,2.5-2.2,4-3.7V142c0-0.8-0.2-1.5-0.5-2.1c0.3,0,0.9,0.1,1.7,0.2c0.4,0,0.9-0.1,1.6-0.2
		c-0.3,0.6-0.5,1.3-0.5,2.1l-0.1,5.5l0.1,6.4c0,0.3,0.1,0.8,0.2,1.3c0.1,0.6,0.3,1,0.4,1.2c-0.8-0.1-1.4-0.1-1.8-0.1
		c-0.4,0-0.9,0-1.7,0.1c0.1-0.2,0.3-0.6,0.4-1.3c0.1-0.6,0.2-1,0.2-1.3l0.1-6.3l-0.1-2.3c-1.5,1.2-2.8,2.5-4,3.7v4.9
		c0,0.3,0.1,0.8,0.2,1.3c0.1,0.6,0.3,1,0.5,1.2c-0.8-0.1-1.4-0.1-1.8-0.1c-0.4,0-0.9,0-1.6,0.1c0.1-0.2,0.3-0.6,0.4-1.3
		c0.1-0.6,0.2-1,0.2-1.3l0.1-6.4c0-1.1,0-3-0.1-5.5c0-0.8-0.2-1.5-0.5-2.1c0.3,0,0.8,0.1,1.6,0.2c0.4,0,0.9-0.1,1.7-0.2
		C148.9,140.6,148.7,141.3,148.7,142z"/>
	<path d="M172.4,156.6c-2.6-0.1-5.1-0.1-7.3-0.1c-2.2,0-4.6,0-7.2,0.1c0.1-0.2,0.3-0.6,0.4-1.3c0.1-0.6,0.2-1.1,0.2-1.4l0.1-6.4
		l-0.1-5.5c0-0.8-0.2-1.5-0.5-2.1c0.3,0,0.9,0.1,1.7,0.2c0.4,0,0.9-0.1,1.6-0.2c-0.3,0.6-0.5,1.3-0.5,2.1l-0.1,5.5l0.1,6.4
		c0.1,0.4,0.1,1,0.2,1.8h2.8c0.1-0.6,0.1-1.2,0.1-1.7l0.1-6.4L164,142c0-0.8-0.2-1.5-0.5-2.1c0.3,0,0.9,0.1,1.6,0.2
		c0.4,0,0.9-0.1,1.6-0.2c-0.3,0.6-0.5,1.3-0.5,2.1l-0.1,5.5l0.1,6.4c0,0.1,0,0.3,0.1,0.8s0.1,0.7,0.1,1h2.9c0-0.5,0-1.1,0.1-1.8
		l0.1-6.4l-0.1-5.5c0-0.8-0.2-1.5-0.5-2.1c0.3,0,0.9,0.1,1.7,0.2c0.4,0,0.9-0.1,1.6-0.2c-0.3,0.6-0.5,1.3-0.5,2.1l-0.1,5.5l0.1,6.4
		c0,0.3,0.1,0.8,0.2,1.4C172.1,156,172.2,156.4,172.4,156.6z"/>
	<path d="M185.8,143.3c-0.7,0.4-1.4,0.5-2.1,0.5c-0.3,0-0.7-0.1-1.2-0.4c-0.6-0.6-1.4-1.4-2.3-2.4c-0.3-0.3-0.7-0.4-1.2-0.4
		s-0.9,0.2-1.3,0.6c-0.3,0.4-0.5,0.9-0.4,1.4c0,0.3,0,0.5,0,0.7c-0.3-0.1-0.6-0.1-0.8-0.1c-0.2,0-0.5,0-0.7,0.1
		c-0.1-0.9,0.1-1.6,0.6-2.1c0.6-0.7,1.5-1,2.9-1c1.4,0,2.4,0.3,2.9,0.8c0.4,0.4,0.8,0.9,1.2,1.3c0.6,0.6,1.1,0.8,1.5,0.9
		c0.4,0,0.7-0.1,0.9-0.3L185.8,143.3z M179.2,145.2c-1,0-1.5-0.6-1.5-1.7c0-0.5,0.1-1,0.4-1.3c0.3-0.3,0.6-0.4,1-0.4
		c0.4,0,0.7,0.1,1,0.4c0.3,0.3,0.5,0.7,0.5,1.2C180.7,144.6,180.2,145.2,179.2,145.2z M179.2,142.2c-0.3,0-0.4,0.4-0.4,1.2
		c0,0.9,0.2,1.4,0.5,1.4c0.2,0,0.4-0.5,0.4-1.4C179.6,142.7,179.5,142.2,179.2,142.2z"/>
	<path d="M182.6,142.7c-0.3,0.8-0.7,1.8-1.3,3c-0.4-0.6-0.8-1.4-1.3-2.2c-0.6,0-1.5,0-3,0v0.7c0,0.7,0,1.1,0,1.3
		c0.9,0.7,1.7,1.2,2.2,1.5c0.7,0.3,1.7,0.5,2.8,0.6c-0.2,1-0.2,3.4,0,6.9c0,0.7,0.1,1.4,0.4,2.1c-0.7-0.1-1.2-0.1-1.6-0.1
		c-0.4,0-0.9,0-1.5,0.1c0.3-0.9,0.4-1.6,0.4-2.1v-6.2c-0.9-0.3-1.8-0.8-2.7-1.5v7.5c0,0.8,0.1,1.5,0.4,2.2c-0.7-0.1-1.2-0.1-1.6-0.1
		c-0.4,0-0.9,0-1.5,0.1c0.3-0.9,0.4-1.6,0.4-2v-5.6c0-0.7,0-1.6,0-2.6c0-1.3,0-2.2,0-2.8c-0.5-0.1-0.9-0.1-1.2,0
		c-0.3,0.1-0.7,0.2-1.1,0.5v-1.3h2.3v-0.7c0-0.7-0.1-1.4-0.3-2.1c0.3,0,0.8,0.1,1.5,0.2c0.4,0,0.9-0.1,1.4-0.2
		c-0.2,0.9-0.3,1.6-0.3,2.1v0.7C179.6,142.8,181.4,142.8,182.6,142.7z"/>
	<path d="M191.6,156.5c-0.6-0.1-1.2-0.2-1.6-0.2c-0.4,0-0.9,0.1-1.6,0.2c0.1-0.2,0.3-0.7,0.5-1.3c0.1-0.4,0.1-1.5,0.2-3.2
		c0-0.6,0-2.2,0-4.8c-0.1,0.2-0.6,0.8-1.3,1.5c-0.5,0.6-1.2,1.1-2.1,1.7c0.6,0.2,1,0.7,1,1.4c0,0.3-0.1,0.6-0.4,0.8
		c-0.2,0.2-0.5,0.4-0.8,0.4c0,0.1,0,0.3,0.2,0.8c0.1,0.5,0.3,0.8,0.4,1.1c0.1,0.3,0.4,0.8,0.6,1.6c-0.7-0.1-1.2-0.2-1.6-0.2
		c-0.4,0-0.9,0.1-1.5,0.2l0.9-1.7c0.1-0.4,0.3-1,0.5-1.8c-0.6-0.1-1-0.6-1-1.2c0-0.7,0.3-1.1,1-1.3c-0.5-0.7-0.8-1.4-0.8-2.3
		c-0.1-0.8,0.2-1.7,0.6-2.7c0.3-0.4,0.6-0.8,1-1.3c0.4-0.4,1-0.9,1.5-1.3c0.4-0.3,0.7-0.5,1-0.7c0.6-0.6,0.9-1,1-1.2
		c-0.5,0-1.4,0-2.5,0c-0.7,0-1.3,0.3-1.9,0.8l0.1-1.7c1.5,0.1,2.5,0.1,3.3,0.1c1.2,0,2.3,0,3.4-0.1c0,0.5-0.1,1.3-0.2,2.3
		c-0.1,3.9-0.2,5.9-0.2,6l0.1,6.9C191.4,155.6,191.5,156.1,191.6,156.5z M187.9,143.2c-0.8,0.6-1.3,1.3-1.5,2
		c-0.1,0.5-0.2,1-0.2,1.5c0,0.6,0.1,1.2,0.4,1.8c0.4-0.3,1-0.9,1.7-1.8c0.3-0.4,0.5-1.1,0.5-1.8l0.2-2.3
		C188.7,142.8,188.4,143,187.9,143.2z"/>
	<path d="M203.4,156.5c-0.7-0.1-1.3-0.1-1.6-0.1c-0.4,0-1,0-1.8,0.1c0.1-0.2,0.3-0.6,0.5-1.2c0.1-0.6,0.2-1,0.2-1.3v-4.7
		c-1.2-1.2-2.6-2.4-4.1-3.7v2l0.1,6.3c0,0.3,0.1,0.8,0.2,1.3c0.1,0.7,0.3,1.1,0.4,1.3c-0.8-0.1-1.3-0.1-1.7-0.1c-0.4,0-1,0-1.8,0.1
		c0.1-0.2,0.3-0.6,0.4-1.2c0.1-0.6,0.2-1,0.2-1.3l0.1-6.4l-0.1-5.5c0-0.8-0.2-1.5-0.5-2.1c0.7,0.1,1.2,0.2,1.6,0.2
		c0.4,0,0.9-0.1,1.7-0.2c-0.3,0.6-0.5,1.3-0.5,2.1l-0.1,1.9c1.5,1.5,2.9,2.7,4.1,3.7V142c0-0.8-0.2-1.5-0.5-2.1
		c0.7,0.1,1.3,0.2,1.7,0.2c0.4,0,0.9-0.1,1.6-0.2c-0.3,0.6-0.4,1.3-0.4,2.1c-0.1,2.5-0.2,4.4-0.1,5.5l0.1,6.4c0,0.3,0.1,0.8,0.2,1.3
		C203.1,155.9,203.2,156.3,203.4,156.5z"/>
	<path d="M208.1,157c0-0.2,0-0.4,0-0.6c0-1.3-0.4-2.7-1.2-4.4c-0.9-1.8-1.5-2.9-1.6-3.2c-0.5-1.2-0.8-2.3-0.8-3.2
		c0-1.4,0.5-2.7,1.4-3.9c1-1.3,2.3-2,3.8-2c1.3,0,2.3,0.4,3.1,1.3c0.5,0.6,0.9,1.4,1.1,2.4c0.2,0.8,0.2,1.3,0.1,1.3
		c-0.4-0.1-0.9-0.1-1.4-0.1c-0.4,0-0.9,0-1.4,0.1c0.1-0.6,0.2-1.2,0.2-1.7c0-0.3,0-0.5-0.1-0.8c-0.3-1.2-0.9-1.7-1.8-1.7
		c-0.7,0-1.2,0.4-1.8,1.2c-0.5,0.8-0.8,1.7-0.8,2.6c0,1.2,0.3,2.7,0.9,4.6c0.3,1.1,0.6,2.7,1,4.6c0.1,0.9,0.1,1.8,0,2.7
		c0.3-0.2,0.5-0.5,0.8-0.8c0.6-0.7,1-1.5,1.2-2.4c0.1-0.6,0.2-1.3,0.2-2.1c0-0.6,0-1.2-0.1-1.7c0.4,0.1,0.8,0.1,1.2,0.1
		c0.4,0,0.8,0,1.3-0.1c0,0.5-0.1,1-0.2,1.5c-0.2,1.1-0.6,2-1,2.8c-0.8,1.3-2.1,2.5-3.8,3.6H208.1z"/>
	<path d="M225,139.9c-0.3,0.9-0.7,1.9-1.3,2.9c-0.3-0.4-0.7-1.2-1.3-2.3H221c-0.1,0.4-0.2,0.9-0.2,1.4l-0.1,5.5l0.1,6.4
		c0,0.3,0.1,0.8,0.2,1.3c0.1,0.6,0.3,1,0.4,1.2c-0.8-0.1-1.4-0.1-1.8-0.1c-0.4,0-0.9,0-1.7,0.1c0.1-0.2,0.3-0.6,0.4-1.3
		c0.1-0.6,0.2-1,0.2-1.3l0.1-6.4l-0.1-5.5c0-0.6-0.1-1-0.2-1.4h-1.5c-0.3,0.6-0.7,1.4-1.3,2.3c-0.6-1-1-2-1.3-2.9H225z"/>
	<path d="M233.7,156.5c-0.1,0-0.6,0-1.4-0.1c-0.8,0-1.6-0.1-2.4-0.1c-1.4,0-3,0-4.7,0.1c0.3-0.6,0.5-1.3,0.5-2.2l0.1-5.5
		c-0.1-3.1,0-4.9,0.1-5.5c0.4-2.3,1.8-3.5,4-3.5c1,0,1.8,0.2,2.4,0.6c0.8,0.6,1.2,1.4,1.3,2.5c0,0.7-0.2,1.4-0.7,2
		c-0.5,0.6-1,0.9-1.6,0.9c-0.7,0-1.4-0.3-1.9-1c0,0.1-0.2,0.3-0.7,0.7c0.7,0.5,1.4,0.9,2.4,1.3c0.9,0.4,1.7,0.6,2.3,0.7
		c-0.1,0.3-0.1,1-0.1,2.1c0,0.8,0,1.9,0.1,3.1c0,1.2,0.1,1.7,0.1,1.6C233.4,155.1,233.5,155.8,233.7,156.5z M231.7,142.9
		c0-0.6-0.1-1.1-0.4-1.5c-0.4-0.5-0.8-0.8-1.4-0.8c-0.5,0-0.9,0.3-1.3,0.8c-0.4,0.5-0.6,1.2-0.6,1.9v2.2c0.3-0.3,0.8-0.8,1.3-1.5
		c0.5,0.5,1,0.8,1.4,0.8c0.2,0,0.4-0.2,0.7-0.6C231.6,143.7,231.7,143.3,231.7,142.9z M231.1,147.9c-1.1-0.5-2.2-1.1-3.1-1.8v8.2
		c0,0.7,0.1,1.2,0.2,1.5h1.6h1.1c0.1-0.5,0.2-0.9,0.2-1.4V147.9z"/>
	<path d="M247.5,148.5c0,2.2-0.5,4.1-1.4,5.6c-1.1,1.8-2.6,2.7-4.4,2.8c-2,0.1-3.5-0.8-4.8-2.7c-1.1-1.7-1.6-3.7-1.5-6
		c0.1-2.2,0.7-4.2,1.8-5.9c1.2-1.9,2.8-2.7,4.7-2.6c1.8,0.1,3.3,1.1,4.3,3C247,144.4,247.5,146.3,247.5,148.5z M244.4,148.4
		c0-4.9-0.9-7.4-2.7-7.6c-2-0.2-3.1,2.2-3.2,7.3c0,2.2,0.1,4,0.6,5.4c0.5,1.8,1.4,2.6,2.5,2.5C243.5,156,244.4,153.4,244.4,148.4z"
		/>
	<path d="M259.3,157c0-0.2,0-0.4,0-0.6c0-1.3-0.4-2.7-1.2-4.4c-0.9-1.8-1.5-2.9-1.6-3.2c-0.5-1.2-0.8-2.3-0.8-3.2
		c0-1.4,0.5-2.7,1.4-3.9c1-1.3,2.3-2,3.8-2c1.3,0,2.3,0.4,3.1,1.3c0.5,0.6,0.9,1.4,1.1,2.4c0.2,0.8,0.2,1.3,0.1,1.3
		c-0.4-0.1-0.9-0.1-1.4-0.1c-0.4,0-0.9,0-1.4,0.1c0.1-0.6,0.2-1.2,0.2-1.7c0-0.3,0-0.5-0.1-0.8c-0.3-1.2-0.9-1.7-1.8-1.7
		c-0.7,0-1.2,0.4-1.8,1.2c-0.5,0.8-0.8,1.7-0.8,2.6c0,1.2,0.3,2.7,0.9,4.6c0.3,1.1,0.6,2.7,1,4.6c0.1,0.9,0.1,1.8,0,2.7
		c0.3-0.2,0.5-0.5,0.8-0.8c0.6-0.7,1-1.5,1.2-2.4c0.1-0.6,0.2-1.3,0.2-2.1c0-0.6,0-1.2-0.1-1.7c0.4,0.1,0.8,0.1,1.2,0.1
		c0.4,0,0.8,0,1.3-0.1c0,0.5-0.1,1-0.2,1.5c-0.2,1.1-0.6,2-1,2.8c-0.8,1.3-2.1,2.5-3.8,3.6H259.3z"/>
	<path d="M274.7,143c0,0.7-0.2,1.4-0.7,1.9c-0.5,0.5-1,0.8-1.6,0.8c-0.5,0-0.8-0.1-1.1-0.4c-0.1-0.1-0.3-0.3-0.6-0.7
		c-0.3,0.4-0.8,0.9-1.5,1.6c-0.1,2.1-0.1,3.3-0.1,3.7c0-0.1,0,1.4,0.1,4.7c0,0.4,0.2,1.1,0.6,1.9c-0.7-0.1-1.3-0.1-1.8-0.1
		c-0.4,0-0.9,0-1.5,0.1c0.2-0.6,0.4-1.2,0.4-1.9c0.1-1.2,0.1-3.1,0.1-5.8c0-3.4,0-5.2,0-5.4c0-1,0.4-1.8,1.3-2.5c0.8-0.7,1.8-1,3-1
		c0.9,0,1.7,0.2,2.3,0.6C274.3,141,274.6,141.8,274.7,143z M272.8,142.9c0-0.6-0.1-1.1-0.4-1.5c-0.4-0.5-0.8-0.8-1.4-0.8
		c-0.5,0-0.9,0.3-1.3,0.8c-0.4,0.5-0.6,1.2-0.6,1.9v2.2l1.6-1.7c0.5,0.5,0.9,0.8,1.2,0.8c0.2,0,0.4-0.2,0.7-0.5
		C272.7,143.7,272.8,143.3,272.8,142.9z"/>
	<path d="M284.1,156.5c-0.1,0-0.7,0-1.6-0.1s-1.8-0.1-2.5-0.1c-1.4,0-3,0.1-4.7,0.2c0.3-0.6,0.5-1.3,0.5-2.2l0.1-5.5v-6.4
		c0-1.1-0.2-1.9-0.6-2.5c2.9,0,5.7,0,8.4,0c-0.3,0.9-0.7,1.9-1.3,2.9c-0.3-0.4-0.7-1.1-1.3-2.3h-2.8c-0.1,0.5-0.1,1.1-0.2,1.8
		c-0.1,1.5-0.1,2.5,0,2.9c0.9,0.7,1.7,1.2,2.4,1.5c0.9,0.4,1.9,0.5,3.2,0.6c-0.1,0.4-0.1,1.1-0.1,2.3c0,0.8,0,1.8,0.1,3
		c0,1.2,0.1,1.7,0.1,1.5C283.8,154.9,283.9,155.6,284.1,156.5z M278.2,154.3c0,0.4,0.1,0.9,0.3,1.5h1.5h1.4c0.1-0.5,0.2-1,0.2-1.4
		v-6.1c-0.8-0.1-1.5-0.3-2-0.5c-0.2-0.1-0.7-0.4-1.4-0.9L278.2,154.3z"/>
	<path d="M288.7,157c0-0.2,0-0.4,0-0.6c0-1.3-0.4-2.7-1.2-4.4c-0.9-1.8-1.5-2.9-1.6-3.2c-0.5-1.2-0.8-2.3-0.8-3.2
		c0-1.4,0.5-2.7,1.4-3.9c1-1.3,2.3-2,3.8-2c1.3,0,2.3,0.4,3.1,1.3c0.5,0.6,0.9,1.4,1.1,2.4c0.2,0.8,0.2,1.3,0.1,1.3
		c-0.4-0.1-0.9-0.1-1.4-0.1c-0.4,0-0.9,0-1.4,0.1c0.1-0.6,0.2-1.2,0.2-1.7c0-0.3,0-0.5-0.1-0.8c-0.3-1.2-0.9-1.7-1.8-1.7
		c-0.7,0-1.2,0.4-1.8,1.2c-0.5,0.8-0.8,1.7-0.8,2.6c0,1.2,0.3,2.7,0.9,4.6c0.3,1.1,0.6,2.7,1,4.6c0.1,0.9,0.1,1.8,0,2.7
		c0.3-0.2,0.5-0.5,0.8-0.8c0.6-0.7,1-1.5,1.2-2.4c0.1-0.6,0.2-1.3,0.2-2.1c0-0.6,0-1.2-0.1-1.7c0.4,0.1,0.8,0.1,1.2,0.1
		c0.4,0,0.8,0,1.3-0.1c0,0.5-0.1,1-0.2,1.5c-0.2,1.1-0.6,2-1,2.8c-0.8,1.3-2.1,2.5-3.8,3.6H288.7z"/>
	<path d="M301.2,143c0.2-0.7,0.1-1.7-0.1-3c1,0.1,1.5,0.1,1.4,0.1c0.4,0,1,0,1.5-0.1c0,0.7-0.1,1.5-0.3,2.6
		c-0.2,0.6-0.3,1.1-0.5,1.3c-0.3,0.5-0.8,1.1-1.6,1.6c-0.6,0.4-1.4,0.7-2.3,0.9c2.2,0.4,3.7,1.6,4.4,3.5c0.2,0.7,0.4,1.6,0.6,2.8
		c0.1,0.8,0.1,1.6,0.2,2.3c0,0.3,0.1,0.8,0.3,1.4c-0.3-0.1-0.9-0.1-1.7-0.2c-0.4,0-1,0-1.6,0.2c0.2-0.5,0.3-1.1,0.3-1.8
		c0,0,0,0.1,0,0.1c0.1-3.2-0.4-5.4-1.2-6.4c-0.7-0.8-1.5-1.3-2.3-1.3v0.6l0.1,6.3c0,0.3,0.1,0.8,0.2,1.3c0.1,0.6,0.3,1,0.4,1.2
		c-0.8-0.1-1.4-0.1-1.8-0.1s-0.9,0-1.7,0.1c0.1-0.2,0.3-0.6,0.4-1.3c0.1-0.6,0.2-1,0.2-1.3l0.1-6.3c0,0.4,0-1.5-0.1-5.5
		c0-0.8-0.2-1.5-0.5-2.1c0.3,0,0.9,0.1,1.6,0.1c0.4,0,0.9,0,1.6-0.1c-0.3,0.6-0.5,1.3-0.5,2.1l-0.1,4.1c0.5-0.3,0.9-0.6,1.3-1
		C300.5,144.4,301,143.7,301.2,143z"/>
	<path d="M318.4,148.5c0,2.2-0.5,4.1-1.4,5.6c-1.1,1.8-2.6,2.7-4.4,2.8c-2,0.1-3.5-0.8-4.8-2.7c-1.1-1.7-1.6-3.7-1.5-6
		c0.1-2.2,0.7-4.2,1.8-5.9c1.2-1.9,2.8-2.7,4.7-2.6c1.8,0.1,3.3,1.1,4.3,3C317.9,144.4,318.4,146.3,318.4,148.5z M315.3,148.4
		c0-4.9-0.9-7.4-2.7-7.6c-2-0.2-3.1,2.2-3.2,7.3c0,2.2,0.1,4,0.6,5.4c0.5,1.8,1.4,2.6,2.5,2.5C314.4,156,315.3,153.4,315.3,148.4z"
		/>
	<path d="M328.1,139.9c-0.3,0.9-0.7,1.9-1.3,2.9c-0.3-0.4-0.7-1.2-1.3-2.3H323c-0.1,0.4-0.2,0.9-0.2,1.4l-0.1,5.5l0.1,6.4
		c0,0.3,0.1,0.8,0.2,1.3c0.1,0.6,0.3,1,0.4,1.2c-0.8-0.1-1.4-0.1-1.8-0.1s-0.9,0-1.7,0.1c0.1-0.2,0.3-0.6,0.4-1.3
		c0.1-0.6,0.2-1,0.2-1.3l0.1-6.4l-0.1-5.5c0-0.8-0.2-1.5-0.5-2.1c1.2,0,1.9,0,2.3,0H328.1z"/>
	<path d="M338.2,157c0-0.2,0-0.4,0-0.6c0-1.3-0.4-2.7-1.2-4.4c-0.9-1.8-1.5-2.9-1.6-3.2c-0.5-1.2-0.8-2.3-0.8-3.2
		c0-1.4,0.5-2.7,1.4-3.9c1-1.3,2.3-2,3.8-2c1.3,0,2.3,0.4,3.1,1.3c0.5,0.6,0.9,1.4,1.1,2.4c0.2,0.8,0.2,1.3,0.1,1.3
		c-0.4-0.1-0.9-0.1-1.4-0.1c-0.4,0-0.9,0-1.4,0.1c0.1-0.6,0.2-1.2,0.2-1.7c0-0.3,0-0.5-0.1-0.8c-0.3-1.2-0.9-1.7-1.8-1.7
		c-0.7,0-1.2,0.4-1.8,1.2c-0.5,0.8-0.8,1.7-0.8,2.6c0,1.2,0.3,2.7,0.9,4.6c0.3,1.1,0.6,2.7,1,4.6c0.1,0.9,0.1,1.8,0,2.7
		c0.3-0.2,0.5-0.5,0.8-0.8c0.6-0.7,1-1.5,1.2-2.4c0.1-0.6,0.2-1.3,0.2-2.1c0-0.6,0-1.2-0.1-1.7c0.4,0.1,0.8,0.1,1.2,0.1
		c0.4,0,0.8,0,1.3-0.1c0,0.5-0.1,1-0.2,1.5c-0.2,1.1-0.6,2-1,2.8c-0.8,1.3-2.1,2.5-3.8,3.6H338.2z"/>
	<path d="M355.2,139.9c-0.3,0.9-0.7,1.9-1.3,2.9c-0.3-0.4-0.7-1.2-1.3-2.3h-1.5c-0.1,0.4-0.2,0.9-0.2,1.4l-0.1,5.5l0.1,6.4
		c0,0.3,0.1,0.8,0.2,1.3c0.1,0.6,0.3,1,0.4,1.2c-0.8-0.1-1.4-0.1-1.8-0.1c-0.4,0-0.9,0-1.7,0.1c0.1-0.2,0.3-0.6,0.4-1.3
		c0.1-0.6,0.2-1,0.2-1.3l0.1-6.4l-0.1-5.5c0-0.6-0.1-1-0.2-1.4h-1.5c-0.3,0.6-0.7,1.4-1.3,2.3c-0.6-1-1-2-1.3-2.9H355.2z"/>
	<path d="M358.4,142v5.6c1.2-1,2.5-2.2,4-3.7V142c0-0.8-0.2-1.5-0.5-2.1c0.3,0,0.9,0.1,1.6,0.2c0.4,0,0.9-0.1,1.6-0.2
		c-0.3,0.6-0.5,1.3-0.5,2.1l-0.1,5.5l0.1,6.4c0,0.3,0.1,0.8,0.2,1.3c0.1,0.6,0.3,1,0.4,1.2c-0.8-0.1-1.4-0.1-1.8-0.1
		c-0.4,0-0.9,0-1.7,0.1c0.1-0.2,0.3-0.6,0.4-1.3c0.1-0.6,0.2-1,0.2-1.3l0.1-6.3l-0.1-2.3c-1.5,1.2-2.8,2.5-4,3.7v4.9
		c0,0.3,0.1,0.8,0.2,1.3c0.1,0.6,0.3,1,0.5,1.2c-0.8-0.1-1.4-0.1-1.8-0.1c-0.4,0-0.9,0-1.7,0.1c0.1-0.2,0.3-0.6,0.4-1.3
		c0.1-0.6,0.2-1,0.2-1.3l0.1-6.4c0-1.1,0-3-0.1-5.5c0-0.8-0.2-1.5-0.5-2.1c0.3,0,0.8,0.1,1.6,0.2c0.4,0,0.9-0.1,1.6-0.2
		C358.5,140.6,358.4,141.3,358.4,142z"/>
	<path d="M377.6,156.5c-0.8-0.1-1.4-0.1-1.8-0.1c-0.4,0-1,0-1.8,0.1c0.1-0.2,0.2-0.6,0.2-1.2c0-0.6,0-1-0.1-1.3l-1.5-9
		c-0.8,1-1.5,2.4-2,4.3c-0.5,1.7-0.7,3.5-0.6,5.6c0,0.2,0.1,0.5,0.2,0.9c0.2,0.4,0.3,0.7,0.3,0.8c-0.8-0.1-1.4-0.2-1.8-0.2
		c-0.2,0-0.5,0-1,0.1s-0.7,0.1-0.9,0.1c0.2-0.6,0.4-1.1,0.5-1.7c0.2-1.9,0.7-3.8,1.3-5.5c0.7-2,2-3.7,3.7-5.1L372,142
		c-0.1-0.8-0.4-1.5-0.8-2.1c0.7,0.1,1.2,0.2,1.6,0.2c0.4,0,1-0.1,1.7-0.2c-0.2,0.6-0.2,1.3-0.1,2.1l0.9,5.5l1.3,6.3
		c0.1,0.3,0.2,0.8,0.4,1.3C377.3,155.9,377.5,156.3,377.6,156.5z"/>
	<path d="M386.5,156.5c-0.6-0.1-1.2-0.2-1.6-0.2c-0.4,0-0.9,0.1-1.6,0.2c0.1-0.2,0.3-0.7,0.5-1.3c0.1-0.4,0.1-1.5,0.2-3.2
		c0-0.6,0-2.2,0-4.8c-0.1,0.2-0.6,0.8-1.3,1.5c-0.5,0.6-1.2,1.1-2.1,1.7c0.6,0.2,1,0.7,1,1.4c0,0.3-0.1,0.6-0.4,0.8
		c-0.2,0.2-0.5,0.4-0.8,0.4c0,0.1,0,0.3,0.2,0.8c0.1,0.5,0.3,0.8,0.4,1.1c0.1,0.3,0.4,0.8,0.6,1.6c-0.7-0.1-1.2-0.2-1.6-0.2
		c-0.4,0-0.9,0.1-1.5,0.2l0.9-1.7c0.1-0.4,0.3-1,0.5-1.8c-0.6-0.1-1-0.6-1-1.2c0-0.7,0.3-1.1,1-1.3c-0.5-0.7-0.8-1.4-0.8-2.3
		c-0.1-0.8,0.2-1.7,0.6-2.7c0.3-0.4,0.6-0.8,1-1.3c0.4-0.4,1-0.9,1.5-1.3c0.4-0.3,0.7-0.5,1-0.7c0.6-0.6,0.9-1,1-1.2
		c-0.5,0-1.4,0-2.5,0c-0.7,0-1.3,0.3-1.9,0.8l0.1-1.7c1.5,0.1,2.5,0.1,3.3,0.1c1.2,0,2.3,0,3.4-0.1c0,0.5-0.1,1.3-0.2,2.3
		c-0.1,3.9-0.2,5.9-0.2,6l0.1,6.9C386.2,155.6,386.3,156.1,386.5,156.5z M382.7,143.2c-0.8,0.6-1.3,1.3-1.5,2
		c-0.1,0.5-0.2,1-0.2,1.5c0,0.6,0.1,1.2,0.4,1.8c0.4-0.3,1-0.9,1.7-1.8c0.3-0.4,0.5-1.1,0.5-1.8l0.2-2.3
		C383.6,142.8,383.2,143,382.7,143.2z"/>
	<path d="M398,142v5.6c1.2-1,2.5-2.2,4-3.7V142c0-0.8-0.2-1.5-0.5-2.1c0.3,0,0.9,0.1,1.6,0.2c0.4,0,0.9-0.1,1.6-0.2
		c-0.3,0.6-0.5,1.3-0.5,2.1l-0.1,5.5l0.1,6.4c0,0.3,0.1,0.8,0.2,1.3c0.1,0.6,0.3,1,0.4,1.2c-0.8-0.1-1.4-0.1-1.8-0.1
		c-0.4,0-0.9,0-1.7,0.1c0.1-0.2,0.3-0.6,0.4-1.3c0.1-0.6,0.2-1,0.2-1.3l0.1-6.3l-0.1-2.3c-1.5,1.2-2.8,2.5-4,3.7v4.9
		c0,0.3,0.1,0.8,0.2,1.3c0.1,0.6,0.3,1,0.5,1.2c-0.8-0.1-1.4-0.1-1.8-0.1c-0.4,0-0.9,0-1.7,0.1c0.1-0.2,0.3-0.6,0.4-1.3
		c0.1-0.6,0.2-1,0.2-1.3l0.1-6.4c0-1.1,0-3-0.1-5.5c0-0.8-0.2-1.5-0.5-2.1c0.3,0,0.8,0.1,1.6,0.2c0.4,0,0.9-0.1,1.6-0.2
		C398.2,140.6,398,141.3,398,142z"/>
	<path d="M416.7,142v5.6c1.2-1,2.5-2.2,4-3.7V142c0-0.8-0.2-1.5-0.5-2.1c0.3,0,0.9,0.1,1.6,0.2c0.4,0,0.9-0.1,1.6-0.2
		c-0.3,0.6-0.5,1.3-0.5,2.1l-0.1,5.5l0.1,6.4c0,0.3,0.1,0.8,0.2,1.3c0.1,0.6,0.3,1,0.4,1.2c-0.8-0.1-1.4-0.1-1.8-0.1
		c-0.4,0-0.9,0-1.7,0.1c0.1-0.2,0.3-0.6,0.4-1.3c0.1-0.6,0.2-1,0.2-1.3l0.1-6.3l-0.1-2.3c-1.5,1.2-2.8,2.5-4,3.7v4.9
		c0,0.3,0.1,0.8,0.2,1.3c0.1,0.6,0.3,1,0.5,1.2c-0.8-0.1-1.4-0.1-1.8-0.1c-0.4,0-0.9,0-1.7,0.1c0.1-0.2,0.3-0.6,0.4-1.3
		c0.1-0.6,0.2-1,0.2-1.3l0.1-6.4c0-1.1,0-3-0.1-5.5c0-0.8-0.2-1.5-0.5-2.1c0.3,0,0.8,0.1,1.6,0.2c0.4,0,0.9-0.1,1.6-0.2
		C416.8,140.6,416.7,141.3,416.7,142z"/>
	<path d="M428.8,157c0-0.2,0-0.4,0-0.6c0-1.3-0.4-2.7-1.2-4.4c-0.9-1.8-1.5-2.9-1.6-3.2c-0.5-1.2-0.8-2.3-0.8-3.2
		c0-1.4,0.5-2.7,1.4-3.9c1-1.3,2.3-2,3.8-2c1.3,0,2.3,0.4,3.1,1.3c0.5,0.6,0.9,1.4,1.1,2.4c0.2,0.8,0.2,1.3,0.1,1.3
		c-0.4-0.1-0.9-0.1-1.4-0.1c-0.4,0-0.9,0-1.4,0.1c0.1-0.6,0.2-1.2,0.2-1.7c0-0.3,0-0.5-0.1-0.8c-0.3-1.2-0.9-1.7-1.8-1.7
		c-0.7,0-1.2,0.4-1.8,1.2c-0.5,0.8-0.8,1.7-0.8,2.6c0,1.2,0.3,2.7,0.9,4.6c0.3,1.1,0.6,2.7,1,4.6c0.1,0.9,0.1,1.8,0,2.7
		c0.3-0.2,0.5-0.5,0.8-0.8c0.6-0.7,1-1.5,1.2-2.4c0.1-0.6,0.2-1.3,0.2-2.1c0-0.6,0-1.2-0.1-1.7c0.4,0.1,0.8,0.1,1.2,0.1
		c0.4,0,0.8,0,1.3-0.1c0,0.5-0.1,1-0.2,1.5c-0.2,1.1-0.6,2-1,2.8c-0.8,1.3-2.1,2.5-3.8,3.6H428.8z"/>
	<path d="M441.3,143c0.2-0.7,0.1-1.7-0.1-3c1,0.1,1.5,0.1,1.4,0.1c0.4,0,1,0,1.5-0.1c0,0.7-0.1,1.5-0.3,2.6
		c-0.2,0.6-0.3,1.1-0.5,1.3c-0.3,0.5-0.8,1.1-1.6,1.6c-0.6,0.4-1.4,0.7-2.3,0.9c2.2,0.4,3.7,1.6,4.4,3.5c0.2,0.7,0.4,1.6,0.6,2.8
		c0.1,0.8,0.1,1.6,0.2,2.3c0,0.3,0.1,0.8,0.3,1.4c-0.3-0.1-0.9-0.1-1.7-0.2c-0.4,0-1,0-1.6,0.2c0.2-0.5,0.3-1.1,0.3-1.8
		c0,0,0,0.1,0,0.1c0.1-3.2-0.4-5.4-1.2-6.4c-0.7-0.8-1.5-1.3-2.3-1.3v0.6l0.1,6.3c0,0.3,0.1,0.8,0.2,1.3c0.1,0.6,0.3,1,0.4,1.2
		c-0.8-0.1-1.4-0.1-1.8-0.1s-0.9,0-1.7,0.1c0.1-0.2,0.3-0.6,0.4-1.3c0.1-0.6,0.2-1,0.2-1.3l0.1-6.3c0,0.4,0-1.5-0.1-5.5
		c0-0.8-0.2-1.5-0.5-2.1c0.3,0,0.9,0.1,1.6,0.1c0.4,0,0.9,0,1.6-0.1c-0.3,0.6-0.5,1.3-0.5,2.1l-0.1,4.1c0.5-0.3,0.9-0.6,1.3-1
		C440.6,144.4,441.1,143.7,441.3,143z"/>
	<path d="M458.1,142.1c-0.3,0.5-0.6,1-0.7,1.5c-0.3-0.7-0.7-1.1-1.3-1.1c-0.5,0-1,0.3-1.4,0.9c-0.4,0.5-0.6,1.1-0.8,1.8
		c-0.4,1.7-0.8,3.8-1.1,6.2c-0.2,1.7-0.4,4.3-0.8,7.7c-0.1,0.5-0.1,1.5-0.3,2.9c-0.3,0.1-0.6,0.1-0.8,0.1c-0.1,0-0.2-0.1-0.3-0.2
		c-0.1-0.1-0.1-0.2-0.1-0.4c0.2-1.1,0.5-2.8,0.8-5.2h-2.8c0.1-0.5,0.1-1.1,0-1.8c-0.5-4.2-1.3-8.4-2.6-12.6
		c-0.2-0.7-0.5-1.4-0.9-2.1c0.5,0.1,1.1,0.2,1.6,0.2c0.6,0,1.2-0.1,1.8-0.2l0.4,1.5c0.3,1.5,0.6,2.8,0.8,4.1
		c0.6,3.2,0.9,5.7,1.1,7.6c0.1,0.6,0.1,1.5,0.2,2.6l0.6,0c0.2-2,0.5-5,1-8.9c0.1-1.2,0.2-1.9,0.3-2.2c0.1-0.7,0.4-1.5,0.7-2.4
		c0.2-0.7,0.7-1.3,1.2-1.8c0.7-0.6,1.4-0.8,2.3-0.8c0.9,0,1.7,0.4,2.4,1.3C458.9,141.2,458.5,141.6,458.1,142.1z"/>
	<path d="M461.9,157c0-0.2,0-0.4,0-0.6c0-1.3-0.4-2.7-1.2-4.4c-0.9-1.8-1.5-2.9-1.6-3.2c-0.5-1.2-0.8-2.3-0.8-3.2
		c0-1.4,0.5-2.7,1.4-3.9c1-1.3,2.3-2,3.8-2c1.3,0,2.3,0.4,3.1,1.3c0.5,0.6,0.9,1.4,1.1,2.4c0.2,0.8,0.2,1.3,0.1,1.3
		c-0.4-0.1-0.9-0.1-1.4-0.1c-0.4,0-0.9,0-1.4,0.1c0.1-0.6,0.2-1.2,0.2-1.7c0-0.3,0-0.5-0.1-0.8c-0.3-1.2-0.9-1.7-1.8-1.7
		c-0.7,0-1.2,0.4-1.8,1.2c-0.5,0.8-0.8,1.7-0.8,2.6c0,1.2,0.3,2.7,0.9,4.6c0.3,1.1,0.6,2.7,1,4.6c0.1,0.9,0.1,1.8,0,2.7
		c0.3-0.2,0.5-0.5,0.8-0.8c0.6-0.7,1-1.5,1.2-2.4c0.1-0.6,0.2-1.3,0.2-2.1c0-0.6,0-1.2-0.1-1.7c0.4,0.1,0.8,0.1,1.2,0.1
		c0.4,0,0.8,0,1.3-0.1c0,0.5-0.1,1-0.2,1.5c-0.2,1.1-0.6,2-1,2.8c-0.8,1.3-2.1,2.5-3.8,3.6H461.9z"/>
	<path d="M478.9,139.9c-0.3,0.9-0.7,1.9-1.3,2.9c-0.3-0.4-0.7-1.2-1.3-2.3h-1.5c-0.1,0.4-0.2,0.9-0.2,1.4l-0.1,5.5l0.1,6.4
		c0,0.3,0.1,0.8,0.2,1.3c0.1,0.6,0.3,1,0.4,1.2c-0.8-0.1-1.4-0.1-1.8-0.1c-0.4,0-0.9,0-1.7,0.1c0.1-0.2,0.3-0.6,0.4-1.3
		c0.1-0.6,0.2-1,0.2-1.3l0.1-6.4l-0.1-5.5c0-0.6-0.1-1-0.2-1.4h-1.5c-0.3,0.6-0.7,1.4-1.3,2.3c-0.6-1-1-2-1.3-2.9H478.9z"/>
	<path d="M487.5,156.5c-0.1,0-0.6,0-1.4-0.1c-0.8,0-1.6-0.1-2.4-0.1c-1.4,0-3,0-4.7,0.1c0.3-0.6,0.5-1.3,0.5-2.2l0.1-5.5
		c-0.1-3.1,0-4.9,0.1-5.5c0.4-2.3,1.8-3.5,4-3.5c1,0,1.8,0.2,2.4,0.6c0.8,0.6,1.2,1.4,1.3,2.5c0,0.7-0.2,1.4-0.7,2
		c-0.5,0.6-1,0.9-1.6,0.9c-0.7,0-1.4-0.3-1.9-1c0,0.1-0.2,0.3-0.7,0.7c0.7,0.5,1.4,0.9,2.4,1.3c0.9,0.4,1.7,0.6,2.3,0.7
		c-0.1,0.3-0.1,1-0.1,2.1c0,0.8,0,1.9,0.1,3.1c0,1.2,0.1,1.7,0.1,1.6C487.3,155.1,487.4,155.8,487.5,156.5z M485.6,142.9
		c0-0.6-0.1-1.1-0.4-1.5c-0.4-0.5-0.8-0.8-1.4-0.8c-0.5,0-0.9,0.3-1.3,0.8c-0.4,0.5-0.6,1.2-0.6,1.9v2.2c0.3-0.3,0.8-0.8,1.3-1.5
		c0.5,0.5,1,0.8,1.4,0.8c0.2,0,0.4-0.2,0.7-0.6C485.5,143.7,485.6,143.3,485.6,142.9z M484.9,147.9c-1.1-0.5-2.2-1.1-3.1-1.8v8.2
		c0,0.7,0.1,1.2,0.2,1.5h1.6h1.1c0.1-0.5,0.2-0.9,0.2-1.4V147.9z"/>
	<path d="M496.7,156.5c-0.6-0.1-1.2-0.2-1.6-0.2c-0.4,0-0.9,0.1-1.6,0.2c0.1-0.2,0.3-0.7,0.5-1.3c0.1-0.4,0.1-1.5,0.2-3.2
		c0-0.6,0-2.2,0-4.8c-0.1,0.2-0.6,0.8-1.3,1.5c-0.5,0.6-1.2,1.1-2.1,1.7c0.6,0.2,1,0.7,1,1.4c0,0.3-0.1,0.6-0.4,0.8
		c-0.2,0.2-0.5,0.4-0.8,0.4c0,0.1,0,0.3,0.2,0.8c0.1,0.5,0.3,0.8,0.4,1.1c0.1,0.3,0.4,0.8,0.6,1.6c-0.7-0.1-1.2-0.2-1.6-0.2
		c-0.4,0-0.9,0.1-1.5,0.2l0.9-1.7c0.1-0.4,0.3-1,0.5-1.8c-0.6-0.1-1-0.6-1-1.2c0-0.7,0.3-1.1,1-1.3c-0.5-0.7-0.8-1.4-0.8-2.3
		c-0.1-0.8,0.2-1.7,0.6-2.7c0.3-0.4,0.6-0.8,1-1.3c0.4-0.4,1-0.9,1.5-1.3c0.4-0.3,0.7-0.5,1-0.7c0.6-0.6,0.9-1,1-1.2
		c-0.5,0-1.4,0-2.5,0c-0.7,0-1.3,0.3-1.9,0.8l0.1-1.7c1.5,0.1,2.5,0.1,3.3,0.1c1.2,0,2.3,0,3.4-0.1c0,0.5-0.1,1.3-0.2,2.3
		c-0.1,3.9-0.2,5.9-0.2,6l0.1,6.9C496.4,155.6,496.5,156.1,496.7,156.5z M493,143.2c-0.8,0.6-1.3,1.3-1.5,2c-0.1,0.5-0.2,1-0.2,1.5
		c0,0.6,0.1,1.2,0.4,1.8c0.4-0.3,1-0.9,1.7-1.8c0.3-0.4,0.5-1.1,0.5-1.8l0.2-2.3C493.8,142.8,493.4,143,493,143.2z"/>
</g>
<path fill="#FFFFFF" stroke="#000000" stroke-width="0.5" stroke-miterlimit="10" d="M82.7,6.9c0.9-0.4,1.9-0.4,2.8-0.1
	c0.9,0.3,2-0.1,2.9,0.6c1.4,1,2.9,1.8,4.1,3.1c0.5,0.5,1.3,0.7,1.6,1.5c0.3,1,1.2,1.5,1.5,2.4c0.3,0.9,0.9,1.5,1.3,2.3
	c0.1,0.7,0,1.3,0,2c-1,0.1-2,0.4-2.9-0.3c-1.2-1.7-2-3.8-3.5-5.2c-0.6-0.8-1.6-1-2.4-1.4c-1.2-0.7-2.4-1.2-3.7-1.2
	c-1.8,0-3.6,0.1-5.2,1.1c-0.6,0.3-1.3,0.9-1.9,0.3c-0.9-0.7-1.9-1.3-2.9-1.7c0.4-1.1,1.4-1.4,2.2-1.8c0.8-0.3,1.5-0.9,2.3-1
	C80.2,7.3,81.5,7.4,82.7,6.9z"/>
<path fill="#FFFFFF" stroke="#000000" stroke-width="0.5" stroke-miterlimit="10" d="M29.9,7.6C31,7.7,32,7.3,33.1,7.5
	c1.5,0.4,3.1,0.2,4.7,0.3c2.4,0.5,5,1.1,7,2.7c-0.7,0.2-1.4,0.4-2,0.6c-0.9,0.4-1.4,1.2-2.3,1.6c-0.8,0.3-1.6,0.5-2.4,0.8
	c-1.2-1.2-3-1-4.6-1.2c-2.3,0.1-4.7-0.3-6.9,0.6c-1.4,0.6-2.6,1.5-4,2.2c-1.5,0.6-2.3,2.2-3.4,3.3c-1,1-2.1,2-3.1,3
	c-1,1-1.4,2.3-2.2,3.5c-0.6,0.8,0,1.9-0.5,2.7c-0.4,0.8-0.6,1.6-0.6,2.5c0,1.8-0.6,3.6-0.5,5.4c0.1,0.8,0.6,1.4,0.7,2.2
	c0.1,0.9,0,1.8,0.3,2.7c0.3,1.1,1,2,1.1,3.1c-0.2,1.7-0.8,3.4-1.2,5c-0.1,0.5-0.4,1-0.8,1.5c-0.7-1.4-1.4-2.8-1.6-4.3
	c-1.2-2.4-1.9-5-2.4-7.6C8.4,37.2,9,36,8.5,34.9C7.9,33.5,8,32,8,30.5c0.1-2.4,1.3-4.5,1.5-6.8c0.1-1,0.8-1.7,1.3-2.6
	c0.5-0.8,0.9-1.6,1.3-2.3c0.4-0.9,1.6-1.1,2-2c1.8-3.2,5-5.2,8.2-6.6c1.3-0.5,2.1-1.8,3.5-1.9C27.2,8.2,28.5,7.3,29.9,7.6z"/>
<path fill="#FFFFFF" stroke="#000000" stroke-width="0.5" stroke-miterlimit="10" d="M9.2,9.7c0.2-0.7,0.3-1.5,1-1.8
	c1.1-0.2,2,0.7,2.9,1.3c1,0.7,1.8,1.9,1.6,3.2c0,0.7-0.5,1.2-0.9,1.7c-1.1-0.9-2.4-1.7-3.7-2.3C9.3,11.3,8.9,10.4,9.2,9.7z"/>
<path fill="#FFFFFF" stroke="#000000" stroke-width="0.5" stroke-miterlimit="10" d="M100,16.2c0.1-1,0.3-2,0.6-3
	c0.2,1.4,0.6,2.8,0.9,4.2c0.2,0.9-0.3,1.9,0.1,2.9c0.2,0.8,0.5,1.6,0.6,2.3c-0.6-0.4-1.2-0.8-1.8-1.2c-0.3,0.4-0.7,0.8-1,1.2
	c0.6,1.3,1,2.6,1.2,4.1c-1.5-0.8-2.5-2.4-3.9-3.4c-0.7,0.9-1,2-1.2,3.1c-0.2,0-0.6,0.1-0.8,0.1c-0.8-1-1.1-2.2-1.3-3.4
	c-1.2,0.7-1.5,2.1-2.3,3.1c-0.3-0.9-0.4-1.8-0.5-2.6c0-0.3-0.3-0.5-0.6-0.5c-0.7,0.1-1.4,0.4-2.1,0.5c0.4-0.9,0.8-1.8,1.3-2.6
	c-0.6-1.4-0.7-3-0.4-4.5c1.3,1,2,2.6,3.4,3.4c0.6,0.3,1.1,0.7,1.7,0.9c0.7,0,1.4-0.4,2.1-0.3c0.6,0,1.3,0.3,1.8-0.2
	C98.8,19.2,99.8,17.8,100,16.2z"/>
<path fill="#FFFFFF" stroke="#000000" stroke-width="0.5" stroke-miterlimit="10" d="M51.7,16.5c0.6-0.1,0.8-1,1.5-0.8
	c0.6,0.5,1,1.1,1.6,1.6c0.9,0.8,2,1.2,2.9,2c0.4,0.5,0.7,1.2,0.5,1.8c-0.4,1-1.3,1.6-2.1,2.3c-1.1-1-2-2.1-3.2-2.9
	c-1.4-0.9-2.3-2.3-3.5-3.4C50.1,16.8,50.9,16.7,51.7,16.5z"/>
<path fill="#FFFFFF" stroke="#000000" stroke-width="0.5" stroke-miterlimit="10" d="M19,20.6c0.4-0.4,0.7-0.9,1.2-1.3
	c0.6,0,1,0.4,1.5,0.7c0.8,0.6,1.8,0.9,2.8,1.3c1.6,1.1,3.3,2,5.2,2.8c-0.4,0.4-0.7,0.9-1.1,1.3c-0.7-0.2-1.4-0.5-2.1-0.9
	c-0.8-0.4-1.6-0.7-2.3-1.2c-0.6-0.4-1.3-0.5-1.9-0.8c-0.5-0.2-1-0.5-1.6-0.6C19.9,21.7,19.4,21.1,19,20.6z"/>
<g>
	<path fill="#FFFFFF" stroke="#000000" stroke-width="0.5" stroke-miterlimit="10" d="M61.3,19.2c0.7,0.3,1.4,0.5,1.9,1
		c0,0.3-0.2,0.6-0.3,0.8c-0.6,1-1,2.1-1.7,3.1c-0.3,0.5-0.3,1.1-0.4,1.7c-0.2,1.4-0.7,2.8-1.2,4.1c-0.5,2.2-0.7,4.5-1.1,6.7
		c0,0.4,0.2,0.8,0.2,1.2c0.1,1-0.1,1.9,0,2.9c0.2,1,0.6,1.9,0.9,2.8c0.5,1.9,1.5,3.6,2.7,4.9c-0.3,1.4-0.5,2.8-1,4
		c-1.1-1-1.9-2.5-2.8-3.8c-0.5-0.8-0.7-1.8-1.2-2.6c-0.3-0.5-0.6-1-1-1.4c-1.1-0.9-2.4-0.8-3.5-0.3c-0.8,0.3-1.6,0.5-2.4,0.9
		c-0.4-0.5-0.8-0.9-1.3-0.8c-0.1-0.8-0.4-1.7,0.1-2.3c0.8-0.8,1.8-0.6,2.7-0.4c0.8,0.3,1.6,0,2.4,0.1c-0.1-0.6,0-1.3-0.2-1.8
		c-1-1.3-2.2-2.6-3-4.3c-0.3-0.7-1-1-1.4-1.6c-0.4-0.7-0.7-1.5-1.1-2.2c-0.5-0.7-1.1-1.4-1.6-2.2c-0.4-0.7-1.1-0.8-1.7-1
		c0.4-0.4,0.8-0.6,1.2-0.9c0.4-0.4,0.7-1,1-1.5c0.6,0.7,1.3,1.4,1.9,2.1c0.3,0.4,0.8,0.4,1.2,0.3c0.4,1.3,1.3,2,2,2.9
		c0.5,1,0.9,2.2,1.6,3.1c0.6,0.8,0.9,2.1,1.7,2.4c0.4-1,0.1-2.1,0.3-3.1c0.4-2.2,0.8-4.4,1.5-6.5c0.5-1.3,1.2-2.4,1.6-3.8
		c0.3-1,1-1.8,1.2-2.8C60.7,20.3,61,19.7,61.3,19.2z"/>
	<path fill="#FFFFFF" stroke="#000000" stroke-width="0.5" stroke-miterlimit="10" d="M61.4,28.4c0.2-1,0.7-1.9,1.4-2.7
		c0.8,1,1.6,2.1,2.1,3.3c0.3,0.8,0.8,1.4,1.1,2.2c0.4,1,0.6,2,0.9,3c0.6,1.8,0.6,3.7,1.4,5.4c0.4,0.9,0.5,2,1.3,2.7
		c0.8,0.7,1.4,1.7,2,2.6c0.3,0.4,0.5,0.9,0.7,1.4c-0.8,0.1-1.7,0.5-2.5,0.2c-1-0.3-1.5-1.2-2.3-1.8c-0.5,1.1-0.9,2.3-0.8,3.6
		c0.1,0.9-0.3,1.8-0.4,2.7c-0.2,1-0.6,1.8-1,2.7c-0.3,0.6,0.1,1.2,0.2,1.7c-0.9,0.1-1.8-0.3-2.6-0.6c-0.4-0.1-0.8-0.4-1.1-0.7
		c0.9-1.1,1-2.5,1.5-3.8c0.5-1.1,0.3-2.4,0.5-3.6c0.2-1,0.2-2.1,0.6-3c0.5-1.2,0.2-2.5,0.3-3.8c-1.3,0.5-2.7,1.2-4.1,0.8
		c-0.5-0.1-0.9-0.6-0.6-1c0.6-1,2-1.4,2.4-2.6c0.2-0.8,0.8-1.3,1.2-2c0.1-0.8,0.1-1.5,0.2-2.3c-0.2-0.1-0.4-0.2-0.6-0.3
		c-0.1-0.7,0-1.5-0.5-2C62.2,29.9,61.5,29.3,61.4,28.4z"/>
</g>
<path fill="#FFFFFF" stroke="#000000" stroke-width="0.5" stroke-miterlimit="10" d="M18,54c1-0.5,2-1,2.8-1.9
	c0.5,0.9,1.2,1.8,1.5,2.8c-0.4,0.4-0.8,0.9-1.4,1c-0.4,0.8-1.4,1.2-1.8,2c0.2,1.3,0.1,2.6,0,3.9c1.1,0.4,2.1,1.2,2.6,2.2
	c0.1,1.3-0.1,2.6,0.1,3.9c-0.3,0-0.6,0-0.9-0.1c-0.4-0.3-0.7-0.8-1.2-0.9c-1.1-0.3-1.6-1.3-2.6-1.7c0.2-0.6,0.2-1.3,0.5-1.9
	c0.4-0.8,0.5-1.7,0.6-2.6C17.3,61,16,61.8,15,61c-0.5-0.2-0.8-0.7-1.1-1.2c-0.2-0.5-0.8-0.5-1.2-0.6c0.1-0.3,0.1-0.6,0.3-0.8
	c0.4-0.1,0.9,0.1,1.2-0.2c0.6-0.5,1.2-0.8,1.8-1.1c0,0.3,0,0.6,0,1c0.8,0.1,1.5,0.2,2.3,0C19.1,56.7,17.1,55.3,18,54z"/>
<path fill="#FFFFFF" stroke="#000000" stroke-width="0.5" stroke-miterlimit="10" d="M95.9,64.1c0.5-1.1,1.8-1.4,2.9-1.8
	c1.1,0.1,2.2,0.1,3.3,0.1c-0.8,0.9-2,1.1-2.9,1.8c-0.4,0.6-0.6,1.4-1,2c-0.5,0.8-0.4,1.7-0.7,2.6c-0.4,1.3-0.3,2.6-0.5,4
	c-0.4,2.4-1.1,4.9-0.5,7.4c0.1,0.9-0.1,1.9,0.2,2.7c0.4,1.1,0.1,2.3,0.2,3.5c0.2,1.8-0.4,3.7,0.2,5.5c0.4,1.3,0.3,2.7,0.5,4
	c0.2,1.7,0.5,3.5,1.2,5.2c0.3,0.8,0.2,1.7,0.6,2.4c0.4,0.8,0.3,1.7,0.3,2.6c0.1,1.1-0.1,2.3,0.1,3.4c0.2,1.3,0.2,2.5,0.1,3.8
	c0,1.3,0.1,2.6-0.2,3.9c-0.3,1.3,0,2.8-0.6,4.1c-0.6,1-0.8,2.3-1.5,3.3c-0.1-1,0.2-2,0.3-3c0-1.1-0.5-2-0.8-3
	c-0.2-0.8-0.9-1.5-1.1-2.3c-0.2-0.8-0.1-1.7-0.6-2.4c-0.6-0.9-1.4-1.6-2-2.5c-0.5-0.6-0.8-1.3-1.4-1.8c-0.5-0.4-1.2-0.5-1.8-0.7
	c-0.5-0.1-1,0.2-1.4,0.4c-0.7,0.4-1.5,0.8-1.9,1.6c-0.4,0.8-0.6,1.7-1,2.5c-0.3-0.8-0.8-1.4-1.3-2c-0.1-0.4,0-0.9,0.1-1.3
	c0.2-0.8,0.8-1.3,1.1-2c0.2-0.7,0.2-1.6,0.8-2.1c0.8-0.6,1.8-0.1,2.7-0.3c0.9-0.5,1.7-1.1,2.5-1.7c0.4,0.7,0.7,1.5,1.1,2.3
	c0.4-0.2,0.9-0.4,1.3-0.6c0,0.6,0,1.3,0.1,1.9c0.7,0.9,1.4,1.7,2.3,2.4c0.2-0.1,0.3-0.3,0.3-0.5c0.1-1.4-0.2-2.7-0.4-4.1
	c-0.2-1.6-1.3-2.9-1.7-4.5c-0.2-1.1-0.4-2.2-0.8-3.3c-0.3-0.8-1.1-1.5-1.2-2.4c-0.2-1.2-0.7-2.3-0.5-3.5c0.1-1,0.7-1.9,0.6-2.9
	c0-1.6-0.1-3.2-0.7-4.7c-0.1-0.5-0.4-1-0.4-1.5c0-0.5,0.1-1,0-1.5c-0.1-0.9-0.9-1.5-0.9-2.4c-0.2-1.2,0.6-2.3,0.8-3.5
	c0.1-0.9,1.2-1.5,1.1-2.5c0-0.8,0-1.6,0.2-2.4c0.6,0.1,1.3,0.1,1.9,0.2c0-1.1,0.1-2.3,0.4-3.4C95.5,66,95.4,65,95.9,64.1z"/>
<path fill="#FFFFFF" stroke="#000000" stroke-width="0.5" stroke-miterlimit="10" d="M61.7,56.3c0.3-0.6,1.1-0.8,1.6-1.2
	c0.3,0.9,1.1,1.6,1.9,2.1c0.7,0.4,1.6,0.5,2.3,0.8c0.9,0.4,1.9,0.1,2.9,0.3c0.6,0.1,1.2,0.1,1.8,0.1c0.6,0,1.1,0.3,1.5,0.5
	c0.5,0.3,1.1,0.3,1.7,0.4c0.7,0.2,1.4,0.6,2.1,0.8c0.7,0.2,1.3,0.8,2,1.1c0.4,0.1,0.7,0,1.1-0.1c-0.2,0.1-0.5,0.2-0.7,0.3
	c0.1,0,0.2,0.1,0.2,0.2c0.4-0.1,0.9-0.2,1.3,0.1c0.8,0.3,1.4,0.9,2.1,1.4c0-0.3,0.2-0.8-0.1-1c-1.3-1.1-2.7-2.3-4.4-2.9
	c-0.6-0.2-1.1-0.8-1.8-1c-0.8-0.2-1.7-0.6-2.5-0.7c-0.7,0-1.4-0.4-2-0.8c-0.2-1.1-0.2-2.3,0-3.5c0.6,0.4,1.3,0.8,2,1.2
	c0.9,0.4,1.9,0.7,2.6,1.4c0-1-0.1-2.1,0.3-3c0.5-0.6,1.2-0.8,1.9-1c0.3,1.2,0.4,2.4,0.7,3.5c0.1,0.5,0.4,0.8,0.8,1.1
	c0.5,0.5,0.6,1.2,0.9,1.8c0.7,0.5,1.6,0.7,2.2,1.2c0.8,0.7,2,1.3,2.3,2.4c0.2,1.5,0.4,2.9,0.6,4.4c0.1,0.5,0.4,0.9,0.7,1.3
	c0.5,0.7,1,1.4,1.6,2c0.4,0.5,1.2,0.8,1.2,1.6c-0.8-0.2-1.4-0.8-2.1-1.4c-0.6-0.5-1.4-0.7-2-1.2c-0.7-0.6-1.6-0.7-2.4-0.9
	c-1-0.3-2-0.2-2.9-0.1c-0.6,0.3-0.8,1.1-0.9,1.7c0.8,0.3,1.3-0.5,2-0.8c0.1,0.3,0.4,0.6,0.2,0.9c-0.3,0.5-0.7,0.9-1.2,1.1
	c-0.5,0.1-1,0.1-1.5,0.1c-0.3-0.5-0.6-1-0.9-1.5c-0.2-0.9,0.1-1.9,0.7-2.5c0.2-0.4,0.8-0.3,1.2-0.4c0.5,0,1.1-0.3,1.6-0.1
	c0.6,0.2,1.2,0,1.7,0.3c0.1-0.2,0.1-0.3,0.2-0.5c-0.5-0.5-1.1-0.8-1.6-1.2c-0.6-0.5-1.5-0.5-2.2-0.8c-0.8-0.2-1.6-0.7-2.5-0.8
	c-0.6,0-1.1,0.3-1.6,0.7c-0.7,0.4-1.3,0.8-2.1,0.9c0.2-0.6,0.3-1.2,0.6-1.8c0.3-0.5,0.6-0.9,0.9-1.4c-0.3-0.1-0.5-0.3-0.8-0.4
	c-0.6,0-1.2,0.2-1.8,0c-0.5-0.2-1-0.3-1.6-0.3c-0.8,0-1.5-0.1-2.3-0.1c-0.9,0-1.7,0.4-2.6,0.5c-0.7,0.1-1.5,0.1-2.2,0.4
	c-1.1,0.6-2.4,0.7-3.5,1.3c-0.5,0.3-1.2,0.4-1.8,0.4c-0.3-1-1.4-1.1-2.2-1.7c0.3-0.3,0.8-0.6,1.2-0.8c0.4-0.2,0.6-0.7,1-0.9
	c1-0.3,2.1-0.6,3.1-0.9C61.9,58.2,61.5,57.3,61.7,56.3z"/>
<path fill="#FFFFFF" stroke="#000000" stroke-width="0.5" stroke-miterlimit="10" d="M24.2,69c0.3-0.2,0.6,0,0.8,0.1
	c1,0.5,1.8,1.4,2.7,2.1c-0.5,0.5-1.2,0.8-1.8,1c-0.8,0.3-1.3,1-2,1.5c-0.9,0.6-1.9,1.1-2.7,1.7c-0.7,0.5-0.9,1.4-1.5,2
	c-0.7,0.8-1.5,1.5-2.3,2.2C17,80.1,17,80.7,17,81.2c0,1.4-0.7,2.6-1,3.9c-0.2,1.2,0.5,2.2,0.6,3.3c0.1,0.7,0.6,1.2,0.9,1.8
	c0.6,0.9,1.3,1.8,2.1,2.6c0.4,0.4,0.9,0.8,0.9,1.4c-0.2,0.3-0.5,0.6-0.9,0.7c-0.4-0.2-0.8-0.5-1.2-0.6c-0.5-0.1-1-0.1-1.5-0.2
	c-0.3-0.2-0.5-0.6-0.7-0.9c-0.1,0-0.3,0-0.4-0.1c-0.2,0.5-0.4,1-0.4,1.5c0,0.9,0.4,1.7,0.8,2.5c0.5,1.1,0.9,2.3,1,3.5
	c0.1,0.9,1,1.3,1.5,1.9c-0.9,0.9-1.8,1.8-2.3,3.1c-0.7-1.2-1.6-2.2-2.1-3.5c-0.2-0.5-0.9-0.3-1.3-0.2c-0.4,0.5-0.5,1.4-1.2,1.6
	c-0.9,0.3-1.8,0.1-2.7-0.1c-0.6-0.3-1.1-0.7-1.6-1c0-0.1-0.1-0.3-0.1-0.4c1-0.8,2-1.5,3.2-1.9c0.6-0.8,0.7-1.8,0.9-2.7
	c0.1-0.7,0.5-1.4,0.6-2.1c0-0.6-0.3-1.2-0.5-1.7c-0.5-1.7-0.4-3.6,0.2-5.4c0.3-1.1,0.9-2.2,0.7-3.3c-0.2-0.5-0.6-1.2-1.2-1.2
	c-1.6-0.1-3-1.2-3.7-2.6c1.2-0.2,2.4-0.5,3.6-0.5c0.8-0.2,1.4-0.8,2.1-1.1c1.3-0.6,2.3-1.7,3.1-2.9c0.9-0.8,1.7-1.7,2.4-2.6
	c0.6-0.8,1.4-1.3,2.3-1.7c0.7-0.2,0.8-1.1,1.2-1.7C22.8,70.1,23.5,69.5,24.2,69z"/>
<path fill="#FFFFFF" stroke="#000000" stroke-width="0.5" stroke-miterlimit="10" d="M66.5,66.4c0.3-1,0.9-1.8,1.5-2.6
	c1,0.3,2,0.5,3,0.8c0,0.5,0.2,1.2-0.2,1.6c-0.7,0.7-1.1,1.7-1.9,2.3c-0.4,0.4-0.8,0.7-1.1,1.2c-0.6,1-1.4,1.8-2.3,2.5
	c-0.6,0.4-0.9,1.1-1.4,1.7c-0.7,1-1.8,1.7-2.4,2.8c-0.3,0.6-0.6,1.2-1,1.6c-1.1,1.1-2.2,2.2-3.2,3.3c-0.8,1.1-1.9,2-2.7,3.1
	c-0.3,0.4-0.7,0.6-1.1,0.8c-0.2,0.1-0.5,0.2-0.7,0c-0.3-0.7-0.5-1.4-0.5-2.1c0.3-0.8,1-1.3,1.6-1.8c0.8-0.6,1.5-1.4,2.1-2.2
	c-1.3-0.5-2.6-1.3-3.4-2.5c-0.1-0.3-0.1-0.7-0.2-1c1.4,0.1,2.8,0.7,4.2,0.4c1-0.2,2.1-0.1,2.9-0.9c0.8-0.8,1.8-1.3,2.3-2.3
	c0.4-0.8,1.3-1.2,1.6-2c0.3-0.9,1-1.6,1.4-2.4C65.5,67.9,66.2,67.3,66.5,66.4z"/>
<path fill="#FFFFFF" stroke="#000000" stroke-width="0.5" stroke-miterlimit="10" d="M37.4,103c0.3-0.5,0.8-0.9,1.4-1.2
	c0.1,0.3,0.2,0.6,0.3,0.9c0.2,0.8,0.7,1.4,0.8,2.2c0,0.4,0.3,0.5,0.6,0.7c0.2-0.7,0.3-1.5,0.6-2.1c0.7-0.5,1.5-1.1,2.4-1.2
	c0.6,0.3,1.6,0.5,1.7,1.3c-0.3,0.5-0.7,0.8-1,1.3c-0.2,0.4-0.8,0.4-1,0.8c-0.3,0.9-0.5,1.8-0.9,2.7c-0.4,0.9-0.8,1.9-0.9,2.9
	c-0.1,0.6,0.2,1.2,0.1,1.8c-0.2,0.9-0.1,1.9-0.5,2.8c-0.2,1.1-0.7,2.1-1.1,3.2c-0.1,0.3-0.3,0.6-0.6,0.8c-0.7,0.6-0.9,1.5-1.5,2.1
	c-0.5,0.5-0.8,1.1-1.4,1.4c-0.5,0.2-0.9,0.5-1.4,0.8c-0.7,0.5-1.5,0.7-2.2,1.1c-0.4,0.2-0.8,0.5-1.2,0.7c-0.4,0.1-0.7,0-1.1,0.1
	c-0.8,0.1-1.6,0.4-2.4,0.3c-0.5,0-1-0.1-1.5-0.1c-0.6-0.8-1.7-0.9-2.6-0.8c-0.1-0.2-0.3-0.4-0.5-0.5c-0.6-0.2-1.3-0.1-1.9-0.5
	c-0.7-0.4-1.4-0.9-2-1.5c0.5-0.7,1-1.4,1.5-2.1c0.4,0.2,0.8,0.6,1.3,0.7c0.5,0.1,1-0.2,1.4-0.4c1-0.5,1.8-1.3,2.8-1.8
	c-0.1,0.7-0.1,1.4-0.2,2c-0.2,0.4-0.4,0.9-0.5,1.4c0.7,0.1,1.3,0.2,2,0.2c0.9,0.1,1.8,0.5,2.7,0.1c0.9-0.2,1.7-0.5,2.6-0.7
	c0.6-0.2,1-0.6,1.6-0.9c0.7-0.4,0.9-1.3,1.3-1.9c0.5-0.9,0.7-2,0.2-3c-0.4-0.6-0.8-1.2-1.3-1.7c-0.4-0.5-1.1-0.7-1.5-1.1
	c-0.2-0.2,0-0.5,0-0.8c0.8,0,1.7,0,2.5,0c0.5,0.6,1.4,0.7,2.2,0.6c0.3-0.6,0.4-1.3,0.3-1.9c-0.2-1.2-0.1-2.5-0.2-3.7
	c-0.1-1-1.1-1.4-1.6-2.1c-0.3-0.4-0.6-0.7-0.7-1.2C36.5,104,37.1,103.6,37.4,103z"/>
<path fill="#FFFFFF" stroke="#000000" stroke-width="0.5" stroke-miterlimit="10" d="M87.5,113.2c0.7-0.2,1.4-0.2,2.2-0.2
	c0.6,1.1,0.6,2.3,0.8,3.5c0.6,0.8,1.8,0.3,2.5-0.1c1.1,1.4,2.4,3,2.3,4.9c0,1.2-0.3,2.4-1,3.3c-0.8-1.3-1.9-2.4-2.5-3.7
	c-0.4-0.8,1-1.6,0.2-2.2c-0.5-0.5-3.3-0.4-4-0.5c-1.4-0.1-2.6-0.8-3.9-1.1c-0.9-0.2-1.6,0.4-2.4,0.7c-1,0.4-1.8,1.3-2.4,2.1
	c-0.6,0.8,0.1,1.7-0.1,2.5c-0.3,0.9-0.5,1.9-0.4,2.9c-1.3-0.7-3.3-1.1-3.3-2.9c-0.3-1.3,0.3-2.6,1-3.6c0.7-0.9,1.7-1.4,2.7-2
	c0.6-0.3,0.4-1.1,0.5-1.6c0.8-0.3,1.6-0.8,2.5-0.8c1.1,0.1,2,1.2,3.2,1C86.2,114.9,86.6,113.7,87.5,113.2z"/>
<path fill="#FFFFFF" stroke="#000000" stroke-width="0.5" stroke-miterlimit="10" d="M37.9,93c0,0-6.8,9.8-9,12.6
	c-2.1,2.6-11.2,7.2-9.9,7.1c-2.2,0.5-2.1,0.6-1.9,1.3c0.2,0.8,1.6,1.6,4.8,1c3.1-0.6,6-2.5,9.9-8.5c4-6,8.4-11.3,8.4-11.3l-0.7-1.5
	L37.9,93z"/>
<path fill="#AA1E23" d="M417.4,75.8c4.4,0.7,8.9,0.9,13.3,0c4.6,15.9,10.1,31.6,16.3,47c1.2,0,3.6,0,4.8,0.1
	c0.6-6.6-0.4-14.3-6.6-18.1c1-1.1,2.1-2.2,3.2-3.4c7.4,0.7,13.1,7.4,14.7,14.3v6.2c-0.8,3-4.1,4.2-6.9,4.4
	c-6.9,0.1-13.8,0.1-20.7-0.2c-2.6-13.1-7.4-25.6-12.4-37.9c-4.5,12.1-7.7,25.5-4.3,38.3c-5.3-0.7-10.6-0.9-15.8,0
	c3.5-5.1,3.7-11.5,5.4-17.3c2-9.3,7.1-17.6,13.7-24.4C420.5,81.8,419,78.7,417.4,75.8L417.4,75.8z"/>
</svg>
